%TF.GenerationSoftware,KiCad,Pcbnew,7.0.6-7.0.6~ubuntu22.04.1*%
%TF.CreationDate,2023-08-07T17:02:43+02:00*%
%TF.ProjectId,SHT45,53485434-352e-46b6-9963-61645f706362,rev?*%
%TF.SameCoordinates,Original*%
%TF.FileFunction,Copper,L2,Bot*%
%TF.FilePolarity,Positive*%
%FSLAX46Y46*%
G04 Gerber Fmt 4.6, Leading zero omitted, Abs format (unit mm)*
G04 Created by KiCad (PCBNEW 7.0.6-7.0.6~ubuntu22.04.1) date 2023-08-07 17:02:43*
%MOMM*%
%LPD*%
G01*
G04 APERTURE LIST*
%TA.AperFunction,ComponentPad*%
%ADD10R,1.700000X1.700000*%
%TD*%
%TA.AperFunction,ComponentPad*%
%ADD11O,1.700000X1.700000*%
%TD*%
%TA.AperFunction,ViaPad*%
%ADD12C,0.800000*%
%TD*%
%TA.AperFunction,Conductor*%
%ADD13C,0.250000*%
%TD*%
G04 APERTURE END LIST*
D10*
%TO.P,J1,1,Pin_1*%
%TO.N,+3.3V*%
X125044000Y-84196000D03*
D11*
%TO.P,J1,2,Pin_2*%
%TO.N,/SCL*%
X125044000Y-86736000D03*
%TO.P,J1,3,Pin_3*%
%TO.N,/SDA*%
X125044000Y-89276000D03*
%TO.P,J1,4,Pin_4*%
%TO.N,GND*%
X125044000Y-91816000D03*
%TD*%
D12*
%TO.N,/SCL*%
X131572000Y-91948000D03*
X130048000Y-88138000D03*
%TD*%
D13*
%TO.N,/SCL*%
X125044000Y-86736000D02*
X127122000Y-86736000D01*
X127122000Y-86736000D02*
X128524000Y-88138000D01*
X129286000Y-91948000D02*
X131572000Y-91948000D01*
X130048000Y-88138000D02*
X128524000Y-88138000D01*
X128524000Y-88138000D02*
X128524000Y-91186000D01*
X128524000Y-91186000D02*
X129286000Y-91948000D01*
%TD*%
%TA.AperFunction,Conductor*%
%TO.N,GND*%
G36*
X142435878Y-81935052D02*
G01*
X142481966Y-81987566D01*
X142493500Y-82039790D01*
X142493500Y-94871500D01*
X142473815Y-94938539D01*
X142421011Y-94984294D01*
X142369500Y-94995500D01*
X121790000Y-94995500D01*
X121722961Y-94975815D01*
X121677206Y-94923011D01*
X121666000Y-94871500D01*
X121666000Y-89276000D01*
X123688341Y-89276000D01*
X123708936Y-89511403D01*
X123708938Y-89511413D01*
X123770094Y-89739655D01*
X123770096Y-89739659D01*
X123770097Y-89739663D01*
X123860816Y-89934209D01*
X123869965Y-89953830D01*
X123869967Y-89953834D01*
X124005501Y-90147395D01*
X124005506Y-90147402D01*
X124172597Y-90314493D01*
X124172603Y-90314498D01*
X124198467Y-90332608D01*
X124305332Y-90407436D01*
X124358594Y-90444730D01*
X124402219Y-90499307D01*
X124409413Y-90568805D01*
X124377890Y-90631160D01*
X124358595Y-90647880D01*
X124172922Y-90777890D01*
X124172920Y-90777891D01*
X124005891Y-90944920D01*
X124005886Y-90944926D01*
X123870400Y-91138420D01*
X123870399Y-91138422D01*
X123770570Y-91352507D01*
X123770567Y-91352513D01*
X123713364Y-91565999D01*
X123713364Y-91566000D01*
X124610314Y-91566000D01*
X124584507Y-91606156D01*
X124544000Y-91744111D01*
X124544000Y-91887889D01*
X124584507Y-92025844D01*
X124610314Y-92066000D01*
X123713364Y-92066000D01*
X123770567Y-92279486D01*
X123770570Y-92279492D01*
X123870399Y-92493578D01*
X124005894Y-92687082D01*
X124172917Y-92854105D01*
X124366421Y-92989600D01*
X124580507Y-93089429D01*
X124580516Y-93089433D01*
X124794000Y-93146634D01*
X124794000Y-92251501D01*
X124901685Y-92300680D01*
X125008237Y-92316000D01*
X125079763Y-92316000D01*
X125186315Y-92300680D01*
X125294000Y-92251501D01*
X125294000Y-93146633D01*
X125507483Y-93089433D01*
X125507492Y-93089429D01*
X125721578Y-92989600D01*
X125915082Y-92854105D01*
X126082105Y-92687082D01*
X126217600Y-92493578D01*
X126317429Y-92279492D01*
X126317432Y-92279486D01*
X126374636Y-92066000D01*
X125477686Y-92066000D01*
X125503493Y-92025844D01*
X125544000Y-91887889D01*
X125544000Y-91744111D01*
X125503493Y-91606156D01*
X125477686Y-91566000D01*
X126374636Y-91566000D01*
X126374635Y-91565999D01*
X126317432Y-91352513D01*
X126317429Y-91352507D01*
X126217600Y-91138422D01*
X126217599Y-91138420D01*
X126082113Y-90944926D01*
X126082108Y-90944920D01*
X125915078Y-90777890D01*
X125729405Y-90647879D01*
X125685780Y-90593302D01*
X125678588Y-90523804D01*
X125710110Y-90461449D01*
X125729406Y-90444730D01*
X125775367Y-90412548D01*
X125915401Y-90314495D01*
X126082495Y-90147401D01*
X126218035Y-89953830D01*
X126317903Y-89739663D01*
X126379063Y-89511408D01*
X126399659Y-89276000D01*
X126379063Y-89040592D01*
X126317903Y-88812337D01*
X126218035Y-88598171D01*
X126153696Y-88506284D01*
X126082494Y-88404597D01*
X125915402Y-88237506D01*
X125915401Y-88237505D01*
X125729842Y-88107575D01*
X125729841Y-88107574D01*
X125686216Y-88052997D01*
X125679024Y-87983498D01*
X125710546Y-87921144D01*
X125729836Y-87904428D01*
X125915401Y-87774495D01*
X126082495Y-87607401D01*
X126217651Y-87414377D01*
X126272229Y-87370752D01*
X126319227Y-87361500D01*
X126811548Y-87361500D01*
X126878587Y-87381185D01*
X126899228Y-87397818D01*
X127862181Y-88360772D01*
X127895665Y-88422093D01*
X127898499Y-88448451D01*
X127898499Y-91103255D01*
X127896776Y-91118872D01*
X127897061Y-91118899D01*
X127896326Y-91126665D01*
X127898500Y-91195814D01*
X127898500Y-91225343D01*
X127898501Y-91225360D01*
X127899368Y-91232231D01*
X127899826Y-91238050D01*
X127901290Y-91284624D01*
X127901291Y-91284627D01*
X127906880Y-91303867D01*
X127910824Y-91322911D01*
X127913336Y-91342792D01*
X127917185Y-91352513D01*
X127930490Y-91386119D01*
X127932382Y-91391647D01*
X127945381Y-91436388D01*
X127955580Y-91453634D01*
X127964138Y-91471103D01*
X127971514Y-91489732D01*
X127998898Y-91527423D01*
X128002106Y-91532307D01*
X128025827Y-91572416D01*
X128025833Y-91572424D01*
X128039990Y-91586580D01*
X128052628Y-91601376D01*
X128064405Y-91617586D01*
X128064406Y-91617587D01*
X128100309Y-91647288D01*
X128104620Y-91651210D01*
X128479254Y-92025844D01*
X128785194Y-92331784D01*
X128795019Y-92344048D01*
X128795240Y-92343866D01*
X128800210Y-92349873D01*
X128800213Y-92349876D01*
X128800214Y-92349877D01*
X128850651Y-92397241D01*
X128871530Y-92418120D01*
X128877004Y-92422366D01*
X128881442Y-92426156D01*
X128915418Y-92458062D01*
X128915422Y-92458064D01*
X128932973Y-92467713D01*
X128949231Y-92478392D01*
X128965064Y-92490674D01*
X128987015Y-92500172D01*
X129007837Y-92509183D01*
X129013081Y-92511752D01*
X129053908Y-92534197D01*
X129073312Y-92539179D01*
X129091710Y-92545478D01*
X129110105Y-92553438D01*
X129156129Y-92560726D01*
X129161832Y-92561907D01*
X129206981Y-92573500D01*
X129227016Y-92573500D01*
X129246413Y-92575026D01*
X129266196Y-92578160D01*
X129312583Y-92573775D01*
X129318422Y-92573500D01*
X130847983Y-92573500D01*
X130915022Y-92593185D01*
X130951088Y-92628613D01*
X130954766Y-92634118D01*
X130975641Y-92700797D01*
X130957154Y-92768176D01*
X130927152Y-92801378D01*
X130912567Y-92812570D01*
X130901379Y-92827150D01*
X130882807Y-92840709D01*
X130873624Y-92856616D01*
X130853919Y-92882295D01*
X130846429Y-92889784D01*
X130832638Y-92916735D01*
X130821452Y-92931313D01*
X130821444Y-92931327D01*
X130814415Y-92948297D01*
X130799988Y-92966198D01*
X130795233Y-92983944D01*
X130782847Y-93013847D01*
X130777549Y-93023022D01*
X130771204Y-93052620D01*
X130764171Y-93069599D01*
X130761772Y-93087823D01*
X130752468Y-93108852D01*
X130752468Y-93127218D01*
X130748243Y-93159312D01*
X130745501Y-93169543D01*
X130747033Y-93199774D01*
X130744634Y-93217998D01*
X130744634Y-93218000D01*
X130747031Y-93236209D01*
X130747033Y-93236222D01*
X130743488Y-93258943D01*
X130748243Y-93276685D01*
X130752468Y-93308780D01*
X130752468Y-93319373D01*
X130761772Y-93348177D01*
X130764171Y-93366398D01*
X130764172Y-93366401D01*
X130771202Y-93383373D01*
X130773660Y-93406243D01*
X130782846Y-93422152D01*
X130795235Y-93452060D01*
X130797976Y-93462291D01*
X130814417Y-93487706D01*
X130821448Y-93504681D01*
X130832634Y-93519259D01*
X130840925Y-93540708D01*
X130853919Y-93553702D01*
X130873624Y-93579381D01*
X130878923Y-93588558D01*
X130901385Y-93608856D01*
X130912569Y-93623431D01*
X130927135Y-93634608D01*
X130927142Y-93634613D01*
X130940703Y-93653185D01*
X130956617Y-93662374D01*
X130982297Y-93682080D01*
X130989794Y-93689577D01*
X131016741Y-93703366D01*
X131016748Y-93703371D01*
X131031317Y-93714550D01*
X131048288Y-93721579D01*
X131066194Y-93736008D01*
X131083934Y-93740762D01*
X131113842Y-93753151D01*
X131123020Y-93758450D01*
X131152627Y-93764798D01*
X131152632Y-93764800D01*
X131169602Y-93771829D01*
X131187816Y-93774226D01*
X131208852Y-93783532D01*
X131227222Y-93783532D01*
X131259316Y-93787757D01*
X131269545Y-93790498D01*
X131299779Y-93788967D01*
X131318000Y-93791366D01*
X131336215Y-93788967D01*
X131358942Y-93792511D01*
X131376685Y-93787757D01*
X131408779Y-93783532D01*
X131419370Y-93783532D01*
X131448182Y-93774227D01*
X131466398Y-93771829D01*
X131483368Y-93764799D01*
X131506240Y-93762340D01*
X131522152Y-93753153D01*
X131552062Y-93740763D01*
X131562294Y-93738021D01*
X131587706Y-93721581D01*
X131604683Y-93714550D01*
X131619253Y-93703369D01*
X131640706Y-93695074D01*
X131653702Y-93682079D01*
X131679384Y-93662372D01*
X131688564Y-93657071D01*
X131708861Y-93634610D01*
X131723431Y-93623431D01*
X131734609Y-93608862D01*
X131753183Y-93595299D01*
X131762372Y-93579384D01*
X131782079Y-93553702D01*
X131789577Y-93546204D01*
X131803368Y-93519255D01*
X131814550Y-93504683D01*
X131821580Y-93487709D01*
X131836009Y-93469803D01*
X131840763Y-93452062D01*
X131853153Y-93422152D01*
X131858449Y-93412979D01*
X131864798Y-93383370D01*
X131871829Y-93366398D01*
X131879135Y-93310898D01*
X131880709Y-93302987D01*
X131883532Y-93292454D01*
X131883931Y-93290968D01*
X131884266Y-93289714D01*
X131884270Y-93289698D01*
X131890497Y-93266457D01*
X131890117Y-93258946D01*
X132267488Y-93258946D01*
X132272242Y-93276687D01*
X132276467Y-93308778D01*
X132276467Y-93319370D01*
X132285772Y-93348177D01*
X132288171Y-93366398D01*
X132288172Y-93366401D01*
X132295202Y-93383373D01*
X132297660Y-93406243D01*
X132306846Y-93422152D01*
X132319235Y-93452060D01*
X132321976Y-93462291D01*
X132338417Y-93487706D01*
X132345448Y-93504681D01*
X132356634Y-93519259D01*
X132364925Y-93540708D01*
X132377919Y-93553702D01*
X132397624Y-93579381D01*
X132402923Y-93588558D01*
X132425385Y-93608856D01*
X132436569Y-93623431D01*
X132451135Y-93634608D01*
X132451142Y-93634613D01*
X132464703Y-93653185D01*
X132480617Y-93662374D01*
X132506297Y-93682080D01*
X132513794Y-93689577D01*
X132540741Y-93703366D01*
X132540748Y-93703371D01*
X132555317Y-93714550D01*
X132572288Y-93721579D01*
X132590194Y-93736008D01*
X132607934Y-93740762D01*
X132637842Y-93753151D01*
X132647020Y-93758450D01*
X132676627Y-93764798D01*
X132676632Y-93764800D01*
X132693602Y-93771829D01*
X132711816Y-93774226D01*
X132732852Y-93783532D01*
X132751222Y-93783532D01*
X132783316Y-93787757D01*
X132793545Y-93790498D01*
X132823779Y-93788967D01*
X132842000Y-93791366D01*
X132860215Y-93788967D01*
X132882942Y-93792511D01*
X132900685Y-93787757D01*
X132932779Y-93783532D01*
X132943370Y-93783532D01*
X132972182Y-93774227D01*
X132990398Y-93771829D01*
X133007368Y-93764799D01*
X133030240Y-93762340D01*
X133046152Y-93753153D01*
X133076062Y-93740763D01*
X133086294Y-93738021D01*
X133111706Y-93721581D01*
X133128683Y-93714550D01*
X133143253Y-93703369D01*
X133164706Y-93695074D01*
X133177702Y-93682079D01*
X133203384Y-93662372D01*
X133212564Y-93657071D01*
X133232861Y-93634610D01*
X133247431Y-93623431D01*
X133258609Y-93608862D01*
X133277183Y-93595299D01*
X133286372Y-93579384D01*
X133306079Y-93553702D01*
X133313577Y-93546204D01*
X133327368Y-93519255D01*
X133338550Y-93504683D01*
X133345580Y-93487709D01*
X133360009Y-93469803D01*
X133364763Y-93452062D01*
X133377153Y-93422152D01*
X133382449Y-93412979D01*
X133388798Y-93383370D01*
X133395829Y-93366398D01*
X133403135Y-93310898D01*
X133404709Y-93302987D01*
X133407532Y-93292454D01*
X133407931Y-93290968D01*
X133408266Y-93289714D01*
X133408270Y-93289698D01*
X133414497Y-93266457D01*
X133414117Y-93258943D01*
X133791488Y-93258943D01*
X133796243Y-93276685D01*
X133800468Y-93308780D01*
X133800468Y-93319373D01*
X133809772Y-93348177D01*
X133812171Y-93366398D01*
X133812172Y-93366401D01*
X133819202Y-93383373D01*
X133821660Y-93406243D01*
X133830846Y-93422152D01*
X133843235Y-93452060D01*
X133845976Y-93462291D01*
X133862417Y-93487706D01*
X133869448Y-93504681D01*
X133880634Y-93519259D01*
X133888925Y-93540708D01*
X133901919Y-93553702D01*
X133921624Y-93579381D01*
X133926923Y-93588558D01*
X133949385Y-93608856D01*
X133960569Y-93623431D01*
X133975135Y-93634608D01*
X133975142Y-93634613D01*
X133988703Y-93653185D01*
X134004617Y-93662374D01*
X134030297Y-93682080D01*
X134037794Y-93689577D01*
X134064741Y-93703366D01*
X134064748Y-93703371D01*
X134079317Y-93714550D01*
X134096288Y-93721579D01*
X134114194Y-93736008D01*
X134131934Y-93740762D01*
X134161842Y-93753151D01*
X134171020Y-93758450D01*
X134200627Y-93764798D01*
X134200632Y-93764800D01*
X134217602Y-93771829D01*
X134235816Y-93774226D01*
X134256852Y-93783532D01*
X134275222Y-93783532D01*
X134307316Y-93787757D01*
X134317545Y-93790498D01*
X134347779Y-93788967D01*
X134366000Y-93791366D01*
X134384215Y-93788967D01*
X134406942Y-93792511D01*
X134424685Y-93787757D01*
X134456779Y-93783532D01*
X134467370Y-93783532D01*
X134496182Y-93774227D01*
X134514398Y-93771829D01*
X134531368Y-93764799D01*
X134554240Y-93762340D01*
X134570152Y-93753153D01*
X134600062Y-93740763D01*
X134610294Y-93738021D01*
X134635706Y-93721581D01*
X134652683Y-93714550D01*
X134667253Y-93703369D01*
X134688706Y-93695074D01*
X134701702Y-93682079D01*
X134727384Y-93662372D01*
X134736564Y-93657071D01*
X134756861Y-93634610D01*
X134771431Y-93623431D01*
X134782609Y-93608862D01*
X134801183Y-93595299D01*
X134810372Y-93579384D01*
X134830079Y-93553702D01*
X134837577Y-93546204D01*
X134851368Y-93519255D01*
X134862550Y-93504683D01*
X134869580Y-93487709D01*
X134884009Y-93469803D01*
X134888763Y-93452062D01*
X134901153Y-93422152D01*
X134906449Y-93412979D01*
X134912798Y-93383370D01*
X134919829Y-93366398D01*
X134927135Y-93310898D01*
X134928709Y-93302987D01*
X134931532Y-93292454D01*
X134931931Y-93290968D01*
X134932266Y-93289714D01*
X134932270Y-93289698D01*
X134938497Y-93266457D01*
X134938117Y-93258943D01*
X135375449Y-93258943D01*
X135380204Y-93276685D01*
X135384429Y-93308780D01*
X135384429Y-93319373D01*
X135393733Y-93348177D01*
X135396132Y-93366398D01*
X135396133Y-93366401D01*
X135403163Y-93383373D01*
X135405621Y-93406243D01*
X135414807Y-93422152D01*
X135427196Y-93452060D01*
X135429937Y-93462291D01*
X135446378Y-93487706D01*
X135453409Y-93504681D01*
X135464595Y-93519259D01*
X135472886Y-93540708D01*
X135485880Y-93553702D01*
X135505585Y-93579381D01*
X135510884Y-93588558D01*
X135533346Y-93608856D01*
X135544530Y-93623431D01*
X135559096Y-93634608D01*
X135559103Y-93634613D01*
X135572664Y-93653185D01*
X135588578Y-93662374D01*
X135614258Y-93682080D01*
X135621755Y-93689577D01*
X135648702Y-93703366D01*
X135648709Y-93703371D01*
X135663278Y-93714550D01*
X135680249Y-93721579D01*
X135698155Y-93736008D01*
X135715895Y-93740762D01*
X135745803Y-93753151D01*
X135754981Y-93758450D01*
X135784588Y-93764798D01*
X135784593Y-93764800D01*
X135801563Y-93771829D01*
X135819777Y-93774226D01*
X135840813Y-93783532D01*
X135859183Y-93783532D01*
X135891277Y-93787757D01*
X135901506Y-93790498D01*
X135931740Y-93788967D01*
X135949961Y-93791366D01*
X135968176Y-93788967D01*
X135990903Y-93792511D01*
X136008646Y-93787757D01*
X136040740Y-93783532D01*
X136051331Y-93783532D01*
X136080143Y-93774227D01*
X136098359Y-93771829D01*
X136115329Y-93764799D01*
X136138201Y-93762340D01*
X136154113Y-93753153D01*
X136184023Y-93740763D01*
X136194255Y-93738021D01*
X136219667Y-93721581D01*
X136236644Y-93714550D01*
X136251214Y-93703369D01*
X136272667Y-93695074D01*
X136285663Y-93682079D01*
X136311345Y-93662372D01*
X136320525Y-93657071D01*
X136340822Y-93634610D01*
X136355392Y-93623431D01*
X136366570Y-93608862D01*
X136385144Y-93595299D01*
X136394333Y-93579384D01*
X136414040Y-93553702D01*
X136421538Y-93546204D01*
X136435329Y-93519255D01*
X136446511Y-93504683D01*
X136453541Y-93487709D01*
X136467970Y-93469803D01*
X136472724Y-93452062D01*
X136485114Y-93422152D01*
X136490410Y-93412979D01*
X136496759Y-93383370D01*
X136503790Y-93366398D01*
X136511096Y-93310898D01*
X136512670Y-93302987D01*
X136515493Y-93292454D01*
X136515892Y-93290968D01*
X136516227Y-93289714D01*
X136516231Y-93289698D01*
X136522458Y-93266457D01*
X136520929Y-93236213D01*
X136523327Y-93218000D01*
X136520928Y-93199782D01*
X136524471Y-93177057D01*
X136516231Y-93146303D01*
X136516229Y-93146294D01*
X136515493Y-93143548D01*
X136515493Y-93143546D01*
X136512672Y-93133017D01*
X136511094Y-93125086D01*
X136503790Y-93069602D01*
X136496759Y-93052629D01*
X136494300Y-93029763D01*
X136485113Y-93013850D01*
X136472725Y-92983942D01*
X136469983Y-92973710D01*
X136453541Y-92948290D01*
X136446511Y-92931317D01*
X136446508Y-92931313D01*
X136435327Y-92916741D01*
X136427034Y-92895290D01*
X136414042Y-92882298D01*
X136394336Y-92856617D01*
X136389042Y-92847447D01*
X136366577Y-92827146D01*
X136355392Y-92812569D01*
X136355390Y-92812568D01*
X136355390Y-92812567D01*
X136340817Y-92801385D01*
X136327255Y-92782811D01*
X136311342Y-92773624D01*
X136285663Y-92753919D01*
X136278170Y-92746426D01*
X136251220Y-92732634D01*
X136236642Y-92721448D01*
X136219667Y-92714417D01*
X136201763Y-92699989D01*
X136184021Y-92695235D01*
X136154113Y-92682846D01*
X136144945Y-92677552D01*
X136115334Y-92671202D01*
X136098362Y-92664172D01*
X136098359Y-92664171D01*
X136080138Y-92661772D01*
X136059108Y-92652468D01*
X136040742Y-92652468D01*
X136008648Y-92648243D01*
X135998420Y-92645502D01*
X135968183Y-92647033D01*
X135949961Y-92644634D01*
X135949960Y-92644634D01*
X135949959Y-92644634D01*
X135931735Y-92647033D01*
X135909015Y-92643489D01*
X135891275Y-92648243D01*
X135859180Y-92652468D01*
X135848593Y-92652468D01*
X135819784Y-92661772D01*
X135801560Y-92664171D01*
X135784581Y-92671204D01*
X135761719Y-92673660D01*
X135745808Y-92682847D01*
X135715905Y-92695233D01*
X135705672Y-92697974D01*
X135680258Y-92714415D01*
X135663288Y-92721444D01*
X135663274Y-92721452D01*
X135648696Y-92732638D01*
X135627245Y-92740929D01*
X135614256Y-92753919D01*
X135588577Y-92773624D01*
X135579410Y-92778916D01*
X135559111Y-92801379D01*
X135544529Y-92812568D01*
X135533340Y-92827150D01*
X135514768Y-92840709D01*
X135505585Y-92856616D01*
X135485880Y-92882295D01*
X135478390Y-92889784D01*
X135464599Y-92916735D01*
X135453413Y-92931313D01*
X135453405Y-92931327D01*
X135446376Y-92948297D01*
X135431949Y-92966198D01*
X135427194Y-92983944D01*
X135414808Y-93013847D01*
X135409510Y-93023022D01*
X135403165Y-93052620D01*
X135396132Y-93069599D01*
X135393733Y-93087823D01*
X135384429Y-93108852D01*
X135384429Y-93127218D01*
X135380204Y-93159312D01*
X135377462Y-93169543D01*
X135378994Y-93199774D01*
X135376595Y-93217998D01*
X135376595Y-93218000D01*
X135378992Y-93236209D01*
X135378994Y-93236222D01*
X135375449Y-93258943D01*
X134938117Y-93258943D01*
X134936968Y-93236213D01*
X134939366Y-93218000D01*
X134936967Y-93199782D01*
X134940510Y-93177057D01*
X134932270Y-93146303D01*
X134932268Y-93146294D01*
X134931532Y-93143548D01*
X134931532Y-93143546D01*
X134928711Y-93133017D01*
X134927133Y-93125086D01*
X134919829Y-93069602D01*
X134912798Y-93052629D01*
X134910339Y-93029763D01*
X134901152Y-93013850D01*
X134888764Y-92983942D01*
X134886022Y-92973710D01*
X134869580Y-92948290D01*
X134862550Y-92931317D01*
X134862547Y-92931313D01*
X134851366Y-92916741D01*
X134843073Y-92895290D01*
X134830081Y-92882298D01*
X134810375Y-92856617D01*
X134805081Y-92847447D01*
X134782616Y-92827146D01*
X134771431Y-92812569D01*
X134771429Y-92812568D01*
X134771429Y-92812567D01*
X134756856Y-92801385D01*
X134743294Y-92782811D01*
X134727381Y-92773624D01*
X134701702Y-92753919D01*
X134694209Y-92746426D01*
X134667259Y-92732634D01*
X134652681Y-92721448D01*
X134635706Y-92714417D01*
X134617802Y-92699989D01*
X134600060Y-92695235D01*
X134570152Y-92682846D01*
X134560984Y-92677552D01*
X134531373Y-92671202D01*
X134514401Y-92664172D01*
X134514398Y-92664171D01*
X134496177Y-92661772D01*
X134475147Y-92652468D01*
X134456781Y-92652468D01*
X134424687Y-92648243D01*
X134414459Y-92645502D01*
X134384222Y-92647033D01*
X134366000Y-92644634D01*
X134365999Y-92644634D01*
X134365998Y-92644634D01*
X134347774Y-92647033D01*
X134325054Y-92643489D01*
X134307314Y-92648243D01*
X134275219Y-92652468D01*
X134264632Y-92652468D01*
X134235823Y-92661772D01*
X134217599Y-92664171D01*
X134200620Y-92671204D01*
X134177758Y-92673660D01*
X134161847Y-92682847D01*
X134131944Y-92695233D01*
X134121711Y-92697974D01*
X134096297Y-92714415D01*
X134079327Y-92721444D01*
X134079313Y-92721452D01*
X134064735Y-92732638D01*
X134043284Y-92740929D01*
X134030295Y-92753919D01*
X134004616Y-92773624D01*
X133995449Y-92778916D01*
X133975150Y-92801379D01*
X133960568Y-92812568D01*
X133949379Y-92827150D01*
X133930807Y-92840709D01*
X133921624Y-92856616D01*
X133901919Y-92882295D01*
X133894429Y-92889784D01*
X133880638Y-92916735D01*
X133869452Y-92931313D01*
X133869444Y-92931327D01*
X133862415Y-92948297D01*
X133847988Y-92966198D01*
X133843233Y-92983944D01*
X133830847Y-93013847D01*
X133825549Y-93023022D01*
X133819204Y-93052620D01*
X133812171Y-93069599D01*
X133809772Y-93087823D01*
X133800468Y-93108852D01*
X133800468Y-93127218D01*
X133796243Y-93159312D01*
X133793501Y-93169543D01*
X133795033Y-93199774D01*
X133792634Y-93217998D01*
X133792634Y-93218000D01*
X133795031Y-93236209D01*
X133795033Y-93236222D01*
X133791488Y-93258943D01*
X133414117Y-93258943D01*
X133412968Y-93236213D01*
X133415366Y-93218000D01*
X133412967Y-93199782D01*
X133416510Y-93177057D01*
X133408270Y-93146303D01*
X133408268Y-93146294D01*
X133407532Y-93143548D01*
X133407532Y-93143546D01*
X133404711Y-93133017D01*
X133403133Y-93125086D01*
X133395829Y-93069602D01*
X133388798Y-93052629D01*
X133386339Y-93029763D01*
X133377152Y-93013850D01*
X133364764Y-92983942D01*
X133362022Y-92973710D01*
X133345580Y-92948290D01*
X133338550Y-92931317D01*
X133338547Y-92931313D01*
X133327366Y-92916741D01*
X133319073Y-92895290D01*
X133306081Y-92882298D01*
X133286375Y-92856617D01*
X133281081Y-92847447D01*
X133258616Y-92827146D01*
X133247431Y-92812569D01*
X133247429Y-92812568D01*
X133247429Y-92812567D01*
X133232856Y-92801385D01*
X133219294Y-92782811D01*
X133203381Y-92773624D01*
X133177702Y-92753919D01*
X133170209Y-92746426D01*
X133143259Y-92732634D01*
X133128681Y-92721448D01*
X133111706Y-92714417D01*
X133093802Y-92699989D01*
X133076060Y-92695235D01*
X133046152Y-92682846D01*
X133036984Y-92677552D01*
X133007373Y-92671202D01*
X132990401Y-92664172D01*
X132990398Y-92664171D01*
X132972177Y-92661772D01*
X132951147Y-92652468D01*
X132932781Y-92652468D01*
X132900687Y-92648243D01*
X132890459Y-92645502D01*
X132860222Y-92647033D01*
X132842000Y-92644634D01*
X132841999Y-92644634D01*
X132841998Y-92644634D01*
X132823774Y-92647033D01*
X132801054Y-92643489D01*
X132783314Y-92648243D01*
X132751219Y-92652468D01*
X132740632Y-92652468D01*
X132711823Y-92661772D01*
X132693599Y-92664171D01*
X132676620Y-92671204D01*
X132653758Y-92673660D01*
X132637847Y-92682847D01*
X132607944Y-92695233D01*
X132597711Y-92697974D01*
X132572297Y-92714415D01*
X132555327Y-92721444D01*
X132555313Y-92721452D01*
X132540735Y-92732638D01*
X132519284Y-92740929D01*
X132506295Y-92753919D01*
X132480616Y-92773624D01*
X132471449Y-92778916D01*
X132451150Y-92801379D01*
X132436568Y-92812568D01*
X132425379Y-92827150D01*
X132406807Y-92840709D01*
X132397624Y-92856616D01*
X132377919Y-92882295D01*
X132370429Y-92889784D01*
X132356638Y-92916735D01*
X132345452Y-92931313D01*
X132345444Y-92931327D01*
X132338415Y-92948297D01*
X132323988Y-92966198D01*
X132319233Y-92983944D01*
X132306847Y-93013847D01*
X132301549Y-93023022D01*
X132295204Y-93052620D01*
X132288171Y-93069599D01*
X132285772Y-93087823D01*
X132276467Y-93108853D01*
X132276467Y-93127220D01*
X132272242Y-93159310D01*
X132269501Y-93169539D01*
X132271033Y-93199774D01*
X132268634Y-93217998D01*
X132268634Y-93218000D01*
X132271031Y-93236209D01*
X132271033Y-93236222D01*
X132267488Y-93258946D01*
X131890117Y-93258946D01*
X131888968Y-93236213D01*
X131891366Y-93218000D01*
X131888967Y-93199782D01*
X131892510Y-93177057D01*
X131884270Y-93146303D01*
X131884268Y-93146294D01*
X131883532Y-93143548D01*
X131883532Y-93143546D01*
X131880711Y-93133017D01*
X131879133Y-93125086D01*
X131871829Y-93069602D01*
X131864798Y-93052629D01*
X131862339Y-93029763D01*
X131853152Y-93013850D01*
X131840764Y-92983942D01*
X131827506Y-92934462D01*
X131829169Y-92864612D01*
X131868332Y-92806750D01*
X131896845Y-92789090D01*
X131941032Y-92769416D01*
X132024730Y-92732151D01*
X132177871Y-92620888D01*
X132304533Y-92480216D01*
X132399179Y-92316284D01*
X132457674Y-92136256D01*
X132477460Y-91948000D01*
X132457674Y-91759744D01*
X132399179Y-91579716D01*
X132304533Y-91415784D01*
X132177871Y-91275112D01*
X132177870Y-91275111D01*
X132024734Y-91163851D01*
X132024729Y-91163848D01*
X131851807Y-91086857D01*
X131851802Y-91086855D01*
X131706000Y-91055865D01*
X131666646Y-91047500D01*
X131477354Y-91047500D01*
X131444897Y-91054398D01*
X131292197Y-91086855D01*
X131292192Y-91086857D01*
X131119270Y-91163848D01*
X131119265Y-91163851D01*
X130966130Y-91275110D01*
X130966126Y-91275114D01*
X130960400Y-91281474D01*
X130900913Y-91318121D01*
X130868252Y-91322500D01*
X129596452Y-91322500D01*
X129529413Y-91302815D01*
X129508771Y-91286181D01*
X129185819Y-90963228D01*
X129152334Y-90901905D01*
X129149500Y-90875547D01*
X129149500Y-89956946D01*
X130870488Y-89956946D01*
X130875242Y-89974687D01*
X130879467Y-90006778D01*
X130879467Y-90017370D01*
X130888772Y-90046177D01*
X130891171Y-90064398D01*
X130891172Y-90064401D01*
X130898202Y-90081373D01*
X130900660Y-90104243D01*
X130909846Y-90120152D01*
X130922235Y-90150060D01*
X130924976Y-90160291D01*
X130941417Y-90185706D01*
X130948448Y-90202681D01*
X130959634Y-90217259D01*
X130967925Y-90238708D01*
X130980919Y-90251702D01*
X131000624Y-90277381D01*
X131005923Y-90286558D01*
X131028385Y-90306856D01*
X131034246Y-90314495D01*
X131039569Y-90321431D01*
X131054135Y-90332608D01*
X131054142Y-90332613D01*
X131067703Y-90351185D01*
X131083617Y-90360374D01*
X131109297Y-90380080D01*
X131116794Y-90387577D01*
X131143741Y-90401366D01*
X131143748Y-90401371D01*
X131158317Y-90412550D01*
X131175288Y-90419579D01*
X131193194Y-90434008D01*
X131210934Y-90438762D01*
X131240842Y-90451151D01*
X131250020Y-90456450D01*
X131279627Y-90462798D01*
X131279632Y-90462800D01*
X131296602Y-90469829D01*
X131314816Y-90472226D01*
X131335852Y-90481532D01*
X131354222Y-90481532D01*
X131386316Y-90485757D01*
X131396545Y-90488498D01*
X131426779Y-90486967D01*
X131445000Y-90489366D01*
X131463215Y-90486967D01*
X131485942Y-90490511D01*
X131503685Y-90485757D01*
X131535779Y-90481532D01*
X131546370Y-90481532D01*
X131575182Y-90472227D01*
X131593398Y-90469829D01*
X131610368Y-90462799D01*
X131633240Y-90460340D01*
X131649152Y-90451153D01*
X131679062Y-90438763D01*
X131689294Y-90436021D01*
X131714706Y-90419581D01*
X131731683Y-90412550D01*
X131746253Y-90401369D01*
X131767706Y-90393074D01*
X131780702Y-90380079D01*
X131806384Y-90360372D01*
X131815564Y-90355071D01*
X131835861Y-90332610D01*
X131850431Y-90321431D01*
X131861609Y-90306862D01*
X131880183Y-90293299D01*
X131889372Y-90277384D01*
X131909079Y-90251702D01*
X131916577Y-90244204D01*
X131930368Y-90217255D01*
X131941550Y-90202683D01*
X131948580Y-90185709D01*
X131963009Y-90167803D01*
X131967763Y-90150062D01*
X131980153Y-90120152D01*
X131985449Y-90110979D01*
X131991798Y-90081370D01*
X131998829Y-90064398D01*
X132006135Y-90008898D01*
X132007709Y-90000987D01*
X132010532Y-89990454D01*
X132010931Y-89988968D01*
X132011266Y-89987714D01*
X132011270Y-89987698D01*
X132017497Y-89964457D01*
X132017117Y-89956944D01*
X132334527Y-89956944D01*
X132339281Y-89974683D01*
X132343506Y-90006777D01*
X132343506Y-90017364D01*
X132352811Y-90046175D01*
X132355210Y-90064396D01*
X132355211Y-90064401D01*
X132362241Y-90081373D01*
X132364699Y-90104243D01*
X132373885Y-90120152D01*
X132386274Y-90150060D01*
X132389015Y-90160291D01*
X132405456Y-90185706D01*
X132412487Y-90202681D01*
X132423673Y-90217259D01*
X132431964Y-90238708D01*
X132444958Y-90251702D01*
X132464663Y-90277381D01*
X132469962Y-90286558D01*
X132492424Y-90306856D01*
X132498285Y-90314495D01*
X132503608Y-90321431D01*
X132518174Y-90332608D01*
X132518181Y-90332613D01*
X132531742Y-90351185D01*
X132547656Y-90360374D01*
X132573336Y-90380080D01*
X132580833Y-90387577D01*
X132607780Y-90401366D01*
X132607787Y-90401371D01*
X132622356Y-90412550D01*
X132639327Y-90419579D01*
X132657233Y-90434008D01*
X132674973Y-90438762D01*
X132704881Y-90451151D01*
X132714059Y-90456450D01*
X132743666Y-90462798D01*
X132743671Y-90462800D01*
X132760641Y-90469829D01*
X132778855Y-90472226D01*
X132799891Y-90481532D01*
X132818261Y-90481532D01*
X132850355Y-90485757D01*
X132860584Y-90488498D01*
X132890818Y-90486967D01*
X132909039Y-90489366D01*
X132927254Y-90486967D01*
X132949981Y-90490511D01*
X132967724Y-90485757D01*
X132999818Y-90481532D01*
X133010409Y-90481532D01*
X133039221Y-90472227D01*
X133057437Y-90469829D01*
X133074407Y-90462799D01*
X133097279Y-90460340D01*
X133113191Y-90451153D01*
X133143101Y-90438763D01*
X133153333Y-90436021D01*
X133178745Y-90419581D01*
X133195722Y-90412550D01*
X133210292Y-90401369D01*
X133231745Y-90393074D01*
X133244741Y-90380079D01*
X133270423Y-90360372D01*
X133279603Y-90355071D01*
X133299900Y-90332610D01*
X133314470Y-90321431D01*
X133325648Y-90306862D01*
X133344222Y-90293299D01*
X133353411Y-90277384D01*
X133373118Y-90251702D01*
X133380616Y-90244204D01*
X133394407Y-90217255D01*
X133405589Y-90202683D01*
X133412619Y-90185709D01*
X133427048Y-90167803D01*
X133431802Y-90150062D01*
X133444192Y-90120152D01*
X133449488Y-90110979D01*
X133455837Y-90081370D01*
X133462868Y-90064398D01*
X133470174Y-90008898D01*
X133471748Y-90000987D01*
X133474571Y-89990454D01*
X133474970Y-89988968D01*
X133475305Y-89987714D01*
X133475309Y-89987698D01*
X133481536Y-89964457D01*
X133481156Y-89956944D01*
X133858527Y-89956944D01*
X133863281Y-89974683D01*
X133867506Y-90006777D01*
X133867506Y-90017364D01*
X133876811Y-90046175D01*
X133879210Y-90064396D01*
X133879211Y-90064401D01*
X133886241Y-90081373D01*
X133888699Y-90104243D01*
X133897885Y-90120152D01*
X133910274Y-90150060D01*
X133913015Y-90160291D01*
X133929456Y-90185706D01*
X133936487Y-90202681D01*
X133947673Y-90217259D01*
X133955964Y-90238708D01*
X133968958Y-90251702D01*
X133988663Y-90277381D01*
X133993962Y-90286558D01*
X134016424Y-90306856D01*
X134022285Y-90314495D01*
X134027608Y-90321431D01*
X134042174Y-90332608D01*
X134042181Y-90332613D01*
X134055742Y-90351185D01*
X134071656Y-90360374D01*
X134097336Y-90380080D01*
X134104833Y-90387577D01*
X134131780Y-90401366D01*
X134131787Y-90401371D01*
X134146356Y-90412550D01*
X134163327Y-90419579D01*
X134181233Y-90434008D01*
X134198973Y-90438762D01*
X134228881Y-90451151D01*
X134238059Y-90456450D01*
X134267666Y-90462798D01*
X134267671Y-90462800D01*
X134284641Y-90469829D01*
X134302855Y-90472226D01*
X134323891Y-90481532D01*
X134342261Y-90481532D01*
X134374355Y-90485757D01*
X134384584Y-90488498D01*
X134414818Y-90486967D01*
X134433039Y-90489366D01*
X134451254Y-90486967D01*
X134473981Y-90490511D01*
X134491724Y-90485757D01*
X134523818Y-90481532D01*
X134534409Y-90481532D01*
X134563221Y-90472227D01*
X134581437Y-90469829D01*
X134598407Y-90462799D01*
X134621279Y-90460340D01*
X134637191Y-90451153D01*
X134667101Y-90438763D01*
X134677333Y-90436021D01*
X134702745Y-90419581D01*
X134719722Y-90412550D01*
X134734292Y-90401369D01*
X134755745Y-90393074D01*
X134768741Y-90380079D01*
X134794423Y-90360372D01*
X134803603Y-90355071D01*
X134823900Y-90332610D01*
X134838470Y-90321431D01*
X134849648Y-90306862D01*
X134868222Y-90293299D01*
X134877411Y-90277384D01*
X134897118Y-90251702D01*
X134904616Y-90244204D01*
X134918407Y-90217255D01*
X134929589Y-90202683D01*
X134936619Y-90185709D01*
X134951048Y-90167803D01*
X134955802Y-90150062D01*
X134968192Y-90120152D01*
X134973488Y-90110979D01*
X134979837Y-90081370D01*
X134986868Y-90064398D01*
X134994174Y-90008898D01*
X134995748Y-90000987D01*
X134998571Y-89990454D01*
X134998970Y-89988968D01*
X134999305Y-89987714D01*
X134999309Y-89987698D01*
X135005536Y-89964457D01*
X135005156Y-89956943D01*
X135442488Y-89956943D01*
X135447243Y-89974685D01*
X135451468Y-90006780D01*
X135451468Y-90017373D01*
X135460772Y-90046177D01*
X135463171Y-90064398D01*
X135463172Y-90064401D01*
X135470202Y-90081373D01*
X135472660Y-90104243D01*
X135481846Y-90120152D01*
X135494235Y-90150060D01*
X135496976Y-90160291D01*
X135513417Y-90185706D01*
X135520448Y-90202681D01*
X135531634Y-90217259D01*
X135539925Y-90238708D01*
X135552919Y-90251702D01*
X135572624Y-90277381D01*
X135577923Y-90286558D01*
X135600385Y-90306856D01*
X135606246Y-90314495D01*
X135611569Y-90321431D01*
X135626135Y-90332608D01*
X135626142Y-90332613D01*
X135639703Y-90351185D01*
X135655617Y-90360374D01*
X135681297Y-90380080D01*
X135688794Y-90387577D01*
X135715741Y-90401366D01*
X135715748Y-90401371D01*
X135730317Y-90412550D01*
X135747288Y-90419579D01*
X135765194Y-90434008D01*
X135782934Y-90438762D01*
X135812842Y-90451151D01*
X135822020Y-90456450D01*
X135851627Y-90462798D01*
X135851632Y-90462800D01*
X135868602Y-90469829D01*
X135886816Y-90472226D01*
X135907852Y-90481532D01*
X135926222Y-90481532D01*
X135958316Y-90485757D01*
X135968545Y-90488498D01*
X135998779Y-90486967D01*
X136017000Y-90489366D01*
X136035215Y-90486967D01*
X136057942Y-90490511D01*
X136075685Y-90485757D01*
X136107779Y-90481532D01*
X136118370Y-90481532D01*
X136147182Y-90472227D01*
X136165398Y-90469829D01*
X136182368Y-90462799D01*
X136205240Y-90460340D01*
X136221152Y-90451153D01*
X136251062Y-90438763D01*
X136261294Y-90436021D01*
X136286706Y-90419581D01*
X136303683Y-90412550D01*
X136318253Y-90401369D01*
X136339706Y-90393074D01*
X136352702Y-90380079D01*
X136378384Y-90360372D01*
X136387564Y-90355071D01*
X136407861Y-90332610D01*
X136422431Y-90321431D01*
X136433609Y-90306862D01*
X136452183Y-90293299D01*
X136461372Y-90277384D01*
X136481079Y-90251702D01*
X136488577Y-90244204D01*
X136502368Y-90217255D01*
X136513550Y-90202683D01*
X136520580Y-90185709D01*
X136535009Y-90167803D01*
X136539763Y-90150062D01*
X136552153Y-90120152D01*
X136557449Y-90110979D01*
X136563798Y-90081370D01*
X136570829Y-90064398D01*
X136578135Y-90008898D01*
X136579709Y-90000987D01*
X136582532Y-89990454D01*
X136582931Y-89988968D01*
X136583266Y-89987714D01*
X136583270Y-89987698D01*
X136589497Y-89964457D01*
X136587968Y-89934213D01*
X136590366Y-89916000D01*
X136587967Y-89897782D01*
X136591510Y-89875057D01*
X136583270Y-89844303D01*
X136583268Y-89844294D01*
X136582532Y-89841548D01*
X136582532Y-89841546D01*
X136579711Y-89831017D01*
X136578133Y-89823086D01*
X136570829Y-89767602D01*
X136563798Y-89750629D01*
X136561339Y-89727763D01*
X136552152Y-89711850D01*
X136539764Y-89681942D01*
X136537022Y-89671710D01*
X136520580Y-89646290D01*
X136513550Y-89629317D01*
X136513547Y-89629313D01*
X136502366Y-89614741D01*
X136494073Y-89593290D01*
X136481081Y-89580298D01*
X136461375Y-89554617D01*
X136456081Y-89545447D01*
X136433616Y-89525146D01*
X136422431Y-89510569D01*
X136422429Y-89510568D01*
X136422429Y-89510567D01*
X136407856Y-89499385D01*
X136394294Y-89480811D01*
X136378381Y-89471624D01*
X136352702Y-89451919D01*
X136345209Y-89444426D01*
X136318259Y-89430634D01*
X136303681Y-89419448D01*
X136286706Y-89412417D01*
X136268802Y-89397989D01*
X136251060Y-89393235D01*
X136221152Y-89380846D01*
X136211984Y-89375552D01*
X136182373Y-89369202D01*
X136165401Y-89362172D01*
X136165398Y-89362171D01*
X136147177Y-89359772D01*
X136126147Y-89350468D01*
X136107781Y-89350468D01*
X136075687Y-89346243D01*
X136065459Y-89343502D01*
X136035222Y-89345033D01*
X136017000Y-89342634D01*
X136016999Y-89342634D01*
X136016998Y-89342634D01*
X135998774Y-89345033D01*
X135976054Y-89341489D01*
X135958314Y-89346243D01*
X135926219Y-89350468D01*
X135915632Y-89350468D01*
X135886823Y-89359772D01*
X135868599Y-89362171D01*
X135851620Y-89369204D01*
X135828758Y-89371660D01*
X135812847Y-89380847D01*
X135782944Y-89393233D01*
X135772711Y-89395974D01*
X135747297Y-89412415D01*
X135730327Y-89419444D01*
X135730313Y-89419452D01*
X135715735Y-89430638D01*
X135694284Y-89438929D01*
X135681295Y-89451919D01*
X135655616Y-89471624D01*
X135646449Y-89476916D01*
X135626150Y-89499379D01*
X135611568Y-89510568D01*
X135600379Y-89525150D01*
X135581807Y-89538709D01*
X135572624Y-89554616D01*
X135552919Y-89580295D01*
X135545429Y-89587784D01*
X135531638Y-89614735D01*
X135520452Y-89629313D01*
X135520444Y-89629327D01*
X135513415Y-89646297D01*
X135498988Y-89664198D01*
X135494233Y-89681944D01*
X135481847Y-89711847D01*
X135476549Y-89721022D01*
X135470204Y-89750620D01*
X135463171Y-89767599D01*
X135460772Y-89785823D01*
X135451468Y-89806852D01*
X135451468Y-89825218D01*
X135447243Y-89857312D01*
X135444501Y-89867543D01*
X135446033Y-89897774D01*
X135443634Y-89915998D01*
X135443634Y-89916000D01*
X135446031Y-89934209D01*
X135446033Y-89934222D01*
X135442488Y-89956943D01*
X135005156Y-89956943D01*
X135004007Y-89934213D01*
X135006405Y-89916000D01*
X135004006Y-89897782D01*
X135007549Y-89875057D01*
X134999309Y-89844303D01*
X134999307Y-89844294D01*
X134998571Y-89841548D01*
X134998571Y-89841546D01*
X134995750Y-89831017D01*
X134994172Y-89823086D01*
X134986868Y-89767602D01*
X134979837Y-89750629D01*
X134977378Y-89727763D01*
X134968191Y-89711850D01*
X134955803Y-89681942D01*
X134953061Y-89671710D01*
X134936619Y-89646290D01*
X134929589Y-89629317D01*
X134929586Y-89629313D01*
X134918405Y-89614741D01*
X134910112Y-89593290D01*
X134897120Y-89580298D01*
X134877414Y-89554617D01*
X134872120Y-89545447D01*
X134849655Y-89525146D01*
X134838470Y-89510569D01*
X134838468Y-89510568D01*
X134838468Y-89510567D01*
X134823895Y-89499385D01*
X134810333Y-89480811D01*
X134794420Y-89471624D01*
X134768741Y-89451919D01*
X134761248Y-89444426D01*
X134734298Y-89430634D01*
X134719720Y-89419448D01*
X134702745Y-89412417D01*
X134684841Y-89397989D01*
X134667099Y-89393235D01*
X134637191Y-89380846D01*
X134628023Y-89375552D01*
X134598412Y-89369202D01*
X134581440Y-89362172D01*
X134581437Y-89362171D01*
X134563216Y-89359772D01*
X134542186Y-89350468D01*
X134523820Y-89350468D01*
X134491726Y-89346243D01*
X134481498Y-89343502D01*
X134451261Y-89345033D01*
X134433039Y-89342634D01*
X134433038Y-89342634D01*
X134433037Y-89342634D01*
X134414813Y-89345033D01*
X134392093Y-89341489D01*
X134374353Y-89346243D01*
X134342258Y-89350468D01*
X134331671Y-89350468D01*
X134302862Y-89359772D01*
X134284638Y-89362171D01*
X134267659Y-89369204D01*
X134244797Y-89371660D01*
X134228886Y-89380847D01*
X134198983Y-89393233D01*
X134188750Y-89395974D01*
X134163336Y-89412415D01*
X134146366Y-89419444D01*
X134146352Y-89419452D01*
X134131774Y-89430638D01*
X134110323Y-89438929D01*
X134097334Y-89451919D01*
X134071655Y-89471624D01*
X134062488Y-89476916D01*
X134042189Y-89499379D01*
X134027607Y-89510568D01*
X134016418Y-89525150D01*
X133997846Y-89538709D01*
X133988663Y-89554616D01*
X133968958Y-89580295D01*
X133961468Y-89587784D01*
X133947677Y-89614735D01*
X133936491Y-89629313D01*
X133936483Y-89629327D01*
X133929454Y-89646297D01*
X133915027Y-89664198D01*
X133910272Y-89681944D01*
X133897886Y-89711847D01*
X133892588Y-89721022D01*
X133886243Y-89750620D01*
X133879210Y-89767600D01*
X133876811Y-89785824D01*
X133867506Y-89806856D01*
X133867506Y-89825222D01*
X133863281Y-89857316D01*
X133860540Y-89867544D01*
X133862072Y-89897774D01*
X133859673Y-89915998D01*
X133859673Y-89916000D01*
X133862070Y-89934209D01*
X133862072Y-89934222D01*
X133858527Y-89956944D01*
X133481156Y-89956944D01*
X133480007Y-89934213D01*
X133482405Y-89916000D01*
X133480006Y-89897782D01*
X133483549Y-89875057D01*
X133475309Y-89844303D01*
X133475307Y-89844294D01*
X133474571Y-89841548D01*
X133474571Y-89841546D01*
X133471750Y-89831017D01*
X133470172Y-89823086D01*
X133462868Y-89767602D01*
X133455837Y-89750629D01*
X133453378Y-89727763D01*
X133444191Y-89711850D01*
X133431803Y-89681942D01*
X133429061Y-89671710D01*
X133412619Y-89646290D01*
X133405589Y-89629317D01*
X133405586Y-89629313D01*
X133394405Y-89614741D01*
X133386112Y-89593290D01*
X133373120Y-89580298D01*
X133353414Y-89554617D01*
X133348120Y-89545447D01*
X133325655Y-89525146D01*
X133314470Y-89510569D01*
X133314468Y-89510568D01*
X133314468Y-89510567D01*
X133299895Y-89499385D01*
X133286333Y-89480811D01*
X133270420Y-89471624D01*
X133244741Y-89451919D01*
X133237248Y-89444426D01*
X133210298Y-89430634D01*
X133195720Y-89419448D01*
X133178745Y-89412417D01*
X133160841Y-89397989D01*
X133143099Y-89393235D01*
X133113191Y-89380846D01*
X133104023Y-89375552D01*
X133074412Y-89369202D01*
X133057440Y-89362172D01*
X133057437Y-89362171D01*
X133039216Y-89359772D01*
X133018186Y-89350468D01*
X132999820Y-89350468D01*
X132967726Y-89346243D01*
X132957498Y-89343502D01*
X132927261Y-89345033D01*
X132909039Y-89342634D01*
X132909038Y-89342634D01*
X132909037Y-89342634D01*
X132890813Y-89345033D01*
X132868093Y-89341489D01*
X132850353Y-89346243D01*
X132818258Y-89350468D01*
X132807671Y-89350468D01*
X132778862Y-89359772D01*
X132760638Y-89362171D01*
X132743659Y-89369204D01*
X132720797Y-89371660D01*
X132704886Y-89380847D01*
X132674983Y-89393233D01*
X132664750Y-89395974D01*
X132639336Y-89412415D01*
X132622366Y-89419444D01*
X132622352Y-89419452D01*
X132607774Y-89430638D01*
X132586323Y-89438929D01*
X132573334Y-89451919D01*
X132547655Y-89471624D01*
X132538488Y-89476916D01*
X132518189Y-89499379D01*
X132503607Y-89510568D01*
X132492418Y-89525150D01*
X132473846Y-89538709D01*
X132464663Y-89554616D01*
X132444958Y-89580295D01*
X132437468Y-89587784D01*
X132423677Y-89614735D01*
X132412491Y-89629313D01*
X132412483Y-89629327D01*
X132405454Y-89646297D01*
X132391027Y-89664198D01*
X132386272Y-89681944D01*
X132373886Y-89711847D01*
X132368588Y-89721022D01*
X132362243Y-89750620D01*
X132355210Y-89767600D01*
X132352811Y-89785824D01*
X132343506Y-89806856D01*
X132343506Y-89825222D01*
X132339281Y-89857316D01*
X132336540Y-89867544D01*
X132338072Y-89897774D01*
X132335673Y-89915998D01*
X132335673Y-89916000D01*
X132338070Y-89934209D01*
X132338072Y-89934222D01*
X132334527Y-89956944D01*
X132017117Y-89956944D01*
X132015968Y-89934213D01*
X132018366Y-89916000D01*
X132015967Y-89897782D01*
X132019510Y-89875057D01*
X132011270Y-89844303D01*
X132011268Y-89844294D01*
X132010532Y-89841548D01*
X132010532Y-89841546D01*
X132007711Y-89831017D01*
X132006133Y-89823086D01*
X131998829Y-89767602D01*
X131991798Y-89750629D01*
X131989339Y-89727763D01*
X131980152Y-89711850D01*
X131967764Y-89681942D01*
X131965022Y-89671710D01*
X131948580Y-89646290D01*
X131941550Y-89629317D01*
X131941547Y-89629313D01*
X131930366Y-89614741D01*
X131922073Y-89593290D01*
X131909081Y-89580298D01*
X131889375Y-89554617D01*
X131884081Y-89545447D01*
X131861616Y-89525146D01*
X131850431Y-89510569D01*
X131850429Y-89510568D01*
X131850429Y-89510567D01*
X131835856Y-89499385D01*
X131822294Y-89480811D01*
X131806381Y-89471624D01*
X131780702Y-89451919D01*
X131773209Y-89444426D01*
X131746259Y-89430634D01*
X131731681Y-89419448D01*
X131714706Y-89412417D01*
X131696802Y-89397989D01*
X131679060Y-89393235D01*
X131649152Y-89380846D01*
X131639984Y-89375552D01*
X131610373Y-89369202D01*
X131593401Y-89362172D01*
X131593398Y-89362171D01*
X131575177Y-89359772D01*
X131554147Y-89350468D01*
X131535781Y-89350468D01*
X131503687Y-89346243D01*
X131493459Y-89343502D01*
X131463222Y-89345033D01*
X131445000Y-89342634D01*
X131444999Y-89342634D01*
X131444998Y-89342634D01*
X131426774Y-89345033D01*
X131404054Y-89341489D01*
X131386314Y-89346243D01*
X131354219Y-89350468D01*
X131343632Y-89350468D01*
X131314823Y-89359772D01*
X131296599Y-89362171D01*
X131279620Y-89369204D01*
X131256758Y-89371660D01*
X131240847Y-89380847D01*
X131210944Y-89393233D01*
X131200711Y-89395974D01*
X131175297Y-89412415D01*
X131158327Y-89419444D01*
X131158313Y-89419452D01*
X131143735Y-89430638D01*
X131122284Y-89438929D01*
X131109295Y-89451919D01*
X131083616Y-89471624D01*
X131074449Y-89476916D01*
X131054150Y-89499379D01*
X131039568Y-89510568D01*
X131028379Y-89525150D01*
X131009807Y-89538709D01*
X131000624Y-89554616D01*
X130980919Y-89580295D01*
X130973429Y-89587784D01*
X130959638Y-89614735D01*
X130948452Y-89629313D01*
X130948444Y-89629327D01*
X130941415Y-89646297D01*
X130926988Y-89664198D01*
X130922233Y-89681944D01*
X130909847Y-89711847D01*
X130904549Y-89721022D01*
X130898204Y-89750620D01*
X130891171Y-89767599D01*
X130888772Y-89785823D01*
X130879467Y-89806853D01*
X130879467Y-89825220D01*
X130875242Y-89857310D01*
X130872501Y-89867539D01*
X130874033Y-89897774D01*
X130871634Y-89915998D01*
X130871634Y-89916000D01*
X130874031Y-89934209D01*
X130874033Y-89934222D01*
X130870488Y-89956946D01*
X129149500Y-89956946D01*
X129149500Y-88887500D01*
X129169185Y-88820461D01*
X129221989Y-88774706D01*
X129273500Y-88763500D01*
X129344252Y-88763500D01*
X129411291Y-88783185D01*
X129436400Y-88804526D01*
X129442126Y-88810885D01*
X129442130Y-88810889D01*
X129595265Y-88922148D01*
X129595270Y-88922151D01*
X129768192Y-88999142D01*
X129768197Y-88999144D01*
X129953354Y-89038500D01*
X129953355Y-89038500D01*
X130142644Y-89038500D01*
X130142646Y-89038500D01*
X130327803Y-88999144D01*
X130500730Y-88922151D01*
X130653871Y-88810888D01*
X130780533Y-88670216D01*
X130875179Y-88506284D01*
X130933674Y-88326256D01*
X130953460Y-88138000D01*
X130933674Y-87949744D01*
X130875179Y-87769716D01*
X130780533Y-87605784D01*
X130653871Y-87465112D01*
X130653870Y-87465111D01*
X130500734Y-87353851D01*
X130500729Y-87353848D01*
X130327807Y-87276857D01*
X130327802Y-87276855D01*
X130182000Y-87245865D01*
X130142646Y-87237500D01*
X129953354Y-87237500D01*
X129920897Y-87244398D01*
X129768197Y-87276855D01*
X129768192Y-87276857D01*
X129595270Y-87353848D01*
X129595265Y-87353851D01*
X129442130Y-87465110D01*
X129442126Y-87465114D01*
X129436400Y-87471474D01*
X129376913Y-87508121D01*
X129344252Y-87512500D01*
X128834453Y-87512500D01*
X128767414Y-87492815D01*
X128746772Y-87476181D01*
X127622803Y-86352212D01*
X127612980Y-86339950D01*
X127612759Y-86340134D01*
X127607786Y-86334123D01*
X127607785Y-86334122D01*
X127557364Y-86286773D01*
X127542926Y-86272335D01*
X127536475Y-86265883D01*
X127530986Y-86261625D01*
X127526561Y-86257847D01*
X127492582Y-86225938D01*
X127492580Y-86225936D01*
X127492577Y-86225935D01*
X127475029Y-86216288D01*
X127458763Y-86205604D01*
X127442933Y-86193325D01*
X127400168Y-86174818D01*
X127394922Y-86172248D01*
X127354093Y-86149803D01*
X127354092Y-86149802D01*
X127334693Y-86144822D01*
X127316281Y-86138518D01*
X127297898Y-86130562D01*
X127297892Y-86130560D01*
X127251874Y-86123272D01*
X127246152Y-86122087D01*
X127201021Y-86110500D01*
X127201019Y-86110500D01*
X127180984Y-86110500D01*
X127161586Y-86108973D01*
X127154162Y-86107797D01*
X127141805Y-86105840D01*
X127141804Y-86105840D01*
X127095416Y-86110225D01*
X127089578Y-86110500D01*
X126319227Y-86110500D01*
X126252188Y-86090815D01*
X126217652Y-86057623D01*
X126082496Y-85864600D01*
X126082496Y-85864599D01*
X125960567Y-85742671D01*
X125927084Y-85681351D01*
X125932068Y-85611659D01*
X125973939Y-85555725D01*
X126004915Y-85538810D01*
X126136331Y-85489796D01*
X126251546Y-85403546D01*
X126337796Y-85288331D01*
X126388091Y-85153483D01*
X126394500Y-85093873D01*
X126394499Y-83298128D01*
X126388091Y-83238517D01*
X126337796Y-83103669D01*
X126337795Y-83103668D01*
X126337793Y-83103664D01*
X126251547Y-82988455D01*
X126251544Y-82988452D01*
X126136335Y-82902206D01*
X126136328Y-82902202D01*
X126001482Y-82851908D01*
X126001483Y-82851908D01*
X125941883Y-82845501D01*
X125941881Y-82845500D01*
X125941873Y-82845500D01*
X125941864Y-82845500D01*
X124146129Y-82845500D01*
X124146123Y-82845501D01*
X124086516Y-82851908D01*
X123951671Y-82902202D01*
X123951664Y-82902206D01*
X123836455Y-82988452D01*
X123836452Y-82988455D01*
X123750206Y-83103664D01*
X123750202Y-83103671D01*
X123699908Y-83238517D01*
X123693501Y-83298116D01*
X123693501Y-83298123D01*
X123693500Y-83298135D01*
X123693500Y-85093870D01*
X123693501Y-85093876D01*
X123699908Y-85153483D01*
X123750202Y-85288328D01*
X123750206Y-85288335D01*
X123836452Y-85403544D01*
X123836455Y-85403547D01*
X123951664Y-85489793D01*
X123951671Y-85489797D01*
X124083081Y-85538810D01*
X124139015Y-85580681D01*
X124163432Y-85646145D01*
X124148580Y-85714418D01*
X124127430Y-85742673D01*
X124005503Y-85864600D01*
X123869965Y-86058169D01*
X123869964Y-86058171D01*
X123770098Y-86272335D01*
X123770094Y-86272344D01*
X123708938Y-86500586D01*
X123708936Y-86500596D01*
X123688341Y-86735999D01*
X123688341Y-86736000D01*
X123708936Y-86971403D01*
X123708938Y-86971413D01*
X123770094Y-87199655D01*
X123770096Y-87199659D01*
X123770097Y-87199663D01*
X123841995Y-87353848D01*
X123869965Y-87413830D01*
X123869967Y-87413834D01*
X123978281Y-87568521D01*
X124005501Y-87607396D01*
X124005506Y-87607402D01*
X124172597Y-87774493D01*
X124172603Y-87774498D01*
X124358158Y-87904425D01*
X124401783Y-87959002D01*
X124408977Y-88028500D01*
X124377454Y-88090855D01*
X124358158Y-88107575D01*
X124172597Y-88237505D01*
X124005505Y-88404597D01*
X123869965Y-88598169D01*
X123869964Y-88598171D01*
X123770098Y-88812335D01*
X123770094Y-88812344D01*
X123708938Y-89040586D01*
X123708936Y-89040596D01*
X123688341Y-89275999D01*
X123688341Y-89276000D01*
X121666000Y-89276000D01*
X121666000Y-82166000D01*
X121685685Y-82098961D01*
X121738489Y-82053206D01*
X121790000Y-82042000D01*
X122428000Y-82042000D01*
X142368718Y-81915792D01*
X142435878Y-81935052D01*
G37*
%TD.AperFunction*%
%TD*%
M02*
