%TF.GenerationSoftware,KiCad,Pcbnew,7.0.6-7.0.6~ubuntu22.04.1*%
%TF.CreationDate,2023-08-07T17:02:43+02:00*%
%TF.ProjectId,SHT45,53485434-352e-46b6-9963-61645f706362,rev?*%
%TF.SameCoordinates,Original*%
%TF.FileFunction,Legend,Bot*%
%TF.FilePolarity,Positive*%
%FSLAX46Y46*%
G04 Gerber Fmt 4.6, Leading zero omitted, Abs format (unit mm)*
G04 Created by KiCad (PCBNEW 7.0.6-7.0.6~ubuntu22.04.1) date 2023-08-07 17:02:43*
%MOMM*%
%LPD*%
G01*
G04 APERTURE LIST*
%ADD10C,0.150000*%
G04 APERTURE END LIST*
D10*
X140958649Y-84772866D02*
X140725316Y-84772866D01*
X140625316Y-85139533D02*
X140958649Y-85139533D01*
X140958649Y-85139533D02*
X140958649Y-84439533D01*
X140958649Y-84439533D02*
X140625316Y-84439533D01*
X140025316Y-85106200D02*
X140091983Y-85139533D01*
X140091983Y-85139533D02*
X140225316Y-85139533D01*
X140225316Y-85139533D02*
X140291983Y-85106200D01*
X140291983Y-85106200D02*
X140325316Y-85072866D01*
X140325316Y-85072866D02*
X140358649Y-85006200D01*
X140358649Y-85006200D02*
X140358649Y-84806200D01*
X140358649Y-84806200D02*
X140325316Y-84739533D01*
X140325316Y-84739533D02*
X140291983Y-84706200D01*
X140291983Y-84706200D02*
X140225316Y-84672866D01*
X140225316Y-84672866D02*
X140091983Y-84672866D01*
X140091983Y-84672866D02*
X140025316Y-84706200D01*
X139625316Y-85139533D02*
X139691983Y-85106200D01*
X139691983Y-85106200D02*
X139725316Y-85072866D01*
X139725316Y-85072866D02*
X139758649Y-85006200D01*
X139758649Y-85006200D02*
X139758649Y-84806200D01*
X139758649Y-84806200D02*
X139725316Y-84739533D01*
X139725316Y-84739533D02*
X139691983Y-84706200D01*
X139691983Y-84706200D02*
X139625316Y-84672866D01*
X139625316Y-84672866D02*
X139525316Y-84672866D01*
X139525316Y-84672866D02*
X139458649Y-84706200D01*
X139458649Y-84706200D02*
X139425316Y-84739533D01*
X139425316Y-84739533D02*
X139391983Y-84806200D01*
X139391983Y-84806200D02*
X139391983Y-85006200D01*
X139391983Y-85006200D02*
X139425316Y-85072866D01*
X139425316Y-85072866D02*
X139458649Y-85106200D01*
X139458649Y-85106200D02*
X139525316Y-85139533D01*
X139525316Y-85139533D02*
X139625316Y-85139533D01*
X138525316Y-85139533D02*
X138558650Y-85139533D01*
X138558650Y-85139533D02*
X138625316Y-85106200D01*
X138625316Y-85106200D02*
X138725316Y-85006200D01*
X138725316Y-85006200D02*
X138891983Y-84806200D01*
X138891983Y-84806200D02*
X138958650Y-84706200D01*
X138958650Y-84706200D02*
X138991983Y-84606200D01*
X138991983Y-84606200D02*
X138991983Y-84539533D01*
X138991983Y-84539533D02*
X138958650Y-84472866D01*
X138958650Y-84472866D02*
X138891983Y-84439533D01*
X138891983Y-84439533D02*
X138858650Y-84439533D01*
X138858650Y-84439533D02*
X138791983Y-84472866D01*
X138791983Y-84472866D02*
X138758650Y-84539533D01*
X138758650Y-84539533D02*
X138758650Y-84572866D01*
X138758650Y-84572866D02*
X138791983Y-84639533D01*
X138791983Y-84639533D02*
X138825316Y-84672866D01*
X138825316Y-84672866D02*
X139025316Y-84806200D01*
X139025316Y-84806200D02*
X139058650Y-84839533D01*
X139058650Y-84839533D02*
X139091983Y-84906200D01*
X139091983Y-84906200D02*
X139091983Y-85006200D01*
X139091983Y-85006200D02*
X139058650Y-85072866D01*
X139058650Y-85072866D02*
X139025316Y-85106200D01*
X139025316Y-85106200D02*
X138958650Y-85139533D01*
X138958650Y-85139533D02*
X138858650Y-85139533D01*
X138858650Y-85139533D02*
X138791983Y-85106200D01*
X138791983Y-85106200D02*
X138758650Y-85072866D01*
X138758650Y-85072866D02*
X138658650Y-84939533D01*
X138658650Y-84939533D02*
X138625316Y-84839533D01*
X138625316Y-84839533D02*
X138625316Y-84772866D01*
X138258649Y-85106200D02*
X138158649Y-85139533D01*
X138158649Y-85139533D02*
X137991983Y-85139533D01*
X137991983Y-85139533D02*
X137925316Y-85106200D01*
X137925316Y-85106200D02*
X137891983Y-85072866D01*
X137891983Y-85072866D02*
X137858649Y-85006200D01*
X137858649Y-85006200D02*
X137858649Y-84939533D01*
X137858649Y-84939533D02*
X137891983Y-84872866D01*
X137891983Y-84872866D02*
X137925316Y-84839533D01*
X137925316Y-84839533D02*
X137991983Y-84806200D01*
X137991983Y-84806200D02*
X138125316Y-84772866D01*
X138125316Y-84772866D02*
X138191983Y-84739533D01*
X138191983Y-84739533D02*
X138225316Y-84706200D01*
X138225316Y-84706200D02*
X138258649Y-84639533D01*
X138258649Y-84639533D02*
X138258649Y-84572866D01*
X138258649Y-84572866D02*
X138225316Y-84506200D01*
X138225316Y-84506200D02*
X138191983Y-84472866D01*
X138191983Y-84472866D02*
X138125316Y-84439533D01*
X138125316Y-84439533D02*
X137958649Y-84439533D01*
X137958649Y-84439533D02*
X137858649Y-84472866D01*
X137458649Y-85139533D02*
X137525316Y-85106200D01*
X137525316Y-85106200D02*
X137558649Y-85072866D01*
X137558649Y-85072866D02*
X137591982Y-85006200D01*
X137591982Y-85006200D02*
X137591982Y-84806200D01*
X137591982Y-84806200D02*
X137558649Y-84739533D01*
X137558649Y-84739533D02*
X137525316Y-84706200D01*
X137525316Y-84706200D02*
X137458649Y-84672866D01*
X137458649Y-84672866D02*
X137358649Y-84672866D01*
X137358649Y-84672866D02*
X137291982Y-84706200D01*
X137291982Y-84706200D02*
X137258649Y-84739533D01*
X137258649Y-84739533D02*
X137225316Y-84806200D01*
X137225316Y-84806200D02*
X137225316Y-85006200D01*
X137225316Y-85006200D02*
X137258649Y-85072866D01*
X137258649Y-85072866D02*
X137291982Y-85106200D01*
X137291982Y-85106200D02*
X137358649Y-85139533D01*
X137358649Y-85139533D02*
X137458649Y-85139533D01*
X136825316Y-85139533D02*
X136891983Y-85106200D01*
X136891983Y-85106200D02*
X136925316Y-85039533D01*
X136925316Y-85039533D02*
X136925316Y-84439533D01*
X136591982Y-85106200D02*
X136525316Y-85139533D01*
X136525316Y-85139533D02*
X136391982Y-85139533D01*
X136391982Y-85139533D02*
X136325316Y-85106200D01*
X136325316Y-85106200D02*
X136291982Y-85039533D01*
X136291982Y-85039533D02*
X136291982Y-85006200D01*
X136291982Y-85006200D02*
X136325316Y-84939533D01*
X136325316Y-84939533D02*
X136391982Y-84906200D01*
X136391982Y-84906200D02*
X136491982Y-84906200D01*
X136491982Y-84906200D02*
X136558649Y-84872866D01*
X136558649Y-84872866D02*
X136591982Y-84806200D01*
X136591982Y-84806200D02*
X136591982Y-84772866D01*
X136591982Y-84772866D02*
X136558649Y-84706200D01*
X136558649Y-84706200D02*
X136491982Y-84672866D01*
X136491982Y-84672866D02*
X136391982Y-84672866D01*
X136391982Y-84672866D02*
X136325316Y-84706200D01*
X135558649Y-84439533D02*
X135158649Y-84439533D01*
X135358649Y-85139533D02*
X135358649Y-84439533D01*
X134658649Y-85106200D02*
X134725316Y-85139533D01*
X134725316Y-85139533D02*
X134858649Y-85139533D01*
X134858649Y-85139533D02*
X134925316Y-85106200D01*
X134925316Y-85106200D02*
X134958649Y-85039533D01*
X134958649Y-85039533D02*
X134958649Y-84772866D01*
X134958649Y-84772866D02*
X134925316Y-84706200D01*
X134925316Y-84706200D02*
X134858649Y-84672866D01*
X134858649Y-84672866D02*
X134725316Y-84672866D01*
X134725316Y-84672866D02*
X134658649Y-84706200D01*
X134658649Y-84706200D02*
X134625316Y-84772866D01*
X134625316Y-84772866D02*
X134625316Y-84839533D01*
X134625316Y-84839533D02*
X134958649Y-84906200D01*
X134325316Y-85139533D02*
X134325316Y-84672866D01*
X134325316Y-84739533D02*
X134291983Y-84706200D01*
X134291983Y-84706200D02*
X134225316Y-84672866D01*
X134225316Y-84672866D02*
X134125316Y-84672866D01*
X134125316Y-84672866D02*
X134058649Y-84706200D01*
X134058649Y-84706200D02*
X134025316Y-84772866D01*
X134025316Y-84772866D02*
X134025316Y-85139533D01*
X134025316Y-84772866D02*
X133991983Y-84706200D01*
X133991983Y-84706200D02*
X133925316Y-84672866D01*
X133925316Y-84672866D02*
X133825316Y-84672866D01*
X133825316Y-84672866D02*
X133758649Y-84706200D01*
X133758649Y-84706200D02*
X133725316Y-84772866D01*
X133725316Y-84772866D02*
X133725316Y-85139533D01*
X133391983Y-84672866D02*
X133391983Y-85372866D01*
X133391983Y-84706200D02*
X133325316Y-84672866D01*
X133325316Y-84672866D02*
X133191983Y-84672866D01*
X133191983Y-84672866D02*
X133125316Y-84706200D01*
X133125316Y-84706200D02*
X133091983Y-84739533D01*
X133091983Y-84739533D02*
X133058650Y-84806200D01*
X133058650Y-84806200D02*
X133058650Y-85006200D01*
X133058650Y-85006200D02*
X133091983Y-85072866D01*
X133091983Y-85072866D02*
X133125316Y-85106200D01*
X133125316Y-85106200D02*
X133191983Y-85139533D01*
X133191983Y-85139533D02*
X133325316Y-85139533D01*
X133325316Y-85139533D02*
X133391983Y-85106200D01*
X132491983Y-85106200D02*
X132558650Y-85139533D01*
X132558650Y-85139533D02*
X132691983Y-85139533D01*
X132691983Y-85139533D02*
X132758650Y-85106200D01*
X132758650Y-85106200D02*
X132791983Y-85039533D01*
X132791983Y-85039533D02*
X132791983Y-84772866D01*
X132791983Y-84772866D02*
X132758650Y-84706200D01*
X132758650Y-84706200D02*
X132691983Y-84672866D01*
X132691983Y-84672866D02*
X132558650Y-84672866D01*
X132558650Y-84672866D02*
X132491983Y-84706200D01*
X132491983Y-84706200D02*
X132458650Y-84772866D01*
X132458650Y-84772866D02*
X132458650Y-84839533D01*
X132458650Y-84839533D02*
X132791983Y-84906200D01*
X132158650Y-85139533D02*
X132158650Y-84672866D01*
X132158650Y-84806200D02*
X132125317Y-84739533D01*
X132125317Y-84739533D02*
X132091983Y-84706200D01*
X132091983Y-84706200D02*
X132025317Y-84672866D01*
X132025317Y-84672866D02*
X131958650Y-84672866D01*
X131425317Y-85139533D02*
X131425317Y-84772866D01*
X131425317Y-84772866D02*
X131458650Y-84706200D01*
X131458650Y-84706200D02*
X131525317Y-84672866D01*
X131525317Y-84672866D02*
X131658650Y-84672866D01*
X131658650Y-84672866D02*
X131725317Y-84706200D01*
X131425317Y-85106200D02*
X131491984Y-85139533D01*
X131491984Y-85139533D02*
X131658650Y-85139533D01*
X131658650Y-85139533D02*
X131725317Y-85106200D01*
X131725317Y-85106200D02*
X131758650Y-85039533D01*
X131758650Y-85039533D02*
X131758650Y-84972866D01*
X131758650Y-84972866D02*
X131725317Y-84906200D01*
X131725317Y-84906200D02*
X131658650Y-84872866D01*
X131658650Y-84872866D02*
X131491984Y-84872866D01*
X131491984Y-84872866D02*
X131425317Y-84839533D01*
X131191984Y-84672866D02*
X130925317Y-84672866D01*
X131091984Y-84439533D02*
X131091984Y-85039533D01*
X131091984Y-85039533D02*
X131058651Y-85106200D01*
X131058651Y-85106200D02*
X130991984Y-85139533D01*
X130991984Y-85139533D02*
X130925317Y-85139533D01*
X130391984Y-84672866D02*
X130391984Y-85139533D01*
X130691984Y-84672866D02*
X130691984Y-85039533D01*
X130691984Y-85039533D02*
X130658651Y-85106200D01*
X130658651Y-85106200D02*
X130591984Y-85139533D01*
X130591984Y-85139533D02*
X130491984Y-85139533D01*
X130491984Y-85139533D02*
X130425317Y-85106200D01*
X130425317Y-85106200D02*
X130391984Y-85072866D01*
X130058651Y-85139533D02*
X130058651Y-84672866D01*
X130058651Y-84806200D02*
X130025318Y-84739533D01*
X130025318Y-84739533D02*
X129991984Y-84706200D01*
X129991984Y-84706200D02*
X129925318Y-84672866D01*
X129925318Y-84672866D02*
X129858651Y-84672866D01*
X129358651Y-85106200D02*
X129425318Y-85139533D01*
X129425318Y-85139533D02*
X129558651Y-85139533D01*
X129558651Y-85139533D02*
X129625318Y-85106200D01*
X129625318Y-85106200D02*
X129658651Y-85039533D01*
X129658651Y-85039533D02*
X129658651Y-84772866D01*
X129658651Y-84772866D02*
X129625318Y-84706200D01*
X129625318Y-84706200D02*
X129558651Y-84672866D01*
X129558651Y-84672866D02*
X129425318Y-84672866D01*
X129425318Y-84672866D02*
X129358651Y-84706200D01*
X129358651Y-84706200D02*
X129325318Y-84772866D01*
X129325318Y-84772866D02*
X129325318Y-84839533D01*
X129325318Y-84839533D02*
X129658651Y-84906200D01*
X128191985Y-85139533D02*
X128191985Y-84772866D01*
X128191985Y-84772866D02*
X128225318Y-84706200D01*
X128225318Y-84706200D02*
X128291985Y-84672866D01*
X128291985Y-84672866D02*
X128425318Y-84672866D01*
X128425318Y-84672866D02*
X128491985Y-84706200D01*
X128191985Y-85106200D02*
X128258652Y-85139533D01*
X128258652Y-85139533D02*
X128425318Y-85139533D01*
X128425318Y-85139533D02*
X128491985Y-85106200D01*
X128491985Y-85106200D02*
X128525318Y-85039533D01*
X128525318Y-85039533D02*
X128525318Y-84972866D01*
X128525318Y-84972866D02*
X128491985Y-84906200D01*
X128491985Y-84906200D02*
X128425318Y-84872866D01*
X128425318Y-84872866D02*
X128258652Y-84872866D01*
X128258652Y-84872866D02*
X128191985Y-84839533D01*
X127858652Y-84672866D02*
X127858652Y-85139533D01*
X127858652Y-84739533D02*
X127825319Y-84706200D01*
X127825319Y-84706200D02*
X127758652Y-84672866D01*
X127758652Y-84672866D02*
X127658652Y-84672866D01*
X127658652Y-84672866D02*
X127591985Y-84706200D01*
X127591985Y-84706200D02*
X127558652Y-84772866D01*
X127558652Y-84772866D02*
X127558652Y-85139533D01*
X126925319Y-85139533D02*
X126925319Y-84439533D01*
X126925319Y-85106200D02*
X126991986Y-85139533D01*
X126991986Y-85139533D02*
X127125319Y-85139533D01*
X127125319Y-85139533D02*
X127191986Y-85106200D01*
X127191986Y-85106200D02*
X127225319Y-85072866D01*
X127225319Y-85072866D02*
X127258652Y-85006200D01*
X127258652Y-85006200D02*
X127258652Y-84806200D01*
X127258652Y-84806200D02*
X127225319Y-84739533D01*
X127225319Y-84739533D02*
X127191986Y-84706200D01*
X127191986Y-84706200D02*
X127125319Y-84672866D01*
X127125319Y-84672866D02*
X126991986Y-84672866D01*
X126991986Y-84672866D02*
X126925319Y-84706200D01*
X140425316Y-86266533D02*
X140425316Y-85566533D01*
X140125316Y-86266533D02*
X140125316Y-85899866D01*
X140125316Y-85899866D02*
X140158649Y-85833200D01*
X140158649Y-85833200D02*
X140225316Y-85799866D01*
X140225316Y-85799866D02*
X140325316Y-85799866D01*
X140325316Y-85799866D02*
X140391983Y-85833200D01*
X140391983Y-85833200D02*
X140425316Y-85866533D01*
X139491983Y-85799866D02*
X139491983Y-86266533D01*
X139791983Y-85799866D02*
X139791983Y-86166533D01*
X139791983Y-86166533D02*
X139758650Y-86233200D01*
X139758650Y-86233200D02*
X139691983Y-86266533D01*
X139691983Y-86266533D02*
X139591983Y-86266533D01*
X139591983Y-86266533D02*
X139525316Y-86233200D01*
X139525316Y-86233200D02*
X139491983Y-86199866D01*
X139158650Y-86266533D02*
X139158650Y-85799866D01*
X139158650Y-85866533D02*
X139125317Y-85833200D01*
X139125317Y-85833200D02*
X139058650Y-85799866D01*
X139058650Y-85799866D02*
X138958650Y-85799866D01*
X138958650Y-85799866D02*
X138891983Y-85833200D01*
X138891983Y-85833200D02*
X138858650Y-85899866D01*
X138858650Y-85899866D02*
X138858650Y-86266533D01*
X138858650Y-85899866D02*
X138825317Y-85833200D01*
X138825317Y-85833200D02*
X138758650Y-85799866D01*
X138758650Y-85799866D02*
X138658650Y-85799866D01*
X138658650Y-85799866D02*
X138591983Y-85833200D01*
X138591983Y-85833200D02*
X138558650Y-85899866D01*
X138558650Y-85899866D02*
X138558650Y-86266533D01*
X138225317Y-86266533D02*
X138225317Y-85799866D01*
X138225317Y-85566533D02*
X138258650Y-85599866D01*
X138258650Y-85599866D02*
X138225317Y-85633200D01*
X138225317Y-85633200D02*
X138191984Y-85599866D01*
X138191984Y-85599866D02*
X138225317Y-85566533D01*
X138225317Y-85566533D02*
X138225317Y-85633200D01*
X137591984Y-86266533D02*
X137591984Y-85566533D01*
X137591984Y-86233200D02*
X137658651Y-86266533D01*
X137658651Y-86266533D02*
X137791984Y-86266533D01*
X137791984Y-86266533D02*
X137858651Y-86233200D01*
X137858651Y-86233200D02*
X137891984Y-86199866D01*
X137891984Y-86199866D02*
X137925317Y-86133200D01*
X137925317Y-86133200D02*
X137925317Y-85933200D01*
X137925317Y-85933200D02*
X137891984Y-85866533D01*
X137891984Y-85866533D02*
X137858651Y-85833200D01*
X137858651Y-85833200D02*
X137791984Y-85799866D01*
X137791984Y-85799866D02*
X137658651Y-85799866D01*
X137658651Y-85799866D02*
X137591984Y-85833200D01*
X137258651Y-86266533D02*
X137258651Y-85799866D01*
X137258651Y-85566533D02*
X137291984Y-85599866D01*
X137291984Y-85599866D02*
X137258651Y-85633200D01*
X137258651Y-85633200D02*
X137225318Y-85599866D01*
X137225318Y-85599866D02*
X137258651Y-85566533D01*
X137258651Y-85566533D02*
X137258651Y-85633200D01*
X137025318Y-85799866D02*
X136758651Y-85799866D01*
X136925318Y-85566533D02*
X136925318Y-86166533D01*
X136925318Y-86166533D02*
X136891985Y-86233200D01*
X136891985Y-86233200D02*
X136825318Y-86266533D01*
X136825318Y-86266533D02*
X136758651Y-86266533D01*
X136591985Y-85799866D02*
X136425318Y-86266533D01*
X136258651Y-85799866D02*
X136425318Y-86266533D01*
X136425318Y-86266533D02*
X136491985Y-86433200D01*
X136491985Y-86433200D02*
X136525318Y-86466533D01*
X136525318Y-86466533D02*
X136591985Y-86499866D01*
X135491985Y-86233200D02*
X135425319Y-86266533D01*
X135425319Y-86266533D02*
X135291985Y-86266533D01*
X135291985Y-86266533D02*
X135225319Y-86233200D01*
X135225319Y-86233200D02*
X135191985Y-86166533D01*
X135191985Y-86166533D02*
X135191985Y-86133200D01*
X135191985Y-86133200D02*
X135225319Y-86066533D01*
X135225319Y-86066533D02*
X135291985Y-86033200D01*
X135291985Y-86033200D02*
X135391985Y-86033200D01*
X135391985Y-86033200D02*
X135458652Y-85999866D01*
X135458652Y-85999866D02*
X135491985Y-85933200D01*
X135491985Y-85933200D02*
X135491985Y-85899866D01*
X135491985Y-85899866D02*
X135458652Y-85833200D01*
X135458652Y-85833200D02*
X135391985Y-85799866D01*
X135391985Y-85799866D02*
X135291985Y-85799866D01*
X135291985Y-85799866D02*
X135225319Y-85833200D01*
X134625318Y-86233200D02*
X134691985Y-86266533D01*
X134691985Y-86266533D02*
X134825318Y-86266533D01*
X134825318Y-86266533D02*
X134891985Y-86233200D01*
X134891985Y-86233200D02*
X134925318Y-86166533D01*
X134925318Y-86166533D02*
X134925318Y-85899866D01*
X134925318Y-85899866D02*
X134891985Y-85833200D01*
X134891985Y-85833200D02*
X134825318Y-85799866D01*
X134825318Y-85799866D02*
X134691985Y-85799866D01*
X134691985Y-85799866D02*
X134625318Y-85833200D01*
X134625318Y-85833200D02*
X134591985Y-85899866D01*
X134591985Y-85899866D02*
X134591985Y-85966533D01*
X134591985Y-85966533D02*
X134925318Y-86033200D01*
X134291985Y-85799866D02*
X134291985Y-86266533D01*
X134291985Y-85866533D02*
X134258652Y-85833200D01*
X134258652Y-85833200D02*
X134191985Y-85799866D01*
X134191985Y-85799866D02*
X134091985Y-85799866D01*
X134091985Y-85799866D02*
X134025318Y-85833200D01*
X134025318Y-85833200D02*
X133991985Y-85899866D01*
X133991985Y-85899866D02*
X133991985Y-86266533D01*
X133691985Y-86233200D02*
X133625319Y-86266533D01*
X133625319Y-86266533D02*
X133491985Y-86266533D01*
X133491985Y-86266533D02*
X133425319Y-86233200D01*
X133425319Y-86233200D02*
X133391985Y-86166533D01*
X133391985Y-86166533D02*
X133391985Y-86133200D01*
X133391985Y-86133200D02*
X133425319Y-86066533D01*
X133425319Y-86066533D02*
X133491985Y-86033200D01*
X133491985Y-86033200D02*
X133591985Y-86033200D01*
X133591985Y-86033200D02*
X133658652Y-85999866D01*
X133658652Y-85999866D02*
X133691985Y-85933200D01*
X133691985Y-85933200D02*
X133691985Y-85899866D01*
X133691985Y-85899866D02*
X133658652Y-85833200D01*
X133658652Y-85833200D02*
X133591985Y-85799866D01*
X133591985Y-85799866D02*
X133491985Y-85799866D01*
X133491985Y-85799866D02*
X133425319Y-85833200D01*
X132991985Y-86266533D02*
X133058652Y-86233200D01*
X133058652Y-86233200D02*
X133091985Y-86199866D01*
X133091985Y-86199866D02*
X133125318Y-86133200D01*
X133125318Y-86133200D02*
X133125318Y-85933200D01*
X133125318Y-85933200D02*
X133091985Y-85866533D01*
X133091985Y-85866533D02*
X133058652Y-85833200D01*
X133058652Y-85833200D02*
X132991985Y-85799866D01*
X132991985Y-85799866D02*
X132891985Y-85799866D01*
X132891985Y-85799866D02*
X132825318Y-85833200D01*
X132825318Y-85833200D02*
X132791985Y-85866533D01*
X132791985Y-85866533D02*
X132758652Y-85933200D01*
X132758652Y-85933200D02*
X132758652Y-86133200D01*
X132758652Y-86133200D02*
X132791985Y-86199866D01*
X132791985Y-86199866D02*
X132825318Y-86233200D01*
X132825318Y-86233200D02*
X132891985Y-86266533D01*
X132891985Y-86266533D02*
X132991985Y-86266533D01*
X132458652Y-86266533D02*
X132458652Y-85799866D01*
X132458652Y-85933200D02*
X132425319Y-85866533D01*
X132425319Y-85866533D02*
X132391985Y-85833200D01*
X132391985Y-85833200D02*
X132325319Y-85799866D01*
X132325319Y-85799866D02*
X132258652Y-85799866D01*
X131591986Y-85566533D02*
X131358653Y-86266533D01*
X131358653Y-86266533D02*
X131125319Y-85566533D01*
X130525319Y-86266533D02*
X130925319Y-86266533D01*
X130725319Y-86266533D02*
X130725319Y-85566533D01*
X130725319Y-85566533D02*
X130791986Y-85666533D01*
X130791986Y-85666533D02*
X130858653Y-85733200D01*
X130858653Y-85733200D02*
X130925319Y-85766533D01*
M02*
