%TF.GenerationSoftware,KiCad,Pcbnew,7.0.6-7.0.6~ubuntu22.04.1*%
%TF.CreationDate,2023-08-07T17:02:52+02:00*%
%TF.ProjectId,SHT45,53485434-352e-46b6-9963-61645f706362,rev?*%
%TF.SameCoordinates,Original*%
%TF.FileFunction,Drillmap*%
%TF.FilePolarity,Positive*%
%FSLAX45Y45*%
G04 Gerber Fmt 4.5, Leading zero omitted, Abs format (unit mm)*
G04 Created by KiCad (PCBNEW 7.0.6-7.0.6~ubuntu22.04.1) date 2023-08-07 17:02:52*
%MOMM*%
%LPD*%
G01*
G04 APERTURE LIST*
%ADD10C,0.100000*%
%ADD11C,0.200000*%
%ADD12C,0.040000*%
G04 APERTURE END LIST*
D10*
X13651792Y-9321800D02*
G75*
G03*
X13651792Y-9321800I-56796J0D01*
G01*
X13658496Y-8991600D02*
G75*
G03*
X13658496Y-8991600I-56796J0D01*
G01*
X13493396Y-9321800D02*
G75*
G03*
X13493396Y-9321800I-56796J0D01*
G01*
X13340996Y-9321800D02*
G75*
G03*
X13340996Y-9321800I-56796J0D01*
G01*
X13188596Y-9321800D02*
G75*
G03*
X13188596Y-9321800I-56796J0D01*
G01*
X13500100Y-8991600D02*
G75*
G03*
X13500100Y-8991600I-56796J0D01*
G01*
X13347700Y-8991600D02*
G75*
G03*
X13347700Y-8991600I-56796J0D01*
G01*
X13201296Y-8991600D02*
G75*
G03*
X13201296Y-8991600I-56796J0D01*
G01*
X12141200Y-8191500D02*
X14249400Y-8191500D01*
X14249400Y-9499600D01*
X12141200Y-9499600D01*
X12141200Y-8191500D01*
D11*
D12*
X12984800Y-8793800D02*
X13024800Y-8833800D01*
X13024800Y-8793800D02*
X12984800Y-8833800D01*
X13137200Y-9174800D02*
X13177200Y-9214800D01*
X13177200Y-9174800D02*
X13137200Y-9214800D01*
D10*
X12554400Y-8419600D02*
G75*
G03*
X12554400Y-8419600I-50000J0D01*
G01*
X12554400Y-8673600D02*
G75*
G03*
X12554400Y-8673600I-50000J0D01*
G01*
X12554400Y-8927600D02*
G75*
G03*
X12554400Y-8927600I-50000J0D01*
G01*
X12554400Y-9181600D02*
G75*
G03*
X12554400Y-9181600I-50000J0D01*
G01*
D11*
X12396977Y-9816084D02*
X12396977Y-9616084D01*
X12396977Y-9616084D02*
X12444596Y-9616084D01*
X12444596Y-9616084D02*
X12473167Y-9625608D01*
X12473167Y-9625608D02*
X12492215Y-9644655D01*
X12492215Y-9644655D02*
X12501739Y-9663703D01*
X12501739Y-9663703D02*
X12511262Y-9701798D01*
X12511262Y-9701798D02*
X12511262Y-9730370D01*
X12511262Y-9730370D02*
X12501739Y-9768465D01*
X12501739Y-9768465D02*
X12492215Y-9787512D01*
X12492215Y-9787512D02*
X12473167Y-9806560D01*
X12473167Y-9806560D02*
X12444596Y-9816084D01*
X12444596Y-9816084D02*
X12396977Y-9816084D01*
X12596977Y-9816084D02*
X12596977Y-9682750D01*
X12596977Y-9720846D02*
X12606501Y-9701798D01*
X12606501Y-9701798D02*
X12616024Y-9692274D01*
X12616024Y-9692274D02*
X12635072Y-9682750D01*
X12635072Y-9682750D02*
X12654120Y-9682750D01*
X12720786Y-9816084D02*
X12720786Y-9682750D01*
X12720786Y-9616084D02*
X12711262Y-9625608D01*
X12711262Y-9625608D02*
X12720786Y-9635131D01*
X12720786Y-9635131D02*
X12730310Y-9625608D01*
X12730310Y-9625608D02*
X12720786Y-9616084D01*
X12720786Y-9616084D02*
X12720786Y-9635131D01*
X12844596Y-9816084D02*
X12825548Y-9806560D01*
X12825548Y-9806560D02*
X12816024Y-9787512D01*
X12816024Y-9787512D02*
X12816024Y-9616084D01*
X12949358Y-9816084D02*
X12930310Y-9806560D01*
X12930310Y-9806560D02*
X12920786Y-9787512D01*
X12920786Y-9787512D02*
X12920786Y-9616084D01*
X13177929Y-9816084D02*
X13177929Y-9616084D01*
X13177929Y-9616084D02*
X13244596Y-9758941D01*
X13244596Y-9758941D02*
X13311262Y-9616084D01*
X13311262Y-9616084D02*
X13311262Y-9816084D01*
X13492215Y-9816084D02*
X13492215Y-9711322D01*
X13492215Y-9711322D02*
X13482691Y-9692274D01*
X13482691Y-9692274D02*
X13463643Y-9682750D01*
X13463643Y-9682750D02*
X13425548Y-9682750D01*
X13425548Y-9682750D02*
X13406501Y-9692274D01*
X13492215Y-9806560D02*
X13473167Y-9816084D01*
X13473167Y-9816084D02*
X13425548Y-9816084D01*
X13425548Y-9816084D02*
X13406501Y-9806560D01*
X13406501Y-9806560D02*
X13396977Y-9787512D01*
X13396977Y-9787512D02*
X13396977Y-9768465D01*
X13396977Y-9768465D02*
X13406501Y-9749417D01*
X13406501Y-9749417D02*
X13425548Y-9739893D01*
X13425548Y-9739893D02*
X13473167Y-9739893D01*
X13473167Y-9739893D02*
X13492215Y-9730370D01*
X13587453Y-9682750D02*
X13587453Y-9882750D01*
X13587453Y-9692274D02*
X13606501Y-9682750D01*
X13606501Y-9682750D02*
X13644596Y-9682750D01*
X13644596Y-9682750D02*
X13663643Y-9692274D01*
X13663643Y-9692274D02*
X13673167Y-9701798D01*
X13673167Y-9701798D02*
X13682691Y-9720846D01*
X13682691Y-9720846D02*
X13682691Y-9777989D01*
X13682691Y-9777989D02*
X13673167Y-9797036D01*
X13673167Y-9797036D02*
X13663643Y-9806560D01*
X13663643Y-9806560D02*
X13644596Y-9816084D01*
X13644596Y-9816084D02*
X13606501Y-9816084D01*
X13606501Y-9816084D02*
X13587453Y-9806560D01*
X13768405Y-9797036D02*
X13777929Y-9806560D01*
X13777929Y-9806560D02*
X13768405Y-9816084D01*
X13768405Y-9816084D02*
X13758882Y-9806560D01*
X13758882Y-9806560D02*
X13768405Y-9797036D01*
X13768405Y-9797036D02*
X13768405Y-9816084D01*
X13768405Y-9692274D02*
X13777929Y-9701798D01*
X13777929Y-9701798D02*
X13768405Y-9711322D01*
X13768405Y-9711322D02*
X13758882Y-9701798D01*
X13758882Y-9701798D02*
X13768405Y-9692274D01*
X13768405Y-9692274D02*
X13768405Y-9711322D01*
D12*
X12096200Y-10124600D02*
X12136200Y-10164600D01*
X12136200Y-10124600D02*
X12096200Y-10164600D01*
D11*
X12435072Y-10036084D02*
X12454120Y-10036084D01*
X12454120Y-10036084D02*
X12473167Y-10045608D01*
X12473167Y-10045608D02*
X12482691Y-10055131D01*
X12482691Y-10055131D02*
X12492215Y-10074179D01*
X12492215Y-10074179D02*
X12501739Y-10112274D01*
X12501739Y-10112274D02*
X12501739Y-10159893D01*
X12501739Y-10159893D02*
X12492215Y-10197989D01*
X12492215Y-10197989D02*
X12482691Y-10217036D01*
X12482691Y-10217036D02*
X12473167Y-10226560D01*
X12473167Y-10226560D02*
X12454120Y-10236084D01*
X12454120Y-10236084D02*
X12435072Y-10236084D01*
X12435072Y-10236084D02*
X12416024Y-10226560D01*
X12416024Y-10226560D02*
X12406501Y-10217036D01*
X12406501Y-10217036D02*
X12396977Y-10197989D01*
X12396977Y-10197989D02*
X12387453Y-10159893D01*
X12387453Y-10159893D02*
X12387453Y-10112274D01*
X12387453Y-10112274D02*
X12396977Y-10074179D01*
X12396977Y-10074179D02*
X12406501Y-10055131D01*
X12406501Y-10055131D02*
X12416024Y-10045608D01*
X12416024Y-10045608D02*
X12435072Y-10036084D01*
X12587453Y-10217036D02*
X12596977Y-10226560D01*
X12596977Y-10226560D02*
X12587453Y-10236084D01*
X12587453Y-10236084D02*
X12577929Y-10226560D01*
X12577929Y-10226560D02*
X12587453Y-10217036D01*
X12587453Y-10217036D02*
X12587453Y-10236084D01*
X12768405Y-10102750D02*
X12768405Y-10236084D01*
X12720786Y-10026560D02*
X12673167Y-10169417D01*
X12673167Y-10169417D02*
X12796977Y-10169417D01*
X12911262Y-10036084D02*
X12930310Y-10036084D01*
X12930310Y-10036084D02*
X12949358Y-10045608D01*
X12949358Y-10045608D02*
X12958882Y-10055131D01*
X12958882Y-10055131D02*
X12968405Y-10074179D01*
X12968405Y-10074179D02*
X12977929Y-10112274D01*
X12977929Y-10112274D02*
X12977929Y-10159893D01*
X12977929Y-10159893D02*
X12968405Y-10197989D01*
X12968405Y-10197989D02*
X12958882Y-10217036D01*
X12958882Y-10217036D02*
X12949358Y-10226560D01*
X12949358Y-10226560D02*
X12930310Y-10236084D01*
X12930310Y-10236084D02*
X12911262Y-10236084D01*
X12911262Y-10236084D02*
X12892215Y-10226560D01*
X12892215Y-10226560D02*
X12882691Y-10217036D01*
X12882691Y-10217036D02*
X12873167Y-10197989D01*
X12873167Y-10197989D02*
X12863643Y-10159893D01*
X12863643Y-10159893D02*
X12863643Y-10112274D01*
X12863643Y-10112274D02*
X12873167Y-10074179D01*
X12873167Y-10074179D02*
X12882691Y-10055131D01*
X12882691Y-10055131D02*
X12892215Y-10045608D01*
X12892215Y-10045608D02*
X12911262Y-10036084D01*
X13101739Y-10036084D02*
X13120786Y-10036084D01*
X13120786Y-10036084D02*
X13139834Y-10045608D01*
X13139834Y-10045608D02*
X13149358Y-10055131D01*
X13149358Y-10055131D02*
X13158882Y-10074179D01*
X13158882Y-10074179D02*
X13168405Y-10112274D01*
X13168405Y-10112274D02*
X13168405Y-10159893D01*
X13168405Y-10159893D02*
X13158882Y-10197989D01*
X13158882Y-10197989D02*
X13149358Y-10217036D01*
X13149358Y-10217036D02*
X13139834Y-10226560D01*
X13139834Y-10226560D02*
X13120786Y-10236084D01*
X13120786Y-10236084D02*
X13101739Y-10236084D01*
X13101739Y-10236084D02*
X13082691Y-10226560D01*
X13082691Y-10226560D02*
X13073167Y-10217036D01*
X13073167Y-10217036D02*
X13063643Y-10197989D01*
X13063643Y-10197989D02*
X13054120Y-10159893D01*
X13054120Y-10159893D02*
X13054120Y-10112274D01*
X13054120Y-10112274D02*
X13063643Y-10074179D01*
X13063643Y-10074179D02*
X13073167Y-10055131D01*
X13073167Y-10055131D02*
X13082691Y-10045608D01*
X13082691Y-10045608D02*
X13101739Y-10036084D01*
X13254120Y-10236084D02*
X13254120Y-10102750D01*
X13254120Y-10121798D02*
X13263643Y-10112274D01*
X13263643Y-10112274D02*
X13282691Y-10102750D01*
X13282691Y-10102750D02*
X13311263Y-10102750D01*
X13311263Y-10102750D02*
X13330310Y-10112274D01*
X13330310Y-10112274D02*
X13339834Y-10131322D01*
X13339834Y-10131322D02*
X13339834Y-10236084D01*
X13339834Y-10131322D02*
X13349358Y-10112274D01*
X13349358Y-10112274D02*
X13368405Y-10102750D01*
X13368405Y-10102750D02*
X13396977Y-10102750D01*
X13396977Y-10102750D02*
X13416024Y-10112274D01*
X13416024Y-10112274D02*
X13425548Y-10131322D01*
X13425548Y-10131322D02*
X13425548Y-10236084D01*
X13520786Y-10236084D02*
X13520786Y-10102750D01*
X13520786Y-10121798D02*
X13530310Y-10112274D01*
X13530310Y-10112274D02*
X13549358Y-10102750D01*
X13549358Y-10102750D02*
X13577929Y-10102750D01*
X13577929Y-10102750D02*
X13596977Y-10112274D01*
X13596977Y-10112274D02*
X13606501Y-10131322D01*
X13606501Y-10131322D02*
X13606501Y-10236084D01*
X13606501Y-10131322D02*
X13616024Y-10112274D01*
X13616024Y-10112274D02*
X13635072Y-10102750D01*
X13635072Y-10102750D02*
X13663643Y-10102750D01*
X13663643Y-10102750D02*
X13682691Y-10112274D01*
X13682691Y-10112274D02*
X13692215Y-10131322D01*
X13692215Y-10131322D02*
X13692215Y-10236084D01*
X14082691Y-10026560D02*
X13911263Y-10283703D01*
X14339834Y-10036084D02*
X14358882Y-10036084D01*
X14358882Y-10036084D02*
X14377929Y-10045608D01*
X14377929Y-10045608D02*
X14387453Y-10055131D01*
X14387453Y-10055131D02*
X14396977Y-10074179D01*
X14396977Y-10074179D02*
X14406501Y-10112274D01*
X14406501Y-10112274D02*
X14406501Y-10159893D01*
X14406501Y-10159893D02*
X14396977Y-10197989D01*
X14396977Y-10197989D02*
X14387453Y-10217036D01*
X14387453Y-10217036D02*
X14377929Y-10226560D01*
X14377929Y-10226560D02*
X14358882Y-10236084D01*
X14358882Y-10236084D02*
X14339834Y-10236084D01*
X14339834Y-10236084D02*
X14320786Y-10226560D01*
X14320786Y-10226560D02*
X14311263Y-10217036D01*
X14311263Y-10217036D02*
X14301739Y-10197989D01*
X14301739Y-10197989D02*
X14292215Y-10159893D01*
X14292215Y-10159893D02*
X14292215Y-10112274D01*
X14292215Y-10112274D02*
X14301739Y-10074179D01*
X14301739Y-10074179D02*
X14311263Y-10055131D01*
X14311263Y-10055131D02*
X14320786Y-10045608D01*
X14320786Y-10045608D02*
X14339834Y-10036084D01*
X14492215Y-10217036D02*
X14501739Y-10226560D01*
X14501739Y-10226560D02*
X14492215Y-10236084D01*
X14492215Y-10236084D02*
X14482691Y-10226560D01*
X14482691Y-10226560D02*
X14492215Y-10217036D01*
X14492215Y-10217036D02*
X14492215Y-10236084D01*
X14625548Y-10036084D02*
X14644596Y-10036084D01*
X14644596Y-10036084D02*
X14663644Y-10045608D01*
X14663644Y-10045608D02*
X14673167Y-10055131D01*
X14673167Y-10055131D02*
X14682691Y-10074179D01*
X14682691Y-10074179D02*
X14692215Y-10112274D01*
X14692215Y-10112274D02*
X14692215Y-10159893D01*
X14692215Y-10159893D02*
X14682691Y-10197989D01*
X14682691Y-10197989D02*
X14673167Y-10217036D01*
X14673167Y-10217036D02*
X14663644Y-10226560D01*
X14663644Y-10226560D02*
X14644596Y-10236084D01*
X14644596Y-10236084D02*
X14625548Y-10236084D01*
X14625548Y-10236084D02*
X14606501Y-10226560D01*
X14606501Y-10226560D02*
X14596977Y-10217036D01*
X14596977Y-10217036D02*
X14587453Y-10197989D01*
X14587453Y-10197989D02*
X14577929Y-10159893D01*
X14577929Y-10159893D02*
X14577929Y-10112274D01*
X14577929Y-10112274D02*
X14587453Y-10074179D01*
X14587453Y-10074179D02*
X14596977Y-10055131D01*
X14596977Y-10055131D02*
X14606501Y-10045608D01*
X14606501Y-10045608D02*
X14625548Y-10036084D01*
X14882691Y-10236084D02*
X14768406Y-10236084D01*
X14825548Y-10236084D02*
X14825548Y-10036084D01*
X14825548Y-10036084D02*
X14806501Y-10064655D01*
X14806501Y-10064655D02*
X14787453Y-10083703D01*
X14787453Y-10083703D02*
X14768406Y-10093227D01*
X15063644Y-10036084D02*
X14968406Y-10036084D01*
X14968406Y-10036084D02*
X14958882Y-10131322D01*
X14958882Y-10131322D02*
X14968406Y-10121798D01*
X14968406Y-10121798D02*
X14987453Y-10112274D01*
X14987453Y-10112274D02*
X15035072Y-10112274D01*
X15035072Y-10112274D02*
X15054120Y-10121798D01*
X15054120Y-10121798D02*
X15063644Y-10131322D01*
X15063644Y-10131322D02*
X15073167Y-10150370D01*
X15073167Y-10150370D02*
X15073167Y-10197989D01*
X15073167Y-10197989D02*
X15063644Y-10217036D01*
X15063644Y-10217036D02*
X15054120Y-10226560D01*
X15054120Y-10226560D02*
X15035072Y-10236084D01*
X15035072Y-10236084D02*
X14987453Y-10236084D01*
X14987453Y-10236084D02*
X14968406Y-10226560D01*
X14968406Y-10226560D02*
X14958882Y-10217036D01*
X15139834Y-10036084D02*
X15273167Y-10036084D01*
X15273167Y-10036084D02*
X15187453Y-10236084D01*
X15339834Y-10036084D02*
X15339834Y-10074179D01*
X15416025Y-10036084D02*
X15416025Y-10074179D01*
X15711263Y-10312274D02*
X15701739Y-10302750D01*
X15701739Y-10302750D02*
X15682691Y-10274179D01*
X15682691Y-10274179D02*
X15673168Y-10255131D01*
X15673168Y-10255131D02*
X15663644Y-10226560D01*
X15663644Y-10226560D02*
X15654120Y-10178941D01*
X15654120Y-10178941D02*
X15654120Y-10140846D01*
X15654120Y-10140846D02*
X15663644Y-10093227D01*
X15663644Y-10093227D02*
X15673168Y-10064655D01*
X15673168Y-10064655D02*
X15682691Y-10045608D01*
X15682691Y-10045608D02*
X15701739Y-10017036D01*
X15701739Y-10017036D02*
X15711263Y-10007512D01*
X15777929Y-10055131D02*
X15787453Y-10045608D01*
X15787453Y-10045608D02*
X15806501Y-10036084D01*
X15806501Y-10036084D02*
X15854120Y-10036084D01*
X15854120Y-10036084D02*
X15873168Y-10045608D01*
X15873168Y-10045608D02*
X15882691Y-10055131D01*
X15882691Y-10055131D02*
X15892215Y-10074179D01*
X15892215Y-10074179D02*
X15892215Y-10093227D01*
X15892215Y-10093227D02*
X15882691Y-10121798D01*
X15882691Y-10121798D02*
X15768406Y-10236084D01*
X15768406Y-10236084D02*
X15892215Y-10236084D01*
X16130310Y-10236084D02*
X16130310Y-10036084D01*
X16216025Y-10236084D02*
X16216025Y-10131322D01*
X16216025Y-10131322D02*
X16206501Y-10112274D01*
X16206501Y-10112274D02*
X16187453Y-10102750D01*
X16187453Y-10102750D02*
X16158882Y-10102750D01*
X16158882Y-10102750D02*
X16139834Y-10112274D01*
X16139834Y-10112274D02*
X16130310Y-10121798D01*
X16339834Y-10236084D02*
X16320787Y-10226560D01*
X16320787Y-10226560D02*
X16311263Y-10217036D01*
X16311263Y-10217036D02*
X16301739Y-10197989D01*
X16301739Y-10197989D02*
X16301739Y-10140846D01*
X16301739Y-10140846D02*
X16311263Y-10121798D01*
X16311263Y-10121798D02*
X16320787Y-10112274D01*
X16320787Y-10112274D02*
X16339834Y-10102750D01*
X16339834Y-10102750D02*
X16368406Y-10102750D01*
X16368406Y-10102750D02*
X16387453Y-10112274D01*
X16387453Y-10112274D02*
X16396977Y-10121798D01*
X16396977Y-10121798D02*
X16406501Y-10140846D01*
X16406501Y-10140846D02*
X16406501Y-10197989D01*
X16406501Y-10197989D02*
X16396977Y-10217036D01*
X16396977Y-10217036D02*
X16387453Y-10226560D01*
X16387453Y-10226560D02*
X16368406Y-10236084D01*
X16368406Y-10236084D02*
X16339834Y-10236084D01*
X16520787Y-10236084D02*
X16501739Y-10226560D01*
X16501739Y-10226560D02*
X16492215Y-10207512D01*
X16492215Y-10207512D02*
X16492215Y-10036084D01*
X16673168Y-10226560D02*
X16654120Y-10236084D01*
X16654120Y-10236084D02*
X16616025Y-10236084D01*
X16616025Y-10236084D02*
X16596977Y-10226560D01*
X16596977Y-10226560D02*
X16587453Y-10207512D01*
X16587453Y-10207512D02*
X16587453Y-10131322D01*
X16587453Y-10131322D02*
X16596977Y-10112274D01*
X16596977Y-10112274D02*
X16616025Y-10102750D01*
X16616025Y-10102750D02*
X16654120Y-10102750D01*
X16654120Y-10102750D02*
X16673168Y-10112274D01*
X16673168Y-10112274D02*
X16682691Y-10131322D01*
X16682691Y-10131322D02*
X16682691Y-10150370D01*
X16682691Y-10150370D02*
X16587453Y-10169417D01*
X16758882Y-10226560D02*
X16777930Y-10236084D01*
X16777930Y-10236084D02*
X16816025Y-10236084D01*
X16816025Y-10236084D02*
X16835073Y-10226560D01*
X16835073Y-10226560D02*
X16844596Y-10207512D01*
X16844596Y-10207512D02*
X16844596Y-10197989D01*
X16844596Y-10197989D02*
X16835073Y-10178941D01*
X16835073Y-10178941D02*
X16816025Y-10169417D01*
X16816025Y-10169417D02*
X16787453Y-10169417D01*
X16787453Y-10169417D02*
X16768406Y-10159893D01*
X16768406Y-10159893D02*
X16758882Y-10140846D01*
X16758882Y-10140846D02*
X16758882Y-10131322D01*
X16758882Y-10131322D02*
X16768406Y-10112274D01*
X16768406Y-10112274D02*
X16787453Y-10102750D01*
X16787453Y-10102750D02*
X16816025Y-10102750D01*
X16816025Y-10102750D02*
X16835073Y-10112274D01*
X16911263Y-10312274D02*
X16920787Y-10302750D01*
X16920787Y-10302750D02*
X16939834Y-10274179D01*
X16939834Y-10274179D02*
X16949358Y-10255131D01*
X16949358Y-10255131D02*
X16958882Y-10226560D01*
X16958882Y-10226560D02*
X16968406Y-10178941D01*
X16968406Y-10178941D02*
X16968406Y-10140846D01*
X16968406Y-10140846D02*
X16958882Y-10093227D01*
X16958882Y-10093227D02*
X16949358Y-10064655D01*
X16949358Y-10064655D02*
X16939834Y-10045608D01*
X16939834Y-10045608D02*
X16920787Y-10017036D01*
X16920787Y-10017036D02*
X16911263Y-10007512D01*
D10*
X12136200Y-10408600D02*
G75*
G03*
X12136200Y-10408600I-50000J0D01*
G01*
D11*
X12501739Y-10500084D02*
X12387453Y-10500084D01*
X12444596Y-10500084D02*
X12444596Y-10300084D01*
X12444596Y-10300084D02*
X12425548Y-10328655D01*
X12425548Y-10328655D02*
X12406501Y-10347703D01*
X12406501Y-10347703D02*
X12387453Y-10357227D01*
X12587453Y-10481036D02*
X12596977Y-10490560D01*
X12596977Y-10490560D02*
X12587453Y-10500084D01*
X12587453Y-10500084D02*
X12577929Y-10490560D01*
X12577929Y-10490560D02*
X12587453Y-10481036D01*
X12587453Y-10481036D02*
X12587453Y-10500084D01*
X12720786Y-10300084D02*
X12739834Y-10300084D01*
X12739834Y-10300084D02*
X12758882Y-10309608D01*
X12758882Y-10309608D02*
X12768405Y-10319131D01*
X12768405Y-10319131D02*
X12777929Y-10338179D01*
X12777929Y-10338179D02*
X12787453Y-10376274D01*
X12787453Y-10376274D02*
X12787453Y-10423893D01*
X12787453Y-10423893D02*
X12777929Y-10461989D01*
X12777929Y-10461989D02*
X12768405Y-10481036D01*
X12768405Y-10481036D02*
X12758882Y-10490560D01*
X12758882Y-10490560D02*
X12739834Y-10500084D01*
X12739834Y-10500084D02*
X12720786Y-10500084D01*
X12720786Y-10500084D02*
X12701739Y-10490560D01*
X12701739Y-10490560D02*
X12692215Y-10481036D01*
X12692215Y-10481036D02*
X12682691Y-10461989D01*
X12682691Y-10461989D02*
X12673167Y-10423893D01*
X12673167Y-10423893D02*
X12673167Y-10376274D01*
X12673167Y-10376274D02*
X12682691Y-10338179D01*
X12682691Y-10338179D02*
X12692215Y-10319131D01*
X12692215Y-10319131D02*
X12701739Y-10309608D01*
X12701739Y-10309608D02*
X12720786Y-10300084D01*
X12911262Y-10300084D02*
X12930310Y-10300084D01*
X12930310Y-10300084D02*
X12949358Y-10309608D01*
X12949358Y-10309608D02*
X12958882Y-10319131D01*
X12958882Y-10319131D02*
X12968405Y-10338179D01*
X12968405Y-10338179D02*
X12977929Y-10376274D01*
X12977929Y-10376274D02*
X12977929Y-10423893D01*
X12977929Y-10423893D02*
X12968405Y-10461989D01*
X12968405Y-10461989D02*
X12958882Y-10481036D01*
X12958882Y-10481036D02*
X12949358Y-10490560D01*
X12949358Y-10490560D02*
X12930310Y-10500084D01*
X12930310Y-10500084D02*
X12911262Y-10500084D01*
X12911262Y-10500084D02*
X12892215Y-10490560D01*
X12892215Y-10490560D02*
X12882691Y-10481036D01*
X12882691Y-10481036D02*
X12873167Y-10461989D01*
X12873167Y-10461989D02*
X12863643Y-10423893D01*
X12863643Y-10423893D02*
X12863643Y-10376274D01*
X12863643Y-10376274D02*
X12873167Y-10338179D01*
X12873167Y-10338179D02*
X12882691Y-10319131D01*
X12882691Y-10319131D02*
X12892215Y-10309608D01*
X12892215Y-10309608D02*
X12911262Y-10300084D01*
X13101739Y-10300084D02*
X13120786Y-10300084D01*
X13120786Y-10300084D02*
X13139834Y-10309608D01*
X13139834Y-10309608D02*
X13149358Y-10319131D01*
X13149358Y-10319131D02*
X13158882Y-10338179D01*
X13158882Y-10338179D02*
X13168405Y-10376274D01*
X13168405Y-10376274D02*
X13168405Y-10423893D01*
X13168405Y-10423893D02*
X13158882Y-10461989D01*
X13158882Y-10461989D02*
X13149358Y-10481036D01*
X13149358Y-10481036D02*
X13139834Y-10490560D01*
X13139834Y-10490560D02*
X13120786Y-10500084D01*
X13120786Y-10500084D02*
X13101739Y-10500084D01*
X13101739Y-10500084D02*
X13082691Y-10490560D01*
X13082691Y-10490560D02*
X13073167Y-10481036D01*
X13073167Y-10481036D02*
X13063643Y-10461989D01*
X13063643Y-10461989D02*
X13054120Y-10423893D01*
X13054120Y-10423893D02*
X13054120Y-10376274D01*
X13054120Y-10376274D02*
X13063643Y-10338179D01*
X13063643Y-10338179D02*
X13073167Y-10319131D01*
X13073167Y-10319131D02*
X13082691Y-10309608D01*
X13082691Y-10309608D02*
X13101739Y-10300084D01*
X13254120Y-10500084D02*
X13254120Y-10366750D01*
X13254120Y-10385798D02*
X13263643Y-10376274D01*
X13263643Y-10376274D02*
X13282691Y-10366750D01*
X13282691Y-10366750D02*
X13311263Y-10366750D01*
X13311263Y-10366750D02*
X13330310Y-10376274D01*
X13330310Y-10376274D02*
X13339834Y-10395322D01*
X13339834Y-10395322D02*
X13339834Y-10500084D01*
X13339834Y-10395322D02*
X13349358Y-10376274D01*
X13349358Y-10376274D02*
X13368405Y-10366750D01*
X13368405Y-10366750D02*
X13396977Y-10366750D01*
X13396977Y-10366750D02*
X13416024Y-10376274D01*
X13416024Y-10376274D02*
X13425548Y-10395322D01*
X13425548Y-10395322D02*
X13425548Y-10500084D01*
X13520786Y-10500084D02*
X13520786Y-10366750D01*
X13520786Y-10385798D02*
X13530310Y-10376274D01*
X13530310Y-10376274D02*
X13549358Y-10366750D01*
X13549358Y-10366750D02*
X13577929Y-10366750D01*
X13577929Y-10366750D02*
X13596977Y-10376274D01*
X13596977Y-10376274D02*
X13606501Y-10395322D01*
X13606501Y-10395322D02*
X13606501Y-10500084D01*
X13606501Y-10395322D02*
X13616024Y-10376274D01*
X13616024Y-10376274D02*
X13635072Y-10366750D01*
X13635072Y-10366750D02*
X13663643Y-10366750D01*
X13663643Y-10366750D02*
X13682691Y-10376274D01*
X13682691Y-10376274D02*
X13692215Y-10395322D01*
X13692215Y-10395322D02*
X13692215Y-10500084D01*
X14082691Y-10290560D02*
X13911263Y-10547703D01*
X14339834Y-10300084D02*
X14358882Y-10300084D01*
X14358882Y-10300084D02*
X14377929Y-10309608D01*
X14377929Y-10309608D02*
X14387453Y-10319131D01*
X14387453Y-10319131D02*
X14396977Y-10338179D01*
X14396977Y-10338179D02*
X14406501Y-10376274D01*
X14406501Y-10376274D02*
X14406501Y-10423893D01*
X14406501Y-10423893D02*
X14396977Y-10461989D01*
X14396977Y-10461989D02*
X14387453Y-10481036D01*
X14387453Y-10481036D02*
X14377929Y-10490560D01*
X14377929Y-10490560D02*
X14358882Y-10500084D01*
X14358882Y-10500084D02*
X14339834Y-10500084D01*
X14339834Y-10500084D02*
X14320786Y-10490560D01*
X14320786Y-10490560D02*
X14311263Y-10481036D01*
X14311263Y-10481036D02*
X14301739Y-10461989D01*
X14301739Y-10461989D02*
X14292215Y-10423893D01*
X14292215Y-10423893D02*
X14292215Y-10376274D01*
X14292215Y-10376274D02*
X14301739Y-10338179D01*
X14301739Y-10338179D02*
X14311263Y-10319131D01*
X14311263Y-10319131D02*
X14320786Y-10309608D01*
X14320786Y-10309608D02*
X14339834Y-10300084D01*
X14492215Y-10481036D02*
X14501739Y-10490560D01*
X14501739Y-10490560D02*
X14492215Y-10500084D01*
X14492215Y-10500084D02*
X14482691Y-10490560D01*
X14482691Y-10490560D02*
X14492215Y-10481036D01*
X14492215Y-10481036D02*
X14492215Y-10500084D01*
X14625548Y-10300084D02*
X14644596Y-10300084D01*
X14644596Y-10300084D02*
X14663644Y-10309608D01*
X14663644Y-10309608D02*
X14673167Y-10319131D01*
X14673167Y-10319131D02*
X14682691Y-10338179D01*
X14682691Y-10338179D02*
X14692215Y-10376274D01*
X14692215Y-10376274D02*
X14692215Y-10423893D01*
X14692215Y-10423893D02*
X14682691Y-10461989D01*
X14682691Y-10461989D02*
X14673167Y-10481036D01*
X14673167Y-10481036D02*
X14663644Y-10490560D01*
X14663644Y-10490560D02*
X14644596Y-10500084D01*
X14644596Y-10500084D02*
X14625548Y-10500084D01*
X14625548Y-10500084D02*
X14606501Y-10490560D01*
X14606501Y-10490560D02*
X14596977Y-10481036D01*
X14596977Y-10481036D02*
X14587453Y-10461989D01*
X14587453Y-10461989D02*
X14577929Y-10423893D01*
X14577929Y-10423893D02*
X14577929Y-10376274D01*
X14577929Y-10376274D02*
X14587453Y-10338179D01*
X14587453Y-10338179D02*
X14596977Y-10319131D01*
X14596977Y-10319131D02*
X14606501Y-10309608D01*
X14606501Y-10309608D02*
X14625548Y-10300084D01*
X14758882Y-10300084D02*
X14882691Y-10300084D01*
X14882691Y-10300084D02*
X14816025Y-10376274D01*
X14816025Y-10376274D02*
X14844596Y-10376274D01*
X14844596Y-10376274D02*
X14863644Y-10385798D01*
X14863644Y-10385798D02*
X14873167Y-10395322D01*
X14873167Y-10395322D02*
X14882691Y-10414370D01*
X14882691Y-10414370D02*
X14882691Y-10461989D01*
X14882691Y-10461989D02*
X14873167Y-10481036D01*
X14873167Y-10481036D02*
X14863644Y-10490560D01*
X14863644Y-10490560D02*
X14844596Y-10500084D01*
X14844596Y-10500084D02*
X14787453Y-10500084D01*
X14787453Y-10500084D02*
X14768406Y-10490560D01*
X14768406Y-10490560D02*
X14758882Y-10481036D01*
X14977929Y-10500084D02*
X15016025Y-10500084D01*
X15016025Y-10500084D02*
X15035072Y-10490560D01*
X15035072Y-10490560D02*
X15044596Y-10481036D01*
X15044596Y-10481036D02*
X15063644Y-10452465D01*
X15063644Y-10452465D02*
X15073167Y-10414370D01*
X15073167Y-10414370D02*
X15073167Y-10338179D01*
X15073167Y-10338179D02*
X15063644Y-10319131D01*
X15063644Y-10319131D02*
X15054120Y-10309608D01*
X15054120Y-10309608D02*
X15035072Y-10300084D01*
X15035072Y-10300084D02*
X14996977Y-10300084D01*
X14996977Y-10300084D02*
X14977929Y-10309608D01*
X14977929Y-10309608D02*
X14968406Y-10319131D01*
X14968406Y-10319131D02*
X14958882Y-10338179D01*
X14958882Y-10338179D02*
X14958882Y-10385798D01*
X14958882Y-10385798D02*
X14968406Y-10404846D01*
X14968406Y-10404846D02*
X14977929Y-10414370D01*
X14977929Y-10414370D02*
X14996977Y-10423893D01*
X14996977Y-10423893D02*
X15035072Y-10423893D01*
X15035072Y-10423893D02*
X15054120Y-10414370D01*
X15054120Y-10414370D02*
X15063644Y-10404846D01*
X15063644Y-10404846D02*
X15073167Y-10385798D01*
X15244596Y-10366750D02*
X15244596Y-10500084D01*
X15196977Y-10290560D02*
X15149358Y-10433417D01*
X15149358Y-10433417D02*
X15273167Y-10433417D01*
X15339834Y-10300084D02*
X15339834Y-10338179D01*
X15416025Y-10300084D02*
X15416025Y-10338179D01*
X15711263Y-10576274D02*
X15701739Y-10566750D01*
X15701739Y-10566750D02*
X15682691Y-10538179D01*
X15682691Y-10538179D02*
X15673168Y-10519131D01*
X15673168Y-10519131D02*
X15663644Y-10490560D01*
X15663644Y-10490560D02*
X15654120Y-10442941D01*
X15654120Y-10442941D02*
X15654120Y-10404846D01*
X15654120Y-10404846D02*
X15663644Y-10357227D01*
X15663644Y-10357227D02*
X15673168Y-10328655D01*
X15673168Y-10328655D02*
X15682691Y-10309608D01*
X15682691Y-10309608D02*
X15701739Y-10281036D01*
X15701739Y-10281036D02*
X15711263Y-10271512D01*
X15873168Y-10366750D02*
X15873168Y-10500084D01*
X15825548Y-10290560D02*
X15777929Y-10433417D01*
X15777929Y-10433417D02*
X15901739Y-10433417D01*
X16130310Y-10500084D02*
X16130310Y-10300084D01*
X16216025Y-10500084D02*
X16216025Y-10395322D01*
X16216025Y-10395322D02*
X16206501Y-10376274D01*
X16206501Y-10376274D02*
X16187453Y-10366750D01*
X16187453Y-10366750D02*
X16158882Y-10366750D01*
X16158882Y-10366750D02*
X16139834Y-10376274D01*
X16139834Y-10376274D02*
X16130310Y-10385798D01*
X16339834Y-10500084D02*
X16320787Y-10490560D01*
X16320787Y-10490560D02*
X16311263Y-10481036D01*
X16311263Y-10481036D02*
X16301739Y-10461989D01*
X16301739Y-10461989D02*
X16301739Y-10404846D01*
X16301739Y-10404846D02*
X16311263Y-10385798D01*
X16311263Y-10385798D02*
X16320787Y-10376274D01*
X16320787Y-10376274D02*
X16339834Y-10366750D01*
X16339834Y-10366750D02*
X16368406Y-10366750D01*
X16368406Y-10366750D02*
X16387453Y-10376274D01*
X16387453Y-10376274D02*
X16396977Y-10385798D01*
X16396977Y-10385798D02*
X16406501Y-10404846D01*
X16406501Y-10404846D02*
X16406501Y-10461989D01*
X16406501Y-10461989D02*
X16396977Y-10481036D01*
X16396977Y-10481036D02*
X16387453Y-10490560D01*
X16387453Y-10490560D02*
X16368406Y-10500084D01*
X16368406Y-10500084D02*
X16339834Y-10500084D01*
X16520787Y-10500084D02*
X16501739Y-10490560D01*
X16501739Y-10490560D02*
X16492215Y-10471512D01*
X16492215Y-10471512D02*
X16492215Y-10300084D01*
X16673168Y-10490560D02*
X16654120Y-10500084D01*
X16654120Y-10500084D02*
X16616025Y-10500084D01*
X16616025Y-10500084D02*
X16596977Y-10490560D01*
X16596977Y-10490560D02*
X16587453Y-10471512D01*
X16587453Y-10471512D02*
X16587453Y-10395322D01*
X16587453Y-10395322D02*
X16596977Y-10376274D01*
X16596977Y-10376274D02*
X16616025Y-10366750D01*
X16616025Y-10366750D02*
X16654120Y-10366750D01*
X16654120Y-10366750D02*
X16673168Y-10376274D01*
X16673168Y-10376274D02*
X16682691Y-10395322D01*
X16682691Y-10395322D02*
X16682691Y-10414370D01*
X16682691Y-10414370D02*
X16587453Y-10433417D01*
X16758882Y-10490560D02*
X16777930Y-10500084D01*
X16777930Y-10500084D02*
X16816025Y-10500084D01*
X16816025Y-10500084D02*
X16835073Y-10490560D01*
X16835073Y-10490560D02*
X16844596Y-10471512D01*
X16844596Y-10471512D02*
X16844596Y-10461989D01*
X16844596Y-10461989D02*
X16835073Y-10442941D01*
X16835073Y-10442941D02*
X16816025Y-10433417D01*
X16816025Y-10433417D02*
X16787453Y-10433417D01*
X16787453Y-10433417D02*
X16768406Y-10423893D01*
X16768406Y-10423893D02*
X16758882Y-10404846D01*
X16758882Y-10404846D02*
X16758882Y-10395322D01*
X16758882Y-10395322D02*
X16768406Y-10376274D01*
X16768406Y-10376274D02*
X16787453Y-10366750D01*
X16787453Y-10366750D02*
X16816025Y-10366750D01*
X16816025Y-10366750D02*
X16835073Y-10376274D01*
X16911263Y-10576274D02*
X16920787Y-10566750D01*
X16920787Y-10566750D02*
X16939834Y-10538179D01*
X16939834Y-10538179D02*
X16949358Y-10519131D01*
X16949358Y-10519131D02*
X16958882Y-10490560D01*
X16958882Y-10490560D02*
X16968406Y-10442941D01*
X16968406Y-10442941D02*
X16968406Y-10404846D01*
X16968406Y-10404846D02*
X16958882Y-10357227D01*
X16958882Y-10357227D02*
X16949358Y-10328655D01*
X16949358Y-10328655D02*
X16939834Y-10309608D01*
X16939834Y-10309608D02*
X16920787Y-10281036D01*
X16920787Y-10281036D02*
X16911263Y-10271512D01*
M02*
