%TF.GenerationSoftware,KiCad,Pcbnew,7.0.6-7.0.6~ubuntu22.04.1*%
%TF.CreationDate,2023-08-07T17:02:52+02:00*%
%TF.ProjectId,SHT45,53485434-352e-46b6-9963-61645f706362,rev?*%
%TF.SameCoordinates,Original*%
%TF.FileFunction,Drillmap*%
%TF.FilePolarity,Positive*%
%FSLAX45Y45*%
G04 Gerber Fmt 4.5, Leading zero omitted, Abs format (unit mm)*
G04 Created by KiCad (PCBNEW 7.0.6-7.0.6~ubuntu22.04.1) date 2023-08-07 17:02:52*
%MOMM*%
%LPD*%
G01*
G04 APERTURE LIST*
%ADD10C,0.100000*%
%ADD11C,0.200000*%
G04 APERTURE END LIST*
D10*
X13651792Y-9321800D02*
G75*
G03*
X13651792Y-9321800I-56796J0D01*
G01*
X13658496Y-8991600D02*
G75*
G03*
X13658496Y-8991600I-56796J0D01*
G01*
X13493396Y-9321800D02*
G75*
G03*
X13493396Y-9321800I-56796J0D01*
G01*
X13340996Y-9321800D02*
G75*
G03*
X13340996Y-9321800I-56796J0D01*
G01*
X13188596Y-9321800D02*
G75*
G03*
X13188596Y-9321800I-56796J0D01*
G01*
X13500100Y-8991600D02*
G75*
G03*
X13500100Y-8991600I-56796J0D01*
G01*
X13347700Y-8991600D02*
G75*
G03*
X13347700Y-8991600I-56796J0D01*
G01*
X13201296Y-8991600D02*
G75*
G03*
X13201296Y-8991600I-56796J0D01*
G01*
X12141200Y-8191500D02*
X14249400Y-8191500D01*
X14249400Y-9499600D01*
X12141200Y-9499600D01*
X12141200Y-8191500D01*
D11*
X12396977Y-9816084D02*
X12396977Y-9616084D01*
X12396977Y-9616084D02*
X12444596Y-9616084D01*
X12444596Y-9616084D02*
X12473167Y-9625608D01*
X12473167Y-9625608D02*
X12492215Y-9644655D01*
X12492215Y-9644655D02*
X12501739Y-9663703D01*
X12501739Y-9663703D02*
X12511262Y-9701798D01*
X12511262Y-9701798D02*
X12511262Y-9730370D01*
X12511262Y-9730370D02*
X12501739Y-9768465D01*
X12501739Y-9768465D02*
X12492215Y-9787512D01*
X12492215Y-9787512D02*
X12473167Y-9806560D01*
X12473167Y-9806560D02*
X12444596Y-9816084D01*
X12444596Y-9816084D02*
X12396977Y-9816084D01*
X12596977Y-9816084D02*
X12596977Y-9682750D01*
X12596977Y-9720846D02*
X12606501Y-9701798D01*
X12606501Y-9701798D02*
X12616024Y-9692274D01*
X12616024Y-9692274D02*
X12635072Y-9682750D01*
X12635072Y-9682750D02*
X12654120Y-9682750D01*
X12720786Y-9816084D02*
X12720786Y-9682750D01*
X12720786Y-9616084D02*
X12711262Y-9625608D01*
X12711262Y-9625608D02*
X12720786Y-9635131D01*
X12720786Y-9635131D02*
X12730310Y-9625608D01*
X12730310Y-9625608D02*
X12720786Y-9616084D01*
X12720786Y-9616084D02*
X12720786Y-9635131D01*
X12844596Y-9816084D02*
X12825548Y-9806560D01*
X12825548Y-9806560D02*
X12816024Y-9787512D01*
X12816024Y-9787512D02*
X12816024Y-9616084D01*
X12949358Y-9816084D02*
X12930310Y-9806560D01*
X12930310Y-9806560D02*
X12920786Y-9787512D01*
X12920786Y-9787512D02*
X12920786Y-9616084D01*
X13177929Y-9816084D02*
X13177929Y-9616084D01*
X13177929Y-9616084D02*
X13244596Y-9758941D01*
X13244596Y-9758941D02*
X13311262Y-9616084D01*
X13311262Y-9616084D02*
X13311262Y-9816084D01*
X13492215Y-9816084D02*
X13492215Y-9711322D01*
X13492215Y-9711322D02*
X13482691Y-9692274D01*
X13482691Y-9692274D02*
X13463643Y-9682750D01*
X13463643Y-9682750D02*
X13425548Y-9682750D01*
X13425548Y-9682750D02*
X13406501Y-9692274D01*
X13492215Y-9806560D02*
X13473167Y-9816084D01*
X13473167Y-9816084D02*
X13425548Y-9816084D01*
X13425548Y-9816084D02*
X13406501Y-9806560D01*
X13406501Y-9806560D02*
X13396977Y-9787512D01*
X13396977Y-9787512D02*
X13396977Y-9768465D01*
X13396977Y-9768465D02*
X13406501Y-9749417D01*
X13406501Y-9749417D02*
X13425548Y-9739893D01*
X13425548Y-9739893D02*
X13473167Y-9739893D01*
X13473167Y-9739893D02*
X13492215Y-9730370D01*
X13587453Y-9682750D02*
X13587453Y-9882750D01*
X13587453Y-9692274D02*
X13606501Y-9682750D01*
X13606501Y-9682750D02*
X13644596Y-9682750D01*
X13644596Y-9682750D02*
X13663643Y-9692274D01*
X13663643Y-9692274D02*
X13673167Y-9701798D01*
X13673167Y-9701798D02*
X13682691Y-9720846D01*
X13682691Y-9720846D02*
X13682691Y-9777989D01*
X13682691Y-9777989D02*
X13673167Y-9797036D01*
X13673167Y-9797036D02*
X13663643Y-9806560D01*
X13663643Y-9806560D02*
X13644596Y-9816084D01*
X13644596Y-9816084D02*
X13606501Y-9816084D01*
X13606501Y-9816084D02*
X13587453Y-9806560D01*
X13768405Y-9797036D02*
X13777929Y-9806560D01*
X13777929Y-9806560D02*
X13768405Y-9816084D01*
X13768405Y-9816084D02*
X13758882Y-9806560D01*
X13758882Y-9806560D02*
X13768405Y-9797036D01*
X13768405Y-9797036D02*
X13768405Y-9816084D01*
X13768405Y-9692274D02*
X13777929Y-9701798D01*
X13777929Y-9701798D02*
X13768405Y-9711322D01*
X13768405Y-9711322D02*
X13758882Y-9701798D01*
X13758882Y-9701798D02*
X13768405Y-9692274D01*
X13768405Y-9692274D02*
X13768405Y-9711322D01*
M02*
