%TF.GenerationSoftware,KiCad,Pcbnew,7.0.6-7.0.6~ubuntu22.04.1*%
%TF.CreationDate,2023-08-14T10:47:39+02:00*%
%TF.ProjectId,SHT45,53485434-352e-46b6-9963-61645f706362,rev?*%
%TF.SameCoordinates,Original*%
%TF.FileFunction,Legend,Bot*%
%TF.FilePolarity,Positive*%
%FSLAX46Y46*%
G04 Gerber Fmt 4.6, Leading zero omitted, Abs format (unit mm)*
G04 Created by KiCad (PCBNEW 7.0.6-7.0.6~ubuntu22.04.1) date 2023-08-14 10:47:39*
%MOMM*%
%LPD*%
G01*
G04 APERTURE LIST*
%ADD10C,0.150000*%
G04 APERTURE END LIST*
D10*
X153587220Y-81048009D02*
X153253887Y-81048009D01*
X153111030Y-81571819D02*
X153587220Y-81571819D01*
X153587220Y-81571819D02*
X153587220Y-80571819D01*
X153587220Y-80571819D02*
X153111030Y-80571819D01*
X152253887Y-81524200D02*
X152349125Y-81571819D01*
X152349125Y-81571819D02*
X152539601Y-81571819D01*
X152539601Y-81571819D02*
X152634839Y-81524200D01*
X152634839Y-81524200D02*
X152682458Y-81476580D01*
X152682458Y-81476580D02*
X152730077Y-81381342D01*
X152730077Y-81381342D02*
X152730077Y-81095628D01*
X152730077Y-81095628D02*
X152682458Y-81000390D01*
X152682458Y-81000390D02*
X152634839Y-80952771D01*
X152634839Y-80952771D02*
X152539601Y-80905152D01*
X152539601Y-80905152D02*
X152349125Y-80905152D01*
X152349125Y-80905152D02*
X152253887Y-80952771D01*
X151682458Y-81571819D02*
X151777696Y-81524200D01*
X151777696Y-81524200D02*
X151825315Y-81476580D01*
X151825315Y-81476580D02*
X151872934Y-81381342D01*
X151872934Y-81381342D02*
X151872934Y-81095628D01*
X151872934Y-81095628D02*
X151825315Y-81000390D01*
X151825315Y-81000390D02*
X151777696Y-80952771D01*
X151777696Y-80952771D02*
X151682458Y-80905152D01*
X151682458Y-80905152D02*
X151539601Y-80905152D01*
X151539601Y-80905152D02*
X151444363Y-80952771D01*
X151444363Y-80952771D02*
X151396744Y-81000390D01*
X151396744Y-81000390D02*
X151349125Y-81095628D01*
X151349125Y-81095628D02*
X151349125Y-81381342D01*
X151349125Y-81381342D02*
X151396744Y-81476580D01*
X151396744Y-81476580D02*
X151444363Y-81524200D01*
X151444363Y-81524200D02*
X151539601Y-81571819D01*
X151539601Y-81571819D02*
X151682458Y-81571819D01*
X150111029Y-81571819D02*
X150158649Y-81571819D01*
X150158649Y-81571819D02*
X150253887Y-81524200D01*
X150253887Y-81524200D02*
X150396744Y-81381342D01*
X150396744Y-81381342D02*
X150634839Y-81095628D01*
X150634839Y-81095628D02*
X150730077Y-80952771D01*
X150730077Y-80952771D02*
X150777696Y-80809914D01*
X150777696Y-80809914D02*
X150777696Y-80714676D01*
X150777696Y-80714676D02*
X150730077Y-80619438D01*
X150730077Y-80619438D02*
X150634839Y-80571819D01*
X150634839Y-80571819D02*
X150587220Y-80571819D01*
X150587220Y-80571819D02*
X150491982Y-80619438D01*
X150491982Y-80619438D02*
X150444363Y-80714676D01*
X150444363Y-80714676D02*
X150444363Y-80762295D01*
X150444363Y-80762295D02*
X150491982Y-80857533D01*
X150491982Y-80857533D02*
X150539601Y-80905152D01*
X150539601Y-80905152D02*
X150825315Y-81095628D01*
X150825315Y-81095628D02*
X150872934Y-81143247D01*
X150872934Y-81143247D02*
X150920553Y-81238485D01*
X150920553Y-81238485D02*
X150920553Y-81381342D01*
X150920553Y-81381342D02*
X150872934Y-81476580D01*
X150872934Y-81476580D02*
X150825315Y-81524200D01*
X150825315Y-81524200D02*
X150730077Y-81571819D01*
X150730077Y-81571819D02*
X150587220Y-81571819D01*
X150587220Y-81571819D02*
X150491982Y-81524200D01*
X150491982Y-81524200D02*
X150444363Y-81476580D01*
X150444363Y-81476580D02*
X150301506Y-81286104D01*
X150301506Y-81286104D02*
X150253887Y-81143247D01*
X150253887Y-81143247D02*
X150253887Y-81048009D01*
X149730077Y-81524200D02*
X149587220Y-81571819D01*
X149587220Y-81571819D02*
X149349125Y-81571819D01*
X149349125Y-81571819D02*
X149253887Y-81524200D01*
X149253887Y-81524200D02*
X149206268Y-81476580D01*
X149206268Y-81476580D02*
X149158649Y-81381342D01*
X149158649Y-81381342D02*
X149158649Y-81286104D01*
X149158649Y-81286104D02*
X149206268Y-81190866D01*
X149206268Y-81190866D02*
X149253887Y-81143247D01*
X149253887Y-81143247D02*
X149349125Y-81095628D01*
X149349125Y-81095628D02*
X149539601Y-81048009D01*
X149539601Y-81048009D02*
X149634839Y-81000390D01*
X149634839Y-81000390D02*
X149682458Y-80952771D01*
X149682458Y-80952771D02*
X149730077Y-80857533D01*
X149730077Y-80857533D02*
X149730077Y-80762295D01*
X149730077Y-80762295D02*
X149682458Y-80667057D01*
X149682458Y-80667057D02*
X149634839Y-80619438D01*
X149634839Y-80619438D02*
X149539601Y-80571819D01*
X149539601Y-80571819D02*
X149301506Y-80571819D01*
X149301506Y-80571819D02*
X149158649Y-80619438D01*
X148587220Y-81571819D02*
X148682458Y-81524200D01*
X148682458Y-81524200D02*
X148730077Y-81476580D01*
X148730077Y-81476580D02*
X148777696Y-81381342D01*
X148777696Y-81381342D02*
X148777696Y-81095628D01*
X148777696Y-81095628D02*
X148730077Y-81000390D01*
X148730077Y-81000390D02*
X148682458Y-80952771D01*
X148682458Y-80952771D02*
X148587220Y-80905152D01*
X148587220Y-80905152D02*
X148444363Y-80905152D01*
X148444363Y-80905152D02*
X148349125Y-80952771D01*
X148349125Y-80952771D02*
X148301506Y-81000390D01*
X148301506Y-81000390D02*
X148253887Y-81095628D01*
X148253887Y-81095628D02*
X148253887Y-81381342D01*
X148253887Y-81381342D02*
X148301506Y-81476580D01*
X148301506Y-81476580D02*
X148349125Y-81524200D01*
X148349125Y-81524200D02*
X148444363Y-81571819D01*
X148444363Y-81571819D02*
X148587220Y-81571819D01*
X147682458Y-81571819D02*
X147777696Y-81524200D01*
X147777696Y-81524200D02*
X147825315Y-81428961D01*
X147825315Y-81428961D02*
X147825315Y-80571819D01*
X147349124Y-81524200D02*
X147253886Y-81571819D01*
X147253886Y-81571819D02*
X147063410Y-81571819D01*
X147063410Y-81571819D02*
X146968172Y-81524200D01*
X146968172Y-81524200D02*
X146920553Y-81428961D01*
X146920553Y-81428961D02*
X146920553Y-81381342D01*
X146920553Y-81381342D02*
X146968172Y-81286104D01*
X146968172Y-81286104D02*
X147063410Y-81238485D01*
X147063410Y-81238485D02*
X147206267Y-81238485D01*
X147206267Y-81238485D02*
X147301505Y-81190866D01*
X147301505Y-81190866D02*
X147349124Y-81095628D01*
X147349124Y-81095628D02*
X147349124Y-81048009D01*
X147349124Y-81048009D02*
X147301505Y-80952771D01*
X147301505Y-80952771D02*
X147206267Y-80905152D01*
X147206267Y-80905152D02*
X147063410Y-80905152D01*
X147063410Y-80905152D02*
X146968172Y-80952771D01*
X145872933Y-80571819D02*
X145301505Y-80571819D01*
X145587219Y-81571819D02*
X145587219Y-80571819D01*
X144587219Y-81524200D02*
X144682457Y-81571819D01*
X144682457Y-81571819D02*
X144872933Y-81571819D01*
X144872933Y-81571819D02*
X144968171Y-81524200D01*
X144968171Y-81524200D02*
X145015790Y-81428961D01*
X145015790Y-81428961D02*
X145015790Y-81048009D01*
X145015790Y-81048009D02*
X144968171Y-80952771D01*
X144968171Y-80952771D02*
X144872933Y-80905152D01*
X144872933Y-80905152D02*
X144682457Y-80905152D01*
X144682457Y-80905152D02*
X144587219Y-80952771D01*
X144587219Y-80952771D02*
X144539600Y-81048009D01*
X144539600Y-81048009D02*
X144539600Y-81143247D01*
X144539600Y-81143247D02*
X145015790Y-81238485D01*
X144111028Y-81571819D02*
X144111028Y-80905152D01*
X144111028Y-81000390D02*
X144063409Y-80952771D01*
X144063409Y-80952771D02*
X143968171Y-80905152D01*
X143968171Y-80905152D02*
X143825314Y-80905152D01*
X143825314Y-80905152D02*
X143730076Y-80952771D01*
X143730076Y-80952771D02*
X143682457Y-81048009D01*
X143682457Y-81048009D02*
X143682457Y-81571819D01*
X143682457Y-81048009D02*
X143634838Y-80952771D01*
X143634838Y-80952771D02*
X143539600Y-80905152D01*
X143539600Y-80905152D02*
X143396743Y-80905152D01*
X143396743Y-80905152D02*
X143301504Y-80952771D01*
X143301504Y-80952771D02*
X143253885Y-81048009D01*
X143253885Y-81048009D02*
X143253885Y-81571819D01*
X142777695Y-80905152D02*
X142777695Y-81905152D01*
X142777695Y-80952771D02*
X142682457Y-80905152D01*
X142682457Y-80905152D02*
X142491981Y-80905152D01*
X142491981Y-80905152D02*
X142396743Y-80952771D01*
X142396743Y-80952771D02*
X142349124Y-81000390D01*
X142349124Y-81000390D02*
X142301505Y-81095628D01*
X142301505Y-81095628D02*
X142301505Y-81381342D01*
X142301505Y-81381342D02*
X142349124Y-81476580D01*
X142349124Y-81476580D02*
X142396743Y-81524200D01*
X142396743Y-81524200D02*
X142491981Y-81571819D01*
X142491981Y-81571819D02*
X142682457Y-81571819D01*
X142682457Y-81571819D02*
X142777695Y-81524200D01*
X141491981Y-81524200D02*
X141587219Y-81571819D01*
X141587219Y-81571819D02*
X141777695Y-81571819D01*
X141777695Y-81571819D02*
X141872933Y-81524200D01*
X141872933Y-81524200D02*
X141920552Y-81428961D01*
X141920552Y-81428961D02*
X141920552Y-81048009D01*
X141920552Y-81048009D02*
X141872933Y-80952771D01*
X141872933Y-80952771D02*
X141777695Y-80905152D01*
X141777695Y-80905152D02*
X141587219Y-80905152D01*
X141587219Y-80905152D02*
X141491981Y-80952771D01*
X141491981Y-80952771D02*
X141444362Y-81048009D01*
X141444362Y-81048009D02*
X141444362Y-81143247D01*
X141444362Y-81143247D02*
X141920552Y-81238485D01*
X141015790Y-81571819D02*
X141015790Y-80905152D01*
X141015790Y-81095628D02*
X140968171Y-81000390D01*
X140968171Y-81000390D02*
X140920552Y-80952771D01*
X140920552Y-80952771D02*
X140825314Y-80905152D01*
X140825314Y-80905152D02*
X140730076Y-80905152D01*
X139968171Y-81571819D02*
X139968171Y-81048009D01*
X139968171Y-81048009D02*
X140015790Y-80952771D01*
X140015790Y-80952771D02*
X140111028Y-80905152D01*
X140111028Y-80905152D02*
X140301504Y-80905152D01*
X140301504Y-80905152D02*
X140396742Y-80952771D01*
X139968171Y-81524200D02*
X140063409Y-81571819D01*
X140063409Y-81571819D02*
X140301504Y-81571819D01*
X140301504Y-81571819D02*
X140396742Y-81524200D01*
X140396742Y-81524200D02*
X140444361Y-81428961D01*
X140444361Y-81428961D02*
X140444361Y-81333723D01*
X140444361Y-81333723D02*
X140396742Y-81238485D01*
X140396742Y-81238485D02*
X140301504Y-81190866D01*
X140301504Y-81190866D02*
X140063409Y-81190866D01*
X140063409Y-81190866D02*
X139968171Y-81143247D01*
X139634837Y-80905152D02*
X139253885Y-80905152D01*
X139491980Y-80571819D02*
X139491980Y-81428961D01*
X139491980Y-81428961D02*
X139444361Y-81524200D01*
X139444361Y-81524200D02*
X139349123Y-81571819D01*
X139349123Y-81571819D02*
X139253885Y-81571819D01*
X138491980Y-80905152D02*
X138491980Y-81571819D01*
X138920551Y-80905152D02*
X138920551Y-81428961D01*
X138920551Y-81428961D02*
X138872932Y-81524200D01*
X138872932Y-81524200D02*
X138777694Y-81571819D01*
X138777694Y-81571819D02*
X138634837Y-81571819D01*
X138634837Y-81571819D02*
X138539599Y-81524200D01*
X138539599Y-81524200D02*
X138491980Y-81476580D01*
X138015789Y-81571819D02*
X138015789Y-80905152D01*
X138015789Y-81095628D02*
X137968170Y-81000390D01*
X137968170Y-81000390D02*
X137920551Y-80952771D01*
X137920551Y-80952771D02*
X137825313Y-80905152D01*
X137825313Y-80905152D02*
X137730075Y-80905152D01*
X137015789Y-81524200D02*
X137111027Y-81571819D01*
X137111027Y-81571819D02*
X137301503Y-81571819D01*
X137301503Y-81571819D02*
X137396741Y-81524200D01*
X137396741Y-81524200D02*
X137444360Y-81428961D01*
X137444360Y-81428961D02*
X137444360Y-81048009D01*
X137444360Y-81048009D02*
X137396741Y-80952771D01*
X137396741Y-80952771D02*
X137301503Y-80905152D01*
X137301503Y-80905152D02*
X137111027Y-80905152D01*
X137111027Y-80905152D02*
X137015789Y-80952771D01*
X137015789Y-80952771D02*
X136968170Y-81048009D01*
X136968170Y-81048009D02*
X136968170Y-81143247D01*
X136968170Y-81143247D02*
X137444360Y-81238485D01*
X135349122Y-81571819D02*
X135349122Y-81048009D01*
X135349122Y-81048009D02*
X135396741Y-80952771D01*
X135396741Y-80952771D02*
X135491979Y-80905152D01*
X135491979Y-80905152D02*
X135682455Y-80905152D01*
X135682455Y-80905152D02*
X135777693Y-80952771D01*
X135349122Y-81524200D02*
X135444360Y-81571819D01*
X135444360Y-81571819D02*
X135682455Y-81571819D01*
X135682455Y-81571819D02*
X135777693Y-81524200D01*
X135777693Y-81524200D02*
X135825312Y-81428961D01*
X135825312Y-81428961D02*
X135825312Y-81333723D01*
X135825312Y-81333723D02*
X135777693Y-81238485D01*
X135777693Y-81238485D02*
X135682455Y-81190866D01*
X135682455Y-81190866D02*
X135444360Y-81190866D01*
X135444360Y-81190866D02*
X135349122Y-81143247D01*
X134872931Y-80905152D02*
X134872931Y-81571819D01*
X134872931Y-81000390D02*
X134825312Y-80952771D01*
X134825312Y-80952771D02*
X134730074Y-80905152D01*
X134730074Y-80905152D02*
X134587217Y-80905152D01*
X134587217Y-80905152D02*
X134491979Y-80952771D01*
X134491979Y-80952771D02*
X134444360Y-81048009D01*
X134444360Y-81048009D02*
X134444360Y-81571819D01*
X133539598Y-81571819D02*
X133539598Y-80571819D01*
X133539598Y-81524200D02*
X133634836Y-81571819D01*
X133634836Y-81571819D02*
X133825312Y-81571819D01*
X133825312Y-81571819D02*
X133920550Y-81524200D01*
X133920550Y-81524200D02*
X133968169Y-81476580D01*
X133968169Y-81476580D02*
X134015788Y-81381342D01*
X134015788Y-81381342D02*
X134015788Y-81095628D01*
X134015788Y-81095628D02*
X133968169Y-81000390D01*
X133968169Y-81000390D02*
X133920550Y-80952771D01*
X133920550Y-80952771D02*
X133825312Y-80905152D01*
X133825312Y-80905152D02*
X133634836Y-80905152D01*
X133634836Y-80905152D02*
X133539598Y-80952771D01*
X153587220Y-83181819D02*
X153587220Y-82181819D01*
X153587220Y-82658009D02*
X153015792Y-82658009D01*
X153015792Y-83181819D02*
X153015792Y-82181819D01*
X152111030Y-82515152D02*
X152111030Y-83181819D01*
X152539601Y-82515152D02*
X152539601Y-83038961D01*
X152539601Y-83038961D02*
X152491982Y-83134200D01*
X152491982Y-83134200D02*
X152396744Y-83181819D01*
X152396744Y-83181819D02*
X152253887Y-83181819D01*
X152253887Y-83181819D02*
X152158649Y-83134200D01*
X152158649Y-83134200D02*
X152111030Y-83086580D01*
X151634839Y-83181819D02*
X151634839Y-82515152D01*
X151634839Y-82610390D02*
X151587220Y-82562771D01*
X151587220Y-82562771D02*
X151491982Y-82515152D01*
X151491982Y-82515152D02*
X151349125Y-82515152D01*
X151349125Y-82515152D02*
X151253887Y-82562771D01*
X151253887Y-82562771D02*
X151206268Y-82658009D01*
X151206268Y-82658009D02*
X151206268Y-83181819D01*
X151206268Y-82658009D02*
X151158649Y-82562771D01*
X151158649Y-82562771D02*
X151063411Y-82515152D01*
X151063411Y-82515152D02*
X150920554Y-82515152D01*
X150920554Y-82515152D02*
X150825315Y-82562771D01*
X150825315Y-82562771D02*
X150777696Y-82658009D01*
X150777696Y-82658009D02*
X150777696Y-83181819D01*
X150301506Y-83181819D02*
X150301506Y-82515152D01*
X150301506Y-82181819D02*
X150349125Y-82229438D01*
X150349125Y-82229438D02*
X150301506Y-82277057D01*
X150301506Y-82277057D02*
X150253887Y-82229438D01*
X150253887Y-82229438D02*
X150301506Y-82181819D01*
X150301506Y-82181819D02*
X150301506Y-82277057D01*
X149396745Y-83181819D02*
X149396745Y-82181819D01*
X149396745Y-83134200D02*
X149491983Y-83181819D01*
X149491983Y-83181819D02*
X149682459Y-83181819D01*
X149682459Y-83181819D02*
X149777697Y-83134200D01*
X149777697Y-83134200D02*
X149825316Y-83086580D01*
X149825316Y-83086580D02*
X149872935Y-82991342D01*
X149872935Y-82991342D02*
X149872935Y-82705628D01*
X149872935Y-82705628D02*
X149825316Y-82610390D01*
X149825316Y-82610390D02*
X149777697Y-82562771D01*
X149777697Y-82562771D02*
X149682459Y-82515152D01*
X149682459Y-82515152D02*
X149491983Y-82515152D01*
X149491983Y-82515152D02*
X149396745Y-82562771D01*
X148920554Y-83181819D02*
X148920554Y-82515152D01*
X148920554Y-82181819D02*
X148968173Y-82229438D01*
X148968173Y-82229438D02*
X148920554Y-82277057D01*
X148920554Y-82277057D02*
X148872935Y-82229438D01*
X148872935Y-82229438D02*
X148920554Y-82181819D01*
X148920554Y-82181819D02*
X148920554Y-82277057D01*
X148587221Y-82515152D02*
X148206269Y-82515152D01*
X148444364Y-82181819D02*
X148444364Y-83038961D01*
X148444364Y-83038961D02*
X148396745Y-83134200D01*
X148396745Y-83134200D02*
X148301507Y-83181819D01*
X148301507Y-83181819D02*
X148206269Y-83181819D01*
X147968173Y-82515152D02*
X147730078Y-83181819D01*
X147491983Y-82515152D02*
X147730078Y-83181819D01*
X147730078Y-83181819D02*
X147825316Y-83419914D01*
X147825316Y-83419914D02*
X147872935Y-83467533D01*
X147872935Y-83467533D02*
X147968173Y-83515152D01*
X146396744Y-83134200D02*
X146301506Y-83181819D01*
X146301506Y-83181819D02*
X146111030Y-83181819D01*
X146111030Y-83181819D02*
X146015792Y-83134200D01*
X146015792Y-83134200D02*
X145968173Y-83038961D01*
X145968173Y-83038961D02*
X145968173Y-82991342D01*
X145968173Y-82991342D02*
X146015792Y-82896104D01*
X146015792Y-82896104D02*
X146111030Y-82848485D01*
X146111030Y-82848485D02*
X146253887Y-82848485D01*
X146253887Y-82848485D02*
X146349125Y-82800866D01*
X146349125Y-82800866D02*
X146396744Y-82705628D01*
X146396744Y-82705628D02*
X146396744Y-82658009D01*
X146396744Y-82658009D02*
X146349125Y-82562771D01*
X146349125Y-82562771D02*
X146253887Y-82515152D01*
X146253887Y-82515152D02*
X146111030Y-82515152D01*
X146111030Y-82515152D02*
X146015792Y-82562771D01*
X145158649Y-83134200D02*
X145253887Y-83181819D01*
X145253887Y-83181819D02*
X145444363Y-83181819D01*
X145444363Y-83181819D02*
X145539601Y-83134200D01*
X145539601Y-83134200D02*
X145587220Y-83038961D01*
X145587220Y-83038961D02*
X145587220Y-82658009D01*
X145587220Y-82658009D02*
X145539601Y-82562771D01*
X145539601Y-82562771D02*
X145444363Y-82515152D01*
X145444363Y-82515152D02*
X145253887Y-82515152D01*
X145253887Y-82515152D02*
X145158649Y-82562771D01*
X145158649Y-82562771D02*
X145111030Y-82658009D01*
X145111030Y-82658009D02*
X145111030Y-82753247D01*
X145111030Y-82753247D02*
X145587220Y-82848485D01*
X144682458Y-82515152D02*
X144682458Y-83181819D01*
X144682458Y-82610390D02*
X144634839Y-82562771D01*
X144634839Y-82562771D02*
X144539601Y-82515152D01*
X144539601Y-82515152D02*
X144396744Y-82515152D01*
X144396744Y-82515152D02*
X144301506Y-82562771D01*
X144301506Y-82562771D02*
X144253887Y-82658009D01*
X144253887Y-82658009D02*
X144253887Y-83181819D01*
X143825315Y-83134200D02*
X143730077Y-83181819D01*
X143730077Y-83181819D02*
X143539601Y-83181819D01*
X143539601Y-83181819D02*
X143444363Y-83134200D01*
X143444363Y-83134200D02*
X143396744Y-83038961D01*
X143396744Y-83038961D02*
X143396744Y-82991342D01*
X143396744Y-82991342D02*
X143444363Y-82896104D01*
X143444363Y-82896104D02*
X143539601Y-82848485D01*
X143539601Y-82848485D02*
X143682458Y-82848485D01*
X143682458Y-82848485D02*
X143777696Y-82800866D01*
X143777696Y-82800866D02*
X143825315Y-82705628D01*
X143825315Y-82705628D02*
X143825315Y-82658009D01*
X143825315Y-82658009D02*
X143777696Y-82562771D01*
X143777696Y-82562771D02*
X143682458Y-82515152D01*
X143682458Y-82515152D02*
X143539601Y-82515152D01*
X143539601Y-82515152D02*
X143444363Y-82562771D01*
X142825315Y-83181819D02*
X142920553Y-83134200D01*
X142920553Y-83134200D02*
X142968172Y-83086580D01*
X142968172Y-83086580D02*
X143015791Y-82991342D01*
X143015791Y-82991342D02*
X143015791Y-82705628D01*
X143015791Y-82705628D02*
X142968172Y-82610390D01*
X142968172Y-82610390D02*
X142920553Y-82562771D01*
X142920553Y-82562771D02*
X142825315Y-82515152D01*
X142825315Y-82515152D02*
X142682458Y-82515152D01*
X142682458Y-82515152D02*
X142587220Y-82562771D01*
X142587220Y-82562771D02*
X142539601Y-82610390D01*
X142539601Y-82610390D02*
X142491982Y-82705628D01*
X142491982Y-82705628D02*
X142491982Y-82991342D01*
X142491982Y-82991342D02*
X142539601Y-83086580D01*
X142539601Y-83086580D02*
X142587220Y-83134200D01*
X142587220Y-83134200D02*
X142682458Y-83181819D01*
X142682458Y-83181819D02*
X142825315Y-83181819D01*
X142063410Y-83181819D02*
X142063410Y-82515152D01*
X142063410Y-82705628D02*
X142015791Y-82610390D01*
X142015791Y-82610390D02*
X141968172Y-82562771D01*
X141968172Y-82562771D02*
X141872934Y-82515152D01*
X141872934Y-82515152D02*
X141777696Y-82515152D01*
X140777695Y-82515152D02*
X140539600Y-83181819D01*
X140539600Y-83181819D02*
X140301505Y-82515152D01*
X139396743Y-83181819D02*
X139968171Y-83181819D01*
X139682457Y-83181819D02*
X139682457Y-82181819D01*
X139682457Y-82181819D02*
X139777695Y-82324676D01*
X139777695Y-82324676D02*
X139872933Y-82419914D01*
X139872933Y-82419914D02*
X139968171Y-82467533D01*
M02*
