%TF.GenerationSoftware,KiCad,Pcbnew,7.0.6-7.0.6~ubuntu22.04.1*%
%TF.CreationDate,2023-08-14T10:47:36+02:00*%
%TF.ProjectId,SHT45,53485434-352e-46b6-9963-61645f706362,rev?*%
%TF.SameCoordinates,Original*%
%TF.FileFunction,Drillmap*%
%TF.FilePolarity,Positive*%
%FSLAX45Y45*%
G04 Gerber Fmt 4.5, Leading zero omitted, Abs format (unit mm)*
G04 Created by KiCad (PCBNEW 7.0.6-7.0.6~ubuntu22.04.1) date 2023-08-14 10:47:36*
%MOMM*%
%LPD*%
G01*
G04 APERTURE LIST*
%ADD10C,0.100000*%
%ADD11C,0.200000*%
G04 APERTURE END LIST*
D10*
X14351000Y-7899400D02*
X14478000Y-7899400D01*
X14554200Y-7975600D01*
X16256000Y-7975600D01*
X16256000Y-8585200D01*
X14605000Y-8585200D01*
X14528800Y-8661400D01*
X14376400Y-8661400D01*
X14376400Y-8915400D01*
X12344400Y-8915400D01*
X12344400Y-7569200D01*
X14351000Y-7569200D01*
X14351000Y-7899400D01*
D11*
X12600177Y-9231884D02*
X12600177Y-9031884D01*
X12600177Y-9031884D02*
X12647796Y-9031884D01*
X12647796Y-9031884D02*
X12676367Y-9041408D01*
X12676367Y-9041408D02*
X12695415Y-9060455D01*
X12695415Y-9060455D02*
X12704939Y-9079503D01*
X12704939Y-9079503D02*
X12714462Y-9117598D01*
X12714462Y-9117598D02*
X12714462Y-9146170D01*
X12714462Y-9146170D02*
X12704939Y-9184265D01*
X12704939Y-9184265D02*
X12695415Y-9203312D01*
X12695415Y-9203312D02*
X12676367Y-9222360D01*
X12676367Y-9222360D02*
X12647796Y-9231884D01*
X12647796Y-9231884D02*
X12600177Y-9231884D01*
X12800177Y-9231884D02*
X12800177Y-9098550D01*
X12800177Y-9136646D02*
X12809701Y-9117598D01*
X12809701Y-9117598D02*
X12819224Y-9108074D01*
X12819224Y-9108074D02*
X12838272Y-9098550D01*
X12838272Y-9098550D02*
X12857320Y-9098550D01*
X12923986Y-9231884D02*
X12923986Y-9098550D01*
X12923986Y-9031884D02*
X12914462Y-9041408D01*
X12914462Y-9041408D02*
X12923986Y-9050931D01*
X12923986Y-9050931D02*
X12933510Y-9041408D01*
X12933510Y-9041408D02*
X12923986Y-9031884D01*
X12923986Y-9031884D02*
X12923986Y-9050931D01*
X13047796Y-9231884D02*
X13028748Y-9222360D01*
X13028748Y-9222360D02*
X13019224Y-9203312D01*
X13019224Y-9203312D02*
X13019224Y-9031884D01*
X13152558Y-9231884D02*
X13133510Y-9222360D01*
X13133510Y-9222360D02*
X13123986Y-9203312D01*
X13123986Y-9203312D02*
X13123986Y-9031884D01*
X13381129Y-9231884D02*
X13381129Y-9031884D01*
X13381129Y-9031884D02*
X13447796Y-9174741D01*
X13447796Y-9174741D02*
X13514462Y-9031884D01*
X13514462Y-9031884D02*
X13514462Y-9231884D01*
X13695415Y-9231884D02*
X13695415Y-9127122D01*
X13695415Y-9127122D02*
X13685891Y-9108074D01*
X13685891Y-9108074D02*
X13666843Y-9098550D01*
X13666843Y-9098550D02*
X13628748Y-9098550D01*
X13628748Y-9098550D02*
X13609701Y-9108074D01*
X13695415Y-9222360D02*
X13676367Y-9231884D01*
X13676367Y-9231884D02*
X13628748Y-9231884D01*
X13628748Y-9231884D02*
X13609701Y-9222360D01*
X13609701Y-9222360D02*
X13600177Y-9203312D01*
X13600177Y-9203312D02*
X13600177Y-9184265D01*
X13600177Y-9184265D02*
X13609701Y-9165217D01*
X13609701Y-9165217D02*
X13628748Y-9155693D01*
X13628748Y-9155693D02*
X13676367Y-9155693D01*
X13676367Y-9155693D02*
X13695415Y-9146170D01*
X13790653Y-9098550D02*
X13790653Y-9298550D01*
X13790653Y-9108074D02*
X13809701Y-9098550D01*
X13809701Y-9098550D02*
X13847796Y-9098550D01*
X13847796Y-9098550D02*
X13866843Y-9108074D01*
X13866843Y-9108074D02*
X13876367Y-9117598D01*
X13876367Y-9117598D02*
X13885891Y-9136646D01*
X13885891Y-9136646D02*
X13885891Y-9193789D01*
X13885891Y-9193789D02*
X13876367Y-9212836D01*
X13876367Y-9212836D02*
X13866843Y-9222360D01*
X13866843Y-9222360D02*
X13847796Y-9231884D01*
X13847796Y-9231884D02*
X13809701Y-9231884D01*
X13809701Y-9231884D02*
X13790653Y-9222360D01*
X13971605Y-9212836D02*
X13981129Y-9222360D01*
X13981129Y-9222360D02*
X13971605Y-9231884D01*
X13971605Y-9231884D02*
X13962082Y-9222360D01*
X13962082Y-9222360D02*
X13971605Y-9212836D01*
X13971605Y-9212836D02*
X13971605Y-9231884D01*
X13971605Y-9108074D02*
X13981129Y-9117598D01*
X13981129Y-9117598D02*
X13971605Y-9127122D01*
X13971605Y-9127122D02*
X13962082Y-9117598D01*
X13962082Y-9117598D02*
X13971605Y-9108074D01*
X13971605Y-9108074D02*
X13971605Y-9127122D01*
M02*
