%TF.GenerationSoftware,KiCad,Pcbnew,7.0.6-7.0.6~ubuntu22.04.1*%
%TF.CreationDate,2023-08-14T10:47:39+02:00*%
%TF.ProjectId,SHT45,53485434-352e-46b6-9963-61645f706362,rev?*%
%TF.SameCoordinates,Original*%
%TF.FileFunction,Legend,Top*%
%TF.FilePolarity,Positive*%
%FSLAX46Y46*%
G04 Gerber Fmt 4.6, Leading zero omitted, Abs format (unit mm)*
G04 Created by KiCad (PCBNEW 7.0.6-7.0.6~ubuntu22.04.1) date 2023-08-14 10:47:39*
%MOMM*%
%LPD*%
G01*
G04 APERTURE LIST*
%ADD10C,0.150000*%
%ADD11C,0.120000*%
G04 APERTURE END LIST*
D10*
X124164969Y-77834295D02*
X124660207Y-77834295D01*
X124660207Y-77834295D02*
X124393541Y-78139057D01*
X124393541Y-78139057D02*
X124507826Y-78139057D01*
X124507826Y-78139057D02*
X124584017Y-78177152D01*
X124584017Y-78177152D02*
X124622112Y-78215247D01*
X124622112Y-78215247D02*
X124660207Y-78291438D01*
X124660207Y-78291438D02*
X124660207Y-78481914D01*
X124660207Y-78481914D02*
X124622112Y-78558104D01*
X124622112Y-78558104D02*
X124584017Y-78596200D01*
X124584017Y-78596200D02*
X124507826Y-78634295D01*
X124507826Y-78634295D02*
X124279255Y-78634295D01*
X124279255Y-78634295D02*
X124203064Y-78596200D01*
X124203064Y-78596200D02*
X124164969Y-78558104D01*
X125003065Y-78558104D02*
X125041160Y-78596200D01*
X125041160Y-78596200D02*
X125003065Y-78634295D01*
X125003065Y-78634295D02*
X124964969Y-78596200D01*
X124964969Y-78596200D02*
X125003065Y-78558104D01*
X125003065Y-78558104D02*
X125003065Y-78634295D01*
X125307826Y-77834295D02*
X125803064Y-77834295D01*
X125803064Y-77834295D02*
X125536398Y-78139057D01*
X125536398Y-78139057D02*
X125650683Y-78139057D01*
X125650683Y-78139057D02*
X125726874Y-78177152D01*
X125726874Y-78177152D02*
X125764969Y-78215247D01*
X125764969Y-78215247D02*
X125803064Y-78291438D01*
X125803064Y-78291438D02*
X125803064Y-78481914D01*
X125803064Y-78481914D02*
X125764969Y-78558104D01*
X125764969Y-78558104D02*
X125726874Y-78596200D01*
X125726874Y-78596200D02*
X125650683Y-78634295D01*
X125650683Y-78634295D02*
X125422112Y-78634295D01*
X125422112Y-78634295D02*
X125345921Y-78596200D01*
X125345921Y-78596200D02*
X125307826Y-78558104D01*
X124203064Y-83676200D02*
X124317350Y-83714295D01*
X124317350Y-83714295D02*
X124507826Y-83714295D01*
X124507826Y-83714295D02*
X124584017Y-83676200D01*
X124584017Y-83676200D02*
X124622112Y-83638104D01*
X124622112Y-83638104D02*
X124660207Y-83561914D01*
X124660207Y-83561914D02*
X124660207Y-83485723D01*
X124660207Y-83485723D02*
X124622112Y-83409533D01*
X124622112Y-83409533D02*
X124584017Y-83371438D01*
X124584017Y-83371438D02*
X124507826Y-83333342D01*
X124507826Y-83333342D02*
X124355445Y-83295247D01*
X124355445Y-83295247D02*
X124279255Y-83257152D01*
X124279255Y-83257152D02*
X124241160Y-83219057D01*
X124241160Y-83219057D02*
X124203064Y-83142866D01*
X124203064Y-83142866D02*
X124203064Y-83066676D01*
X124203064Y-83066676D02*
X124241160Y-82990485D01*
X124241160Y-82990485D02*
X124279255Y-82952390D01*
X124279255Y-82952390D02*
X124355445Y-82914295D01*
X124355445Y-82914295D02*
X124545922Y-82914295D01*
X124545922Y-82914295D02*
X124660207Y-82952390D01*
X125003065Y-83714295D02*
X125003065Y-82914295D01*
X125003065Y-82914295D02*
X125193541Y-82914295D01*
X125193541Y-82914295D02*
X125307827Y-82952390D01*
X125307827Y-82952390D02*
X125384017Y-83028580D01*
X125384017Y-83028580D02*
X125422112Y-83104771D01*
X125422112Y-83104771D02*
X125460208Y-83257152D01*
X125460208Y-83257152D02*
X125460208Y-83371438D01*
X125460208Y-83371438D02*
X125422112Y-83523819D01*
X125422112Y-83523819D02*
X125384017Y-83600009D01*
X125384017Y-83600009D02*
X125307827Y-83676200D01*
X125307827Y-83676200D02*
X125193541Y-83714295D01*
X125193541Y-83714295D02*
X125003065Y-83714295D01*
X125764969Y-83485723D02*
X126145922Y-83485723D01*
X125688779Y-83714295D02*
X125955446Y-82914295D01*
X125955446Y-82914295D02*
X126222112Y-83714295D01*
X124203064Y-81390200D02*
X124317350Y-81428295D01*
X124317350Y-81428295D02*
X124507826Y-81428295D01*
X124507826Y-81428295D02*
X124584017Y-81390200D01*
X124584017Y-81390200D02*
X124622112Y-81352104D01*
X124622112Y-81352104D02*
X124660207Y-81275914D01*
X124660207Y-81275914D02*
X124660207Y-81199723D01*
X124660207Y-81199723D02*
X124622112Y-81123533D01*
X124622112Y-81123533D02*
X124584017Y-81085438D01*
X124584017Y-81085438D02*
X124507826Y-81047342D01*
X124507826Y-81047342D02*
X124355445Y-81009247D01*
X124355445Y-81009247D02*
X124279255Y-80971152D01*
X124279255Y-80971152D02*
X124241160Y-80933057D01*
X124241160Y-80933057D02*
X124203064Y-80856866D01*
X124203064Y-80856866D02*
X124203064Y-80780676D01*
X124203064Y-80780676D02*
X124241160Y-80704485D01*
X124241160Y-80704485D02*
X124279255Y-80666390D01*
X124279255Y-80666390D02*
X124355445Y-80628295D01*
X124355445Y-80628295D02*
X124545922Y-80628295D01*
X124545922Y-80628295D02*
X124660207Y-80666390D01*
X125460208Y-81352104D02*
X125422112Y-81390200D01*
X125422112Y-81390200D02*
X125307827Y-81428295D01*
X125307827Y-81428295D02*
X125231636Y-81428295D01*
X125231636Y-81428295D02*
X125117350Y-81390200D01*
X125117350Y-81390200D02*
X125041160Y-81314009D01*
X125041160Y-81314009D02*
X125003065Y-81237819D01*
X125003065Y-81237819D02*
X124964969Y-81085438D01*
X124964969Y-81085438D02*
X124964969Y-80971152D01*
X124964969Y-80971152D02*
X125003065Y-80818771D01*
X125003065Y-80818771D02*
X125041160Y-80742580D01*
X125041160Y-80742580D02*
X125117350Y-80666390D01*
X125117350Y-80666390D02*
X125231636Y-80628295D01*
X125231636Y-80628295D02*
X125307827Y-80628295D01*
X125307827Y-80628295D02*
X125422112Y-80666390D01*
X125422112Y-80666390D02*
X125460208Y-80704485D01*
X126184017Y-81428295D02*
X125803065Y-81428295D01*
X125803065Y-81428295D02*
X125803065Y-80628295D01*
X124406207Y-85492390D02*
X124330017Y-85454295D01*
X124330017Y-85454295D02*
X124215731Y-85454295D01*
X124215731Y-85454295D02*
X124101445Y-85492390D01*
X124101445Y-85492390D02*
X124025255Y-85568580D01*
X124025255Y-85568580D02*
X123987160Y-85644771D01*
X123987160Y-85644771D02*
X123949064Y-85797152D01*
X123949064Y-85797152D02*
X123949064Y-85911438D01*
X123949064Y-85911438D02*
X123987160Y-86063819D01*
X123987160Y-86063819D02*
X124025255Y-86140009D01*
X124025255Y-86140009D02*
X124101445Y-86216200D01*
X124101445Y-86216200D02*
X124215731Y-86254295D01*
X124215731Y-86254295D02*
X124291922Y-86254295D01*
X124291922Y-86254295D02*
X124406207Y-86216200D01*
X124406207Y-86216200D02*
X124444303Y-86178104D01*
X124444303Y-86178104D02*
X124444303Y-85911438D01*
X124444303Y-85911438D02*
X124291922Y-85911438D01*
X124787160Y-86254295D02*
X124787160Y-85454295D01*
X124787160Y-85454295D02*
X125244303Y-86254295D01*
X125244303Y-86254295D02*
X125244303Y-85454295D01*
X125625255Y-86254295D02*
X125625255Y-85454295D01*
X125625255Y-85454295D02*
X125815731Y-85454295D01*
X125815731Y-85454295D02*
X125930017Y-85492390D01*
X125930017Y-85492390D02*
X126006207Y-85568580D01*
X126006207Y-85568580D02*
X126044302Y-85644771D01*
X126044302Y-85644771D02*
X126082398Y-85797152D01*
X126082398Y-85797152D02*
X126082398Y-85911438D01*
X126082398Y-85911438D02*
X126044302Y-86063819D01*
X126044302Y-86063819D02*
X126006207Y-86140009D01*
X126006207Y-86140009D02*
X125930017Y-86216200D01*
X125930017Y-86216200D02*
X125815731Y-86254295D01*
X125815731Y-86254295D02*
X125625255Y-86254295D01*
X143817295Y-82567095D02*
X143817295Y-83024238D01*
X143817295Y-82795666D02*
X143017295Y-82795666D01*
X143017295Y-82795666D02*
X143131580Y-82871857D01*
X143131580Y-82871857D02*
X143207771Y-82948047D01*
X143207771Y-82948047D02*
X143245866Y-83024238D01*
X143017295Y-82071856D02*
X143017295Y-81995666D01*
X143017295Y-81995666D02*
X143055390Y-81919475D01*
X143055390Y-81919475D02*
X143093485Y-81881380D01*
X143093485Y-81881380D02*
X143169676Y-81843285D01*
X143169676Y-81843285D02*
X143322057Y-81805190D01*
X143322057Y-81805190D02*
X143512533Y-81805190D01*
X143512533Y-81805190D02*
X143664914Y-81843285D01*
X143664914Y-81843285D02*
X143741104Y-81881380D01*
X143741104Y-81881380D02*
X143779200Y-81919475D01*
X143779200Y-81919475D02*
X143817295Y-81995666D01*
X143817295Y-81995666D02*
X143817295Y-82071856D01*
X143817295Y-82071856D02*
X143779200Y-82148047D01*
X143779200Y-82148047D02*
X143741104Y-82186142D01*
X143741104Y-82186142D02*
X143664914Y-82224237D01*
X143664914Y-82224237D02*
X143512533Y-82262333D01*
X143512533Y-82262333D02*
X143322057Y-82262333D01*
X143322057Y-82262333D02*
X143169676Y-82224237D01*
X143169676Y-82224237D02*
X143093485Y-82186142D01*
X143093485Y-82186142D02*
X143055390Y-82148047D01*
X143055390Y-82148047D02*
X143017295Y-82071856D01*
X143017295Y-81309951D02*
X143017295Y-81233761D01*
X143017295Y-81233761D02*
X143055390Y-81157570D01*
X143055390Y-81157570D02*
X143093485Y-81119475D01*
X143093485Y-81119475D02*
X143169676Y-81081380D01*
X143169676Y-81081380D02*
X143322057Y-81043285D01*
X143322057Y-81043285D02*
X143512533Y-81043285D01*
X143512533Y-81043285D02*
X143664914Y-81081380D01*
X143664914Y-81081380D02*
X143741104Y-81119475D01*
X143741104Y-81119475D02*
X143779200Y-81157570D01*
X143779200Y-81157570D02*
X143817295Y-81233761D01*
X143817295Y-81233761D02*
X143817295Y-81309951D01*
X143817295Y-81309951D02*
X143779200Y-81386142D01*
X143779200Y-81386142D02*
X143741104Y-81424237D01*
X143741104Y-81424237D02*
X143664914Y-81462332D01*
X143664914Y-81462332D02*
X143512533Y-81500428D01*
X143512533Y-81500428D02*
X143322057Y-81500428D01*
X143322057Y-81500428D02*
X143169676Y-81462332D01*
X143169676Y-81462332D02*
X143093485Y-81424237D01*
X143093485Y-81424237D02*
X143055390Y-81386142D01*
X143055390Y-81386142D02*
X143017295Y-81309951D01*
X143283961Y-80700427D02*
X143817295Y-80700427D01*
X143360152Y-80700427D02*
X143322057Y-80662332D01*
X143322057Y-80662332D02*
X143283961Y-80586142D01*
X143283961Y-80586142D02*
X143283961Y-80471856D01*
X143283961Y-80471856D02*
X143322057Y-80395665D01*
X143322057Y-80395665D02*
X143398247Y-80357570D01*
X143398247Y-80357570D02*
X143817295Y-80357570D01*
X143398247Y-79709951D02*
X143398247Y-79976617D01*
X143817295Y-79976617D02*
X143017295Y-79976617D01*
X143017295Y-79976617D02*
X143017295Y-79595665D01*
X137183295Y-81817690D02*
X137183295Y-82274833D01*
X137183295Y-82046261D02*
X136383295Y-82046261D01*
X136383295Y-82046261D02*
X136497580Y-82122452D01*
X136497580Y-82122452D02*
X136573771Y-82198642D01*
X136573771Y-82198642D02*
X136611866Y-82274833D01*
X136383295Y-81322451D02*
X136383295Y-81246261D01*
X136383295Y-81246261D02*
X136421390Y-81170070D01*
X136421390Y-81170070D02*
X136459485Y-81131975D01*
X136459485Y-81131975D02*
X136535676Y-81093880D01*
X136535676Y-81093880D02*
X136688057Y-81055785D01*
X136688057Y-81055785D02*
X136878533Y-81055785D01*
X136878533Y-81055785D02*
X137030914Y-81093880D01*
X137030914Y-81093880D02*
X137107104Y-81131975D01*
X137107104Y-81131975D02*
X137145200Y-81170070D01*
X137145200Y-81170070D02*
X137183295Y-81246261D01*
X137183295Y-81246261D02*
X137183295Y-81322451D01*
X137183295Y-81322451D02*
X137145200Y-81398642D01*
X137145200Y-81398642D02*
X137107104Y-81436737D01*
X137107104Y-81436737D02*
X137030914Y-81474832D01*
X137030914Y-81474832D02*
X136878533Y-81512928D01*
X136878533Y-81512928D02*
X136688057Y-81512928D01*
X136688057Y-81512928D02*
X136535676Y-81474832D01*
X136535676Y-81474832D02*
X136459485Y-81436737D01*
X136459485Y-81436737D02*
X136421390Y-81398642D01*
X136421390Y-81398642D02*
X136383295Y-81322451D01*
X137183295Y-80712927D02*
X136383295Y-80712927D01*
X136878533Y-80636737D02*
X137183295Y-80408165D01*
X136649961Y-80408165D02*
X136954723Y-80712927D01*
X140358295Y-81817690D02*
X140358295Y-82274833D01*
X140358295Y-82046261D02*
X139558295Y-82046261D01*
X139558295Y-82046261D02*
X139672580Y-82122452D01*
X139672580Y-82122452D02*
X139748771Y-82198642D01*
X139748771Y-82198642D02*
X139786866Y-82274833D01*
X139558295Y-81322451D02*
X139558295Y-81246261D01*
X139558295Y-81246261D02*
X139596390Y-81170070D01*
X139596390Y-81170070D02*
X139634485Y-81131975D01*
X139634485Y-81131975D02*
X139710676Y-81093880D01*
X139710676Y-81093880D02*
X139863057Y-81055785D01*
X139863057Y-81055785D02*
X140053533Y-81055785D01*
X140053533Y-81055785D02*
X140205914Y-81093880D01*
X140205914Y-81093880D02*
X140282104Y-81131975D01*
X140282104Y-81131975D02*
X140320200Y-81170070D01*
X140320200Y-81170070D02*
X140358295Y-81246261D01*
X140358295Y-81246261D02*
X140358295Y-81322451D01*
X140358295Y-81322451D02*
X140320200Y-81398642D01*
X140320200Y-81398642D02*
X140282104Y-81436737D01*
X140282104Y-81436737D02*
X140205914Y-81474832D01*
X140205914Y-81474832D02*
X140053533Y-81512928D01*
X140053533Y-81512928D02*
X139863057Y-81512928D01*
X139863057Y-81512928D02*
X139710676Y-81474832D01*
X139710676Y-81474832D02*
X139634485Y-81436737D01*
X139634485Y-81436737D02*
X139596390Y-81398642D01*
X139596390Y-81398642D02*
X139558295Y-81322451D01*
X140358295Y-80712927D02*
X139558295Y-80712927D01*
X140053533Y-80636737D02*
X140358295Y-80408165D01*
X139824961Y-80408165D02*
X140129723Y-80712927D01*
X154067143Y-83019200D02*
X154210000Y-83066819D01*
X154210000Y-83066819D02*
X154448095Y-83066819D01*
X154448095Y-83066819D02*
X154543333Y-83019200D01*
X154543333Y-83019200D02*
X154590952Y-82971580D01*
X154590952Y-82971580D02*
X154638571Y-82876342D01*
X154638571Y-82876342D02*
X154638571Y-82781104D01*
X154638571Y-82781104D02*
X154590952Y-82685866D01*
X154590952Y-82685866D02*
X154543333Y-82638247D01*
X154543333Y-82638247D02*
X154448095Y-82590628D01*
X154448095Y-82590628D02*
X154257619Y-82543009D01*
X154257619Y-82543009D02*
X154162381Y-82495390D01*
X154162381Y-82495390D02*
X154114762Y-82447771D01*
X154114762Y-82447771D02*
X154067143Y-82352533D01*
X154067143Y-82352533D02*
X154067143Y-82257295D01*
X154067143Y-82257295D02*
X154114762Y-82162057D01*
X154114762Y-82162057D02*
X154162381Y-82114438D01*
X154162381Y-82114438D02*
X154257619Y-82066819D01*
X154257619Y-82066819D02*
X154495714Y-82066819D01*
X154495714Y-82066819D02*
X154638571Y-82114438D01*
X155067143Y-83066819D02*
X155067143Y-82066819D01*
X155067143Y-82543009D02*
X155638571Y-82543009D01*
X155638571Y-83066819D02*
X155638571Y-82066819D01*
X155971905Y-82066819D02*
X156543333Y-82066819D01*
X156257619Y-83066819D02*
X156257619Y-82066819D01*
X157305238Y-82400152D02*
X157305238Y-83066819D01*
X157067143Y-82019200D02*
X156829048Y-82733485D01*
X156829048Y-82733485D02*
X157448095Y-82733485D01*
X158305238Y-82066819D02*
X157829048Y-82066819D01*
X157829048Y-82066819D02*
X157781429Y-82543009D01*
X157781429Y-82543009D02*
X157829048Y-82495390D01*
X157829048Y-82495390D02*
X157924286Y-82447771D01*
X157924286Y-82447771D02*
X158162381Y-82447771D01*
X158162381Y-82447771D02*
X158257619Y-82495390D01*
X158257619Y-82495390D02*
X158305238Y-82543009D01*
X158305238Y-82543009D02*
X158352857Y-82638247D01*
X158352857Y-82638247D02*
X158352857Y-82876342D01*
X158352857Y-82876342D02*
X158305238Y-82971580D01*
X158305238Y-82971580D02*
X158257619Y-83019200D01*
X158257619Y-83019200D02*
X158162381Y-83066819D01*
X158162381Y-83066819D02*
X157924286Y-83066819D01*
X157924286Y-83066819D02*
X157829048Y-83019200D01*
X157829048Y-83019200D02*
X157781429Y-82971580D01*
D11*
%TO.C,100nF*%
X142515000Y-80617748D02*
X142515000Y-82040252D01*
X140695000Y-80617748D02*
X140695000Y-82040252D01*
%TO.C,10k*%
X135911000Y-80614436D02*
X135911000Y-82068564D01*
X134091000Y-80614436D02*
X134091000Y-82068564D01*
%TO.C,J1*%
X126381000Y-76902000D02*
X127711000Y-76902000D01*
X126381000Y-78232000D02*
X126381000Y-76902000D01*
X126381000Y-79502000D02*
X126381000Y-87182000D01*
X126381000Y-79502000D02*
X129041000Y-79502000D01*
X126381000Y-87182000D02*
X129041000Y-87182000D01*
X129041000Y-79502000D02*
X129041000Y-87182000D01*
%TO.C,10k*%
X139086000Y-80614436D02*
X139086000Y-82068564D01*
X137266000Y-80614436D02*
X137266000Y-82068564D01*
%TO.C,SHT45*%
X161242000Y-83362000D02*
X161242000Y-81862000D01*
X159522000Y-82612000D02*
X159522000Y-81862000D01*
%TD*%
M02*
