%TF.GenerationSoftware,KiCad,Pcbnew,7.0.6-7.0.6~ubuntu22.04.1*%
%TF.CreationDate,2023-08-14T10:47:39+02:00*%
%TF.ProjectId,SHT45,53485434-352e-46b6-9963-61645f706362,rev?*%
%TF.SameCoordinates,Original*%
%TF.FileFunction,Copper,L1,Top*%
%TF.FilePolarity,Positive*%
%FSLAX46Y46*%
G04 Gerber Fmt 4.6, Leading zero omitted, Abs format (unit mm)*
G04 Created by KiCad (PCBNEW 7.0.6-7.0.6~ubuntu22.04.1) date 2023-08-14 10:47:39*
%MOMM*%
%LPD*%
G01*
G04 APERTURE LIST*
G04 Aperture macros list*
%AMRoundRect*
0 Rectangle with rounded corners*
0 $1 Rounding radius*
0 $2 $3 $4 $5 $6 $7 $8 $9 X,Y pos of 4 corners*
0 Add a 4 corners polygon primitive as box body*
4,1,4,$2,$3,$4,$5,$6,$7,$8,$9,$2,$3,0*
0 Add four circle primitives for the rounded corners*
1,1,$1+$1,$2,$3*
1,1,$1+$1,$4,$5*
1,1,$1+$1,$6,$7*
1,1,$1+$1,$8,$9*
0 Add four rect primitives between the rounded corners*
20,1,$1+$1,$2,$3,$4,$5,0*
20,1,$1+$1,$4,$5,$6,$7,0*
20,1,$1+$1,$6,$7,$8,$9,0*
20,1,$1+$1,$8,$9,$2,$3,0*%
G04 Aperture macros list end*
%TA.AperFunction,SMDPad,CuDef*%
%ADD10RoundRect,0.250000X-0.650000X0.325000X-0.650000X-0.325000X0.650000X-0.325000X0.650000X0.325000X0*%
%TD*%
%TA.AperFunction,SMDPad,CuDef*%
%ADD11RoundRect,0.250000X-0.625000X0.312500X-0.625000X-0.312500X0.625000X-0.312500X0.625000X0.312500X0*%
%TD*%
%TA.AperFunction,ComponentPad*%
%ADD12R,1.700000X1.700000*%
%TD*%
%TA.AperFunction,ComponentPad*%
%ADD13O,1.700000X1.700000*%
%TD*%
%TA.AperFunction,SMDPad,CuDef*%
%ADD14R,0.300000X0.500000*%
%TD*%
%TA.AperFunction,ViaPad*%
%ADD15C,0.800000*%
%TD*%
%TA.AperFunction,Conductor*%
%ADD16C,0.250000*%
%TD*%
G04 APERTURE END LIST*
D10*
%TO.P,100nF,1*%
%TO.N,+3.3V*%
X141605000Y-79854000D03*
%TO.P,100nF,2*%
%TO.N,GND*%
X141605000Y-82804000D03*
%TD*%
D11*
%TO.P,10k,1*%
%TO.N,+3.3V*%
X135001000Y-79879000D03*
%TO.P,10k,2*%
%TO.N,/SCL*%
X135001000Y-82804000D03*
%TD*%
D12*
%TO.P,J1,1,Pin_1*%
%TO.N,+3.3V*%
X127711000Y-78232000D03*
D13*
%TO.P,J1,2,Pin_2*%
%TO.N,/SCL*%
X127711000Y-80772000D03*
%TO.P,J1,3,Pin_3*%
%TO.N,/SDA*%
X127711000Y-83312000D03*
%TO.P,J1,4,Pin_4*%
%TO.N,GND*%
X127711000Y-85852000D03*
%TD*%
D11*
%TO.P,10k,1*%
%TO.N,+3.3V*%
X138176000Y-79879000D03*
%TO.P,10k,2*%
%TO.N,/SDA*%
X138176000Y-82804000D03*
%TD*%
D14*
%TO.P,SHT45,1,SDA*%
%TO.N,/SDA*%
X159982000Y-83312000D03*
%TO.P,SHT45,2,SCL*%
%TO.N,/SCL*%
X160782000Y-83312000D03*
%TO.P,SHT45,3,VDD*%
%TO.N,+3.3V*%
X160782000Y-81912000D03*
%TO.P,SHT45,4,VSS*%
%TO.N,GND*%
X159982000Y-81912000D03*
%TD*%
D15*
%TO.N,GND*%
X151130000Y-82550000D03*
X130048000Y-83566000D03*
%TO.N,/SCL*%
X160274000Y-84582000D03*
%TD*%
D16*
%TO.N,+3.3V*%
X138201000Y-79854000D02*
X138176000Y-79879000D01*
X160655000Y-80899000D02*
X144399000Y-80899000D01*
X143354000Y-79854000D02*
X141605000Y-79854000D01*
X160782000Y-81026000D02*
X160655000Y-80899000D01*
X141605000Y-79854000D02*
X138201000Y-79854000D01*
X132080000Y-78232000D02*
X127711000Y-78232000D01*
X133727000Y-79879000D02*
X132080000Y-78232000D01*
X138176000Y-79879000D02*
X135001000Y-79879000D01*
X144399000Y-80899000D02*
X143354000Y-79854000D01*
X160782000Y-81912000D02*
X160782000Y-81026000D01*
X135001000Y-79879000D02*
X133727000Y-79879000D01*
%TO.N,GND*%
X159982000Y-81912000D02*
X159982000Y-81835222D01*
X159680778Y-81534000D02*
X159258000Y-81534000D01*
X159982000Y-81812000D02*
X159982000Y-81912000D01*
X159982000Y-81835222D02*
X159680778Y-81534000D01*
X159258000Y-81534000D02*
X158877000Y-81915000D01*
%TO.N,/SCL*%
X135001000Y-82804000D02*
X133858000Y-82804000D01*
X133858000Y-82804000D02*
X131826000Y-80772000D01*
X131826000Y-80772000D02*
X127711000Y-80772000D01*
X160782000Y-84455000D02*
X160655000Y-84582000D01*
X160655000Y-84582000D02*
X160274000Y-84582000D01*
X160782000Y-83947000D02*
X160782000Y-84455000D01*
X160782000Y-83312000D02*
X160782000Y-83947000D01*
%TO.N,/SDA*%
X159982000Y-83604000D02*
X159385000Y-84201000D01*
X138176000Y-83820000D02*
X136906000Y-85090000D01*
X129489000Y-85090000D02*
X127711000Y-83312000D01*
X138176000Y-83820000D02*
X138176000Y-82804000D01*
X138557000Y-84201000D02*
X138176000Y-83820000D01*
X136906000Y-85090000D02*
X129489000Y-85090000D01*
X159385000Y-84201000D02*
X138557000Y-84201000D01*
X138303000Y-82931000D02*
X138176000Y-82804000D01*
X159982000Y-83312000D02*
X159982000Y-83604000D01*
%TD*%
%TA.AperFunction,Conductor*%
%TO.N,GND*%
G36*
X131836587Y-78877185D02*
G01*
X131857229Y-78893819D01*
X133226194Y-80262784D01*
X133236019Y-80275048D01*
X133236240Y-80274866D01*
X133241210Y-80280873D01*
X133241213Y-80280876D01*
X133241214Y-80280877D01*
X133291651Y-80328241D01*
X133312530Y-80349120D01*
X133318004Y-80353366D01*
X133322442Y-80357156D01*
X133356418Y-80389062D01*
X133356422Y-80389064D01*
X133373973Y-80398713D01*
X133390231Y-80409392D01*
X133406064Y-80421674D01*
X133422717Y-80428880D01*
X133448837Y-80440183D01*
X133454081Y-80442752D01*
X133494908Y-80465197D01*
X133514312Y-80470179D01*
X133532710Y-80476478D01*
X133551105Y-80484438D01*
X133597129Y-80491726D01*
X133602832Y-80492907D01*
X133646232Y-80504051D01*
X133706269Y-80539790D01*
X133720930Y-80559057D01*
X133783288Y-80660156D01*
X133907344Y-80784212D01*
X134056666Y-80876314D01*
X134223203Y-80931499D01*
X134325991Y-80942000D01*
X135676008Y-80941999D01*
X135778797Y-80931499D01*
X135945334Y-80876314D01*
X136094656Y-80784212D01*
X136218712Y-80660156D01*
X136278389Y-80563402D01*
X136330337Y-80516679D01*
X136383928Y-80504500D01*
X136793072Y-80504500D01*
X136860111Y-80524185D01*
X136898609Y-80563401D01*
X136958288Y-80660156D01*
X137082344Y-80784212D01*
X137231666Y-80876314D01*
X137398203Y-80931499D01*
X137500991Y-80942000D01*
X138851008Y-80941999D01*
X138953797Y-80931499D01*
X139120334Y-80876314D01*
X139269656Y-80784212D01*
X139393712Y-80660156D01*
X139468809Y-80538402D01*
X139520757Y-80491679D01*
X139574348Y-80479500D01*
X140189362Y-80479500D01*
X140256401Y-80499185D01*
X140294899Y-80538401D01*
X140362288Y-80647656D01*
X140486344Y-80771712D01*
X140635666Y-80863814D01*
X140802203Y-80918999D01*
X140904991Y-80929500D01*
X142305008Y-80929499D01*
X142407797Y-80918999D01*
X142574334Y-80863814D01*
X142723656Y-80771712D01*
X142847712Y-80647656D01*
X142915099Y-80538402D01*
X142967047Y-80491679D01*
X143020638Y-80479500D01*
X143043548Y-80479500D01*
X143110587Y-80499185D01*
X143131228Y-80515818D01*
X143523553Y-80908144D01*
X143898197Y-81282788D01*
X143908022Y-81295051D01*
X143908243Y-81294869D01*
X143913214Y-81300878D01*
X143939217Y-81325295D01*
X143963635Y-81348226D01*
X143984529Y-81369120D01*
X143990011Y-81373373D01*
X143994443Y-81377157D01*
X144028418Y-81409062D01*
X144045976Y-81418714D01*
X144062235Y-81429395D01*
X144078064Y-81441673D01*
X144120838Y-81460182D01*
X144126056Y-81462738D01*
X144166908Y-81485197D01*
X144186316Y-81490180D01*
X144204717Y-81496480D01*
X144223104Y-81504437D01*
X144266488Y-81511308D01*
X144269119Y-81511725D01*
X144274839Y-81512909D01*
X144319981Y-81524500D01*
X144340016Y-81524500D01*
X144359414Y-81526026D01*
X144379194Y-81529159D01*
X144379195Y-81529160D01*
X144379195Y-81529159D01*
X144379196Y-81529160D01*
X144425583Y-81524775D01*
X144431422Y-81524500D01*
X159208000Y-81524500D01*
X159275039Y-81544185D01*
X159320794Y-81596989D01*
X159332000Y-81648500D01*
X159332000Y-81762000D01*
X159508000Y-81762000D01*
X159575039Y-81781685D01*
X159620794Y-81834489D01*
X159632000Y-81886000D01*
X159632000Y-81938000D01*
X159612315Y-82005039D01*
X159559511Y-82050794D01*
X159508000Y-82062000D01*
X159332000Y-82062000D01*
X159332000Y-82209844D01*
X159338401Y-82269372D01*
X159338403Y-82269379D01*
X159388645Y-82404086D01*
X159388649Y-82404093D01*
X159474809Y-82519187D01*
X159479584Y-82523962D01*
X159513069Y-82585285D01*
X159508085Y-82654977D01*
X159479584Y-82699324D01*
X159474452Y-82704455D01*
X159388206Y-82819664D01*
X159388202Y-82819671D01*
X159337908Y-82954517D01*
X159331501Y-83014116D01*
X159331501Y-83014123D01*
X159331500Y-83014135D01*
X159331500Y-83318546D01*
X159311815Y-83385585D01*
X159295185Y-83406222D01*
X159162226Y-83539182D01*
X159100906Y-83572666D01*
X159074547Y-83575500D01*
X143068869Y-83575500D01*
X143001830Y-83555815D01*
X142956075Y-83503011D01*
X142946131Y-83433853D01*
X142951163Y-83412496D01*
X142994505Y-83281697D01*
X142994506Y-83281690D01*
X143004999Y-83178986D01*
X143005000Y-83178973D01*
X143005000Y-83054000D01*
X140205001Y-83054000D01*
X140205001Y-83178986D01*
X140215494Y-83281697D01*
X140258837Y-83412496D01*
X140261239Y-83482324D01*
X140225507Y-83542366D01*
X140162987Y-83573559D01*
X140141131Y-83575500D01*
X139611253Y-83575500D01*
X139544214Y-83555815D01*
X139498459Y-83503011D01*
X139488515Y-83433853D01*
X139493547Y-83412496D01*
X139494542Y-83409494D01*
X139540999Y-83269297D01*
X139551500Y-83166509D01*
X139551499Y-82554000D01*
X140205000Y-82554000D01*
X141355000Y-82554000D01*
X141355000Y-81729000D01*
X141855000Y-81729000D01*
X141855000Y-82554000D01*
X143004999Y-82554000D01*
X143004999Y-82429028D01*
X143004998Y-82429013D01*
X142994505Y-82326302D01*
X142939358Y-82159880D01*
X142939356Y-82159875D01*
X142847315Y-82010654D01*
X142723345Y-81886684D01*
X142574124Y-81794643D01*
X142574119Y-81794641D01*
X142407697Y-81739494D01*
X142407690Y-81739493D01*
X142304986Y-81729000D01*
X141855000Y-81729000D01*
X141355000Y-81729000D01*
X140905028Y-81729000D01*
X140905012Y-81729001D01*
X140802302Y-81739494D01*
X140635880Y-81794641D01*
X140635875Y-81794643D01*
X140486654Y-81886684D01*
X140362684Y-82010654D01*
X140270643Y-82159875D01*
X140270641Y-82159880D01*
X140215494Y-82326302D01*
X140215493Y-82326309D01*
X140205000Y-82429013D01*
X140205000Y-82554000D01*
X139551499Y-82554000D01*
X139551499Y-82441492D01*
X139547703Y-82404335D01*
X139540999Y-82338703D01*
X139540998Y-82338700D01*
X139519393Y-82273501D01*
X139485814Y-82172166D01*
X139393712Y-82022844D01*
X139269656Y-81898788D01*
X139165410Y-81834489D01*
X139120336Y-81806687D01*
X139120331Y-81806685D01*
X139118862Y-81806198D01*
X138953797Y-81751501D01*
X138953795Y-81751500D01*
X138851010Y-81741000D01*
X137500998Y-81741000D01*
X137500981Y-81741001D01*
X137398203Y-81751500D01*
X137398200Y-81751501D01*
X137231668Y-81806685D01*
X137231663Y-81806687D01*
X137082342Y-81898789D01*
X136958289Y-82022842D01*
X136866187Y-82172163D01*
X136866185Y-82172166D01*
X136866186Y-82172166D01*
X136811001Y-82338703D01*
X136811001Y-82338704D01*
X136811000Y-82338704D01*
X136800500Y-82441483D01*
X136800500Y-83166501D01*
X136800501Y-83166519D01*
X136811000Y-83269296D01*
X136811001Y-83269299D01*
X136862537Y-83424823D01*
X136866186Y-83435834D01*
X136952332Y-83575500D01*
X136958289Y-83585157D01*
X137082344Y-83709212D01*
X137146697Y-83748905D01*
X137193422Y-83800853D01*
X137204645Y-83869815D01*
X137176801Y-83933898D01*
X137169282Y-83942125D01*
X136683228Y-84428181D01*
X136621905Y-84461666D01*
X136595547Y-84464500D01*
X129799452Y-84464500D01*
X129732413Y-84444815D01*
X129711771Y-84428181D01*
X129051237Y-83767647D01*
X129017752Y-83706324D01*
X129019143Y-83647872D01*
X129029325Y-83609873D01*
X129046063Y-83547408D01*
X129066659Y-83312000D01*
X129046063Y-83076592D01*
X128984903Y-82848337D01*
X128885035Y-82634171D01*
X128862800Y-82602415D01*
X128749494Y-82440597D01*
X128582402Y-82273506D01*
X128582396Y-82273501D01*
X128396842Y-82143575D01*
X128353217Y-82088998D01*
X128346023Y-82019500D01*
X128377546Y-81957145D01*
X128396842Y-81940425D01*
X128456304Y-81898789D01*
X128582401Y-81810495D01*
X128749495Y-81643401D01*
X128884651Y-81450377D01*
X128939229Y-81406752D01*
X128986227Y-81397500D01*
X131515548Y-81397500D01*
X131582587Y-81417185D01*
X131603229Y-81433819D01*
X133357197Y-83187788D01*
X133367022Y-83200051D01*
X133367243Y-83199869D01*
X133372214Y-83205878D01*
X133398217Y-83230295D01*
X133422635Y-83253226D01*
X133443529Y-83274120D01*
X133449011Y-83278373D01*
X133453443Y-83282157D01*
X133487418Y-83314062D01*
X133504976Y-83323714D01*
X133521233Y-83334393D01*
X133537064Y-83346673D01*
X133556737Y-83355186D01*
X133579833Y-83365182D01*
X133585077Y-83367750D01*
X133625908Y-83390197D01*
X133625915Y-83390198D01*
X133633163Y-83393069D01*
X133632229Y-83395426D01*
X133681616Y-83424823D01*
X133696280Y-83444093D01*
X133783288Y-83585156D01*
X133907344Y-83709212D01*
X134056666Y-83801314D01*
X134223203Y-83856499D01*
X134325991Y-83867000D01*
X135676008Y-83866999D01*
X135778797Y-83856499D01*
X135945334Y-83801314D01*
X136094656Y-83709212D01*
X136218712Y-83585156D01*
X136310814Y-83435834D01*
X136365999Y-83269297D01*
X136376500Y-83166509D01*
X136376499Y-82441492D01*
X136372703Y-82404335D01*
X136365999Y-82338703D01*
X136365998Y-82338700D01*
X136344393Y-82273501D01*
X136310814Y-82172166D01*
X136218712Y-82022844D01*
X136094656Y-81898788D01*
X135990410Y-81834489D01*
X135945336Y-81806687D01*
X135945331Y-81806685D01*
X135943862Y-81806198D01*
X135778797Y-81751501D01*
X135778795Y-81751500D01*
X135676010Y-81741000D01*
X134325998Y-81741000D01*
X134325981Y-81741001D01*
X134223203Y-81751500D01*
X134223200Y-81751501D01*
X134056668Y-81806685D01*
X134056659Y-81806689D01*
X133947518Y-81874008D01*
X133880126Y-81892448D01*
X133813462Y-81871525D01*
X133794741Y-81856150D01*
X132326803Y-80388212D01*
X132316980Y-80375950D01*
X132316759Y-80376134D01*
X132311786Y-80370123D01*
X132295851Y-80355159D01*
X132261364Y-80322773D01*
X132246413Y-80307822D01*
X132240475Y-80301883D01*
X132234986Y-80297625D01*
X132230561Y-80293847D01*
X132196582Y-80261938D01*
X132196580Y-80261936D01*
X132196577Y-80261935D01*
X132179029Y-80252288D01*
X132162763Y-80241604D01*
X132146933Y-80229325D01*
X132104168Y-80210818D01*
X132098922Y-80208248D01*
X132058093Y-80185803D01*
X132058092Y-80185802D01*
X132038693Y-80180822D01*
X132020281Y-80174518D01*
X132001898Y-80166562D01*
X132001892Y-80166560D01*
X131955874Y-80159272D01*
X131950152Y-80158087D01*
X131905021Y-80146500D01*
X131905019Y-80146500D01*
X131884984Y-80146500D01*
X131865586Y-80144973D01*
X131858162Y-80143797D01*
X131845805Y-80141840D01*
X131845804Y-80141840D01*
X131799416Y-80146225D01*
X131793578Y-80146500D01*
X128986227Y-80146500D01*
X128919188Y-80126815D01*
X128884652Y-80093623D01*
X128749496Y-79900600D01*
X128729396Y-79880500D01*
X128627567Y-79778671D01*
X128594084Y-79717351D01*
X128599068Y-79647659D01*
X128640939Y-79591725D01*
X128671915Y-79574810D01*
X128803331Y-79525796D01*
X128918546Y-79439546D01*
X129004796Y-79324331D01*
X129055091Y-79189483D01*
X129061500Y-79129873D01*
X129061500Y-78981499D01*
X129081185Y-78914461D01*
X129133989Y-78868706D01*
X129185500Y-78857500D01*
X131769548Y-78857500D01*
X131836587Y-78877185D01*
G37*
%TD.AperFunction*%
%TA.AperFunction,Conductor*%
G36*
X143452539Y-75712185D02*
G01*
X143498294Y-75764989D01*
X143509500Y-75816500D01*
X143509500Y-78969467D01*
X143509416Y-78969889D01*
X143509459Y-78994001D01*
X143509500Y-78994099D01*
X143509616Y-78994382D01*
X143509775Y-78994540D01*
X143509997Y-78994539D01*
X143510000Y-78994541D01*
X143510002Y-78994539D01*
X143534619Y-78994524D01*
X143534619Y-78994528D01*
X143534760Y-78994500D01*
X144728430Y-78994500D01*
X144795469Y-79014185D01*
X144816111Y-79030819D01*
X145524197Y-79738904D01*
X145524488Y-79739339D01*
X145541616Y-79756381D01*
X145541617Y-79756383D01*
X145541717Y-79756424D01*
X145542000Y-79756542D01*
X145566585Y-79756553D01*
X145566856Y-79756500D01*
X162435500Y-79756500D01*
X162502539Y-79776185D01*
X162548294Y-79828989D01*
X162559500Y-79880500D01*
X162559500Y-85727500D01*
X162539815Y-85794539D01*
X162487011Y-85840294D01*
X162435500Y-85851500D01*
X146074856Y-85851500D01*
X146074703Y-85851469D01*
X146074703Y-85851478D01*
X146050000Y-85851457D01*
X146049756Y-85851559D01*
X146049616Y-85851617D01*
X146032558Y-85868635D01*
X146032357Y-85868934D01*
X145324111Y-86577181D01*
X145262788Y-86610666D01*
X145236430Y-86613500D01*
X143788760Y-86613500D01*
X143788554Y-86613459D01*
X143764000Y-86613459D01*
X143763901Y-86613500D01*
X143763617Y-86613616D01*
X143763615Y-86613618D01*
X143763459Y-86613999D01*
X143763476Y-86638616D01*
X143763471Y-86638616D01*
X143763500Y-86638759D01*
X143763500Y-89029500D01*
X143743815Y-89096539D01*
X143691011Y-89142294D01*
X143639500Y-89153500D01*
X123568500Y-89153500D01*
X123501461Y-89133815D01*
X123455706Y-89081011D01*
X123444500Y-89029500D01*
X123444500Y-83312000D01*
X126355341Y-83312000D01*
X126375936Y-83547403D01*
X126375938Y-83547413D01*
X126437094Y-83775655D01*
X126437096Y-83775659D01*
X126437097Y-83775663D01*
X126514720Y-83942125D01*
X126536965Y-83989830D01*
X126536967Y-83989834D01*
X126645281Y-84144521D01*
X126672505Y-84183401D01*
X126839599Y-84350495D01*
X127017130Y-84474804D01*
X127025594Y-84480730D01*
X127069219Y-84535307D01*
X127076413Y-84604805D01*
X127044890Y-84667160D01*
X127025595Y-84683880D01*
X126839922Y-84813890D01*
X126839920Y-84813891D01*
X126672891Y-84980920D01*
X126672886Y-84980926D01*
X126537400Y-85174420D01*
X126537399Y-85174422D01*
X126437570Y-85388507D01*
X126437567Y-85388513D01*
X126380364Y-85601999D01*
X126380364Y-85602000D01*
X127277314Y-85602000D01*
X127251507Y-85642156D01*
X127211000Y-85780111D01*
X127211000Y-85923889D01*
X127251507Y-86061844D01*
X127277314Y-86102000D01*
X126380364Y-86102000D01*
X126437567Y-86315486D01*
X126437570Y-86315492D01*
X126537399Y-86529578D01*
X126672894Y-86723082D01*
X126839917Y-86890105D01*
X127033421Y-87025600D01*
X127247507Y-87125429D01*
X127247516Y-87125433D01*
X127461000Y-87182634D01*
X127461000Y-86287501D01*
X127568685Y-86336680D01*
X127675237Y-86352000D01*
X127746763Y-86352000D01*
X127853315Y-86336680D01*
X127961000Y-86287501D01*
X127961000Y-87182633D01*
X128174483Y-87125433D01*
X128174492Y-87125429D01*
X128388578Y-87025600D01*
X128582082Y-86890105D01*
X128749105Y-86723082D01*
X128884600Y-86529578D01*
X128984429Y-86315492D01*
X128984432Y-86315486D01*
X129041636Y-86102000D01*
X128144686Y-86102000D01*
X128170493Y-86061844D01*
X128211000Y-85923889D01*
X128211000Y-85780111D01*
X128170493Y-85642156D01*
X128144686Y-85602000D01*
X129086065Y-85602000D01*
X129153104Y-85621685D01*
X129162052Y-85628011D01*
X129168064Y-85632674D01*
X129189977Y-85642156D01*
X129210837Y-85651183D01*
X129216081Y-85653752D01*
X129256908Y-85676197D01*
X129276312Y-85681179D01*
X129294710Y-85687478D01*
X129313105Y-85695438D01*
X129359129Y-85702726D01*
X129364832Y-85703907D01*
X129409981Y-85715500D01*
X129430016Y-85715500D01*
X129449413Y-85717026D01*
X129469196Y-85720160D01*
X129515583Y-85715775D01*
X129521422Y-85715500D01*
X136823257Y-85715500D01*
X136838877Y-85717224D01*
X136838904Y-85716939D01*
X136846660Y-85717671D01*
X136846667Y-85717673D01*
X136915814Y-85715500D01*
X136945350Y-85715500D01*
X136952228Y-85714630D01*
X136958041Y-85714172D01*
X137004627Y-85712709D01*
X137023869Y-85707117D01*
X137042912Y-85703174D01*
X137062792Y-85700664D01*
X137106122Y-85683507D01*
X137111646Y-85681617D01*
X137115396Y-85680527D01*
X137156390Y-85668618D01*
X137173629Y-85658422D01*
X137191103Y-85649862D01*
X137209727Y-85642488D01*
X137209727Y-85642487D01*
X137209732Y-85642486D01*
X137247449Y-85615082D01*
X137252305Y-85611892D01*
X137292420Y-85588170D01*
X137306589Y-85573999D01*
X137321379Y-85561368D01*
X137337587Y-85549594D01*
X137367299Y-85513676D01*
X137371212Y-85509376D01*
X138107276Y-84773312D01*
X138168597Y-84739829D01*
X138238289Y-84744813D01*
X138244192Y-84747190D01*
X138278846Y-84762186D01*
X138284064Y-84764742D01*
X138309423Y-84778684D01*
X138324902Y-84787194D01*
X138324904Y-84787195D01*
X138324908Y-84787197D01*
X138344316Y-84792180D01*
X138362717Y-84798480D01*
X138381104Y-84806437D01*
X138424488Y-84813308D01*
X138427119Y-84813725D01*
X138432839Y-84814909D01*
X138477981Y-84826500D01*
X138498016Y-84826500D01*
X138517414Y-84828026D01*
X138537194Y-84831159D01*
X138537195Y-84831160D01*
X138537195Y-84831159D01*
X138537196Y-84831160D01*
X138583583Y-84826775D01*
X138589422Y-84826500D01*
X159302257Y-84826500D01*
X159317877Y-84828224D01*
X159317904Y-84827939D01*
X159328807Y-84828970D01*
X159331109Y-84829889D01*
X159333278Y-84830374D01*
X159333199Y-84830723D01*
X159393695Y-84854878D01*
X159434276Y-84911755D01*
X159435064Y-84914101D01*
X159446818Y-84950277D01*
X159446821Y-84950284D01*
X159541467Y-85114216D01*
X159595677Y-85174422D01*
X159668129Y-85254888D01*
X159821265Y-85366148D01*
X159821270Y-85366151D01*
X159994192Y-85443142D01*
X159994197Y-85443144D01*
X160179354Y-85482500D01*
X160179355Y-85482500D01*
X160368644Y-85482500D01*
X160368646Y-85482500D01*
X160553803Y-85443144D01*
X160726730Y-85366151D01*
X160879871Y-85254888D01*
X161006533Y-85114216D01*
X161006538Y-85114205D01*
X161008520Y-85111480D01*
X161036256Y-85086245D01*
X161035254Y-85084953D01*
X161041417Y-85080172D01*
X161041417Y-85080171D01*
X161041420Y-85080170D01*
X161055586Y-85066003D01*
X161070381Y-85053368D01*
X161086584Y-85041596D01*
X161086583Y-85041596D01*
X161086587Y-85041594D01*
X161116299Y-85005677D01*
X161120210Y-85001379D01*
X161165789Y-84955800D01*
X161178050Y-84945979D01*
X161177867Y-84945758D01*
X161183876Y-84940787D01*
X161231227Y-84890363D01*
X161252115Y-84869476D01*
X161252115Y-84869475D01*
X161252120Y-84869471D01*
X161256379Y-84863978D01*
X161260152Y-84859561D01*
X161292062Y-84825582D01*
X161301713Y-84808024D01*
X161312396Y-84791761D01*
X161324673Y-84775936D01*
X161343185Y-84733153D01*
X161345738Y-84727941D01*
X161368197Y-84687092D01*
X161373180Y-84667680D01*
X161379481Y-84649280D01*
X161387437Y-84630896D01*
X161394729Y-84584852D01*
X161395906Y-84579171D01*
X161407500Y-84534019D01*
X161407500Y-84513982D01*
X161409027Y-84494582D01*
X161412160Y-84474804D01*
X161407775Y-84428415D01*
X161407500Y-84422577D01*
X161407500Y-83741700D01*
X161415318Y-83698366D01*
X161426090Y-83669485D01*
X161426089Y-83669485D01*
X161426091Y-83669483D01*
X161432500Y-83609873D01*
X161432499Y-83014128D01*
X161426091Y-82954517D01*
X161386488Y-82848337D01*
X161375797Y-82819671D01*
X161375793Y-82819664D01*
X161289547Y-82704455D01*
X161284773Y-82699681D01*
X161251288Y-82638358D01*
X161256272Y-82568666D01*
X161284773Y-82524319D01*
X161289542Y-82519548D01*
X161289546Y-82519546D01*
X161375796Y-82404331D01*
X161426091Y-82269483D01*
X161432500Y-82209873D01*
X161432499Y-81614128D01*
X161426091Y-81554517D01*
X161415317Y-81525632D01*
X161407500Y-81482300D01*
X161407500Y-81108738D01*
X161409224Y-81093124D01*
X161408938Y-81093097D01*
X161409672Y-81085334D01*
X161407500Y-81016203D01*
X161407500Y-80986651D01*
X161407500Y-80986650D01*
X161406629Y-80979759D01*
X161406172Y-80973945D01*
X161405168Y-80941999D01*
X161404709Y-80927373D01*
X161399122Y-80908144D01*
X161395174Y-80889084D01*
X161393561Y-80876312D01*
X161392664Y-80869208D01*
X161375507Y-80825875D01*
X161373619Y-80820359D01*
X161360619Y-80775612D01*
X161350418Y-80758363D01*
X161341860Y-80740894D01*
X161334486Y-80722268D01*
X161334483Y-80722264D01*
X161334483Y-80722263D01*
X161307098Y-80684571D01*
X161303890Y-80679687D01*
X161280172Y-80639582D01*
X161280163Y-80639571D01*
X161266005Y-80625413D01*
X161253370Y-80610620D01*
X161241593Y-80594412D01*
X161205693Y-80564713D01*
X161201381Y-80560790D01*
X161155803Y-80515212D01*
X161145980Y-80502950D01*
X161145759Y-80503134D01*
X161140786Y-80497123D01*
X161136301Y-80492911D01*
X161090364Y-80449773D01*
X161079919Y-80439328D01*
X161069475Y-80428883D01*
X161063986Y-80424625D01*
X161059561Y-80420847D01*
X161025582Y-80388938D01*
X161025580Y-80388936D01*
X161025577Y-80388935D01*
X161008029Y-80379288D01*
X160991763Y-80368604D01*
X160975936Y-80356327D01*
X160975935Y-80356326D01*
X160975933Y-80356325D01*
X160933168Y-80337818D01*
X160927922Y-80335248D01*
X160887093Y-80312803D01*
X160887092Y-80312802D01*
X160867693Y-80307822D01*
X160849281Y-80301518D01*
X160830898Y-80293562D01*
X160830892Y-80293560D01*
X160784874Y-80286272D01*
X160779152Y-80285087D01*
X160734021Y-80273500D01*
X160734019Y-80273500D01*
X160713984Y-80273500D01*
X160694586Y-80271973D01*
X160687162Y-80270797D01*
X160674805Y-80268840D01*
X160674804Y-80268840D01*
X160628416Y-80273225D01*
X160622578Y-80273500D01*
X144709453Y-80273500D01*
X144642414Y-80253815D01*
X144621772Y-80237181D01*
X143854803Y-79470212D01*
X143844980Y-79457950D01*
X143844759Y-79458134D01*
X143839786Y-79452123D01*
X143826391Y-79439544D01*
X143789364Y-79404773D01*
X143778919Y-79394328D01*
X143768475Y-79383883D01*
X143762986Y-79379625D01*
X143758561Y-79375847D01*
X143724582Y-79343938D01*
X143724580Y-79343936D01*
X143724577Y-79343935D01*
X143707029Y-79334288D01*
X143690763Y-79323604D01*
X143674933Y-79311325D01*
X143632168Y-79292818D01*
X143626922Y-79290248D01*
X143586093Y-79267803D01*
X143586092Y-79267802D01*
X143566693Y-79262822D01*
X143548281Y-79256518D01*
X143529898Y-79248562D01*
X143529893Y-79248560D01*
X143493252Y-79242757D01*
X143483862Y-79241270D01*
X143478142Y-79240085D01*
X143472540Y-79238646D01*
X143454155Y-79227699D01*
X143442978Y-79229733D01*
X143440519Y-79229447D01*
X143433020Y-79228500D01*
X143433019Y-79228500D01*
X143412984Y-79228500D01*
X143393586Y-79226973D01*
X143386162Y-79225797D01*
X143373805Y-79223840D01*
X143373804Y-79223840D01*
X143327416Y-79228225D01*
X143321578Y-79228500D01*
X143020638Y-79228500D01*
X142953599Y-79208815D01*
X142915099Y-79169597D01*
X142847712Y-79060344D01*
X142723656Y-78936288D01*
X142627834Y-78877185D01*
X142574336Y-78844187D01*
X142574331Y-78844185D01*
X142520961Y-78826500D01*
X142407797Y-78789001D01*
X142407795Y-78789000D01*
X142305010Y-78778500D01*
X140904998Y-78778500D01*
X140904981Y-78778501D01*
X140802203Y-78789000D01*
X140802200Y-78789001D01*
X140635668Y-78844185D01*
X140635663Y-78844187D01*
X140486342Y-78936289D01*
X140362289Y-79060342D01*
X140362287Y-79060344D01*
X140362288Y-79060344D01*
X140319403Y-79129873D01*
X140294901Y-79169597D01*
X140242953Y-79216321D01*
X140189362Y-79228500D01*
X139543508Y-79228500D01*
X139476469Y-79208815D01*
X139437969Y-79169597D01*
X139393712Y-79097844D01*
X139269656Y-78973788D01*
X139120334Y-78881686D01*
X138953797Y-78826501D01*
X138953795Y-78826500D01*
X138851010Y-78816000D01*
X137500998Y-78816000D01*
X137500981Y-78816001D01*
X137398203Y-78826500D01*
X137398200Y-78826501D01*
X137231668Y-78881685D01*
X137231663Y-78881687D01*
X137082342Y-78973789D01*
X136958289Y-79097842D01*
X136898611Y-79194597D01*
X136846663Y-79241321D01*
X136793072Y-79253500D01*
X136383928Y-79253500D01*
X136316889Y-79233815D01*
X136278389Y-79194597D01*
X136262969Y-79169597D01*
X136218712Y-79097844D01*
X136094656Y-78973788D01*
X135945334Y-78881686D01*
X135778797Y-78826501D01*
X135778795Y-78826500D01*
X135676010Y-78816000D01*
X134325998Y-78816000D01*
X134325981Y-78816001D01*
X134223203Y-78826500D01*
X134223200Y-78826501D01*
X134056668Y-78881685D01*
X134056663Y-78881687D01*
X133918028Y-78967197D01*
X133914350Y-78969467D01*
X133907336Y-78973793D01*
X133894536Y-78986593D01*
X133833211Y-79020075D01*
X133763520Y-79015086D01*
X133719179Y-78986588D01*
X132580803Y-77848212D01*
X132570980Y-77835950D01*
X132570759Y-77836134D01*
X132565786Y-77830123D01*
X132565785Y-77830122D01*
X132515364Y-77782773D01*
X132504919Y-77772328D01*
X132494475Y-77761883D01*
X132488986Y-77757625D01*
X132484561Y-77753847D01*
X132450582Y-77721938D01*
X132450580Y-77721936D01*
X132450577Y-77721935D01*
X132433029Y-77712288D01*
X132416763Y-77701604D01*
X132400933Y-77689325D01*
X132358168Y-77670818D01*
X132352922Y-77668248D01*
X132312093Y-77645803D01*
X132312092Y-77645802D01*
X132292693Y-77640822D01*
X132274281Y-77634518D01*
X132255898Y-77626562D01*
X132255892Y-77626560D01*
X132209874Y-77619272D01*
X132204152Y-77618087D01*
X132159021Y-77606500D01*
X132159019Y-77606500D01*
X132138984Y-77606500D01*
X132119586Y-77604973D01*
X132112162Y-77603797D01*
X132099805Y-77601840D01*
X132099804Y-77601840D01*
X132053416Y-77606225D01*
X132047578Y-77606500D01*
X129185499Y-77606500D01*
X129118460Y-77586815D01*
X129072705Y-77534011D01*
X129061499Y-77482500D01*
X129061499Y-77334129D01*
X129061498Y-77334123D01*
X129061497Y-77334116D01*
X129055091Y-77274517D01*
X129004796Y-77139669D01*
X129004795Y-77139668D01*
X129004793Y-77139664D01*
X128918547Y-77024455D01*
X128918544Y-77024452D01*
X128803335Y-76938206D01*
X128803328Y-76938202D01*
X128668482Y-76887908D01*
X128668483Y-76887908D01*
X128608883Y-76881501D01*
X128608881Y-76881500D01*
X128608873Y-76881500D01*
X128608864Y-76881500D01*
X126813129Y-76881500D01*
X126813123Y-76881501D01*
X126753516Y-76887908D01*
X126618671Y-76938202D01*
X126618664Y-76938206D01*
X126503455Y-77024452D01*
X126503452Y-77024455D01*
X126417206Y-77139664D01*
X126417202Y-77139671D01*
X126366908Y-77274517D01*
X126360501Y-77334116D01*
X126360501Y-77334123D01*
X126360500Y-77334135D01*
X126360500Y-79129870D01*
X126360501Y-79129876D01*
X126366908Y-79189483D01*
X126417202Y-79324328D01*
X126417206Y-79324335D01*
X126503452Y-79439544D01*
X126503455Y-79439547D01*
X126618664Y-79525793D01*
X126618671Y-79525797D01*
X126750081Y-79574810D01*
X126806015Y-79616681D01*
X126830432Y-79682145D01*
X126815580Y-79750418D01*
X126794430Y-79778673D01*
X126672503Y-79900600D01*
X126536965Y-80094169D01*
X126536964Y-80094171D01*
X126437098Y-80308335D01*
X126437094Y-80308344D01*
X126375938Y-80536586D01*
X126375936Y-80536596D01*
X126355341Y-80771999D01*
X126355341Y-80772000D01*
X126375936Y-81007403D01*
X126375938Y-81007413D01*
X126437094Y-81235655D01*
X126437096Y-81235659D01*
X126437097Y-81235663D01*
X126489586Y-81348226D01*
X126536965Y-81449830D01*
X126536967Y-81449834D01*
X126640007Y-81596989D01*
X126672501Y-81643396D01*
X126672506Y-81643402D01*
X126839597Y-81810493D01*
X126839603Y-81810498D01*
X127025158Y-81940425D01*
X127068783Y-81995002D01*
X127075977Y-82064500D01*
X127044454Y-82126855D01*
X127025158Y-82143575D01*
X126839597Y-82273505D01*
X126672505Y-82440597D01*
X126536965Y-82634169D01*
X126536964Y-82634171D01*
X126437098Y-82848335D01*
X126437094Y-82848344D01*
X126375938Y-83076586D01*
X126375936Y-83076596D01*
X126355341Y-83311999D01*
X126355341Y-83312000D01*
X123444500Y-83312000D01*
X123444500Y-75816500D01*
X123464185Y-75749461D01*
X123516989Y-75703706D01*
X123568500Y-75692500D01*
X143385500Y-75692500D01*
X143452539Y-75712185D01*
G37*
%TD.AperFunction*%
%TD*%
M02*
